<svg width="83" height="32" viewBox="0 0 83 32" fill="none" xmlns="http://www.w3.org/2000/svg">
<g id="Group">
<g id="Clip path group">
<mask id="mask0_590_2553" style="mask-type:luminance" maskUnits="userSpaceOnUse" x="0" y="0" width="29" height="32">
<g id="clip1_213_675">
<path id="Vector" d="M28.0789 0H0V32H28.0789V0Z" fill="white"/>
</g>
</mask>
<g mask="url(#mask0_590_2553)">
<g id="Group_2">
<path id="Vector_2" fill-rule="evenodd" clip-rule="evenodd" d="M22.9162 27.5928L23.8673 32.0003L20.0273 29.8952L22.9162 27.5928Z" fill="#2767C7"/>
<g id="Mask group">
<mask id="mask1_590_2553" style="mask-type:luminance" maskUnits="userSpaceOnUse" x="20" y="27" width="4" height="6">
<g id="Group_3">
<path id="Vector_3" d="M22.918 27.5938L23.8693 32.0013L20.0293 29.8962L22.918 27.5938Z" fill="white"/>
</g>
</mask>
<g mask="url(#mask1_590_2553)">
<g id="Group_4">
<path id="Vector_4" fill-rule="evenodd" clip-rule="evenodd" d="M20.0097 29.9556L23.6919 28.9556L23.0813 27.2432L19.459 29.6556L20.0097 29.9556Z" fill="#3A80E9"/>
</g>
</g>
</g>
<path id="Vector_5" fill-rule="evenodd" clip-rule="evenodd" d="M5.15819 27.5928L4.20703 32.0003L8.047 29.8952L5.15819 27.5928Z" fill="#2767C7"/>
<g id="Mask group_2">
<mask id="mask2_590_2553" style="mask-type:luminance" maskUnits="userSpaceOnUse" x="4" y="27" width="5" height="6">
<g id="Group_5">
<path id="Vector_6" d="M5.15623 27.5938L4.20508 32.0013L8.04504 29.8962L5.15623 27.5938Z" fill="white"/>
</g>
</mask>
<g mask="url(#mask2_590_2553)">
<g id="Group_6">
<path id="Vector_7" fill-rule="evenodd" clip-rule="evenodd" d="M5.04102 28.0146L7.23641 30.7421L8.55058 29.8397L5.04102 28.0146Z" fill="#3A80E9"/>
</g>
</g>
</g>
<path id="Vector_8" fill-rule="evenodd" clip-rule="evenodd" d="M14.0407 3.24707C21.7882 3.24707 28.0789 9.52958 28.0789 17.2671C28.0789 25.0047 21.7882 31.2896 14.0407 31.2896C6.2932 31.2896 0 25.0072 0 17.2696C0 9.53209 6.29068 3.24707 14.0407 3.24707Z" fill="#2767C7"/>
<path id="Vector_9" fill-rule="evenodd" clip-rule="evenodd" d="M14.0389 4.62305C21.0279 4.62305 26.7004 10.288 26.7004 17.268C26.7004 24.248 21.0279 29.913 14.0389 29.913C7.04986 29.913 1.375 24.248 1.375 17.2705C1.375 10.293 7.04986 4.62305 14.0389 4.62305Z" fill="#F4F4F4"/>
<path id="Vector_10" fill-rule="evenodd" clip-rule="evenodd" d="M15.9608 3.79211H12.1133L13.0745 1.32715H14.9996L15.9608 3.79211Z" fill="#2767C7"/>
<g id="Mask group_3">
<mask id="mask3_590_2553" style="mask-type:luminance" maskUnits="userSpaceOnUse" x="12" y="1" width="4" height="3">
<g id="Group_7">
<path id="Vector_11" d="M15.9626 3.79309H12.1152L13.0765 1.32812H15.0014L15.9626 3.79309Z" fill="white"/>
</g>
</mask>
<g mask="url(#mask3_590_2553)">
<g id="Group_8">
<path id="Vector_12" fill-rule="evenodd" clip-rule="evenodd" d="M12.7305 1.87649L15.757 2.69651L15.2588 1.52148L12.7305 1.87649Z" fill="#3A80E9"/>
</g>
</g>
</g>
<path id="Vector_13" d="M17.4687 0H10.6074V1.8725H17.4687V0Z" fill="#2767C7"/>
<path id="Vector_14" fill-rule="evenodd" clip-rule="evenodd" d="M14.5986 3.26325H13.4746L13.755 3.09082H14.3183L14.5986 3.26325Z" fill="#2767C7"/>
<path id="Vector_15" fill-rule="evenodd" clip-rule="evenodd" d="M14.0435 7.57422L14.5818 17.7668H13.5078L14.0435 7.57422Z" fill="#2767C7"/>
<path id="Vector_16" fill-rule="evenodd" clip-rule="evenodd" d="M21.9725 17.2928L13.6543 17.8278V16.7578L21.9725 17.2928Z" fill="#2767C7"/>
<path id="Vector_17" d="M14.0644 18.0975C14.5109 18.0975 14.873 17.736 14.873 17.29C14.873 16.844 14.5109 16.4824 14.0644 16.4824C13.6178 16.4824 13.2559 16.844 13.2559 17.29C13.2559 17.736 13.6178 18.0975 14.0644 18.0975Z" fill="#3A80E9"/>
<path id="Vector_18" fill-rule="evenodd" clip-rule="evenodd" d="M14.0399 27.3145L14.3078 28.8594H13.7695L14.0399 27.3145Z" fill="#3A80E9"/>
<path id="Vector_19" fill-rule="evenodd" clip-rule="evenodd" d="M14.0399 7.1553L13.7695 5.61035H14.3078L14.0399 7.1553Z" fill="#3A80E9"/>
<path id="Vector_20" fill-rule="evenodd" clip-rule="evenodd" d="M24.1328 17.2359L25.6774 16.9658V17.5058L24.1328 17.2359Z" fill="#3A80E9"/>
<path id="Vector_21" fill-rule="evenodd" clip-rule="evenodd" d="M3.94494 17.2359L2.40039 17.5058V16.9658L3.94494 17.2359Z" fill="#3A80E9"/>
<path id="Vector_22" fill-rule="evenodd" clip-rule="evenodd" d="M19.084 8.5056L19.6222 7.0332L20.0903 7.30313L19.084 8.5056Z" fill="#3A80E9"/>
<path id="Vector_23" fill-rule="evenodd" clip-rule="evenodd" d="M8.98873 25.9658L8.4505 27.4383L7.98242 27.1683L8.98873 25.9658Z" fill="#3A80E9"/>
<path id="Vector_24" fill-rule="evenodd" clip-rule="evenodd" d="M8.98873 8.5056L7.98242 7.30313L8.4505 7.0332L8.98873 8.5056Z" fill="#3A80E9"/>
<path id="Vector_25" fill-rule="evenodd" clip-rule="evenodd" d="M19.084 25.9658L20.0903 27.1683L19.6222 27.4383L19.084 25.9658Z" fill="#3A80E9"/>
<path id="Vector_26" fill-rule="evenodd" clip-rule="evenodd" d="M5.29609 12.1944L3.82422 11.6569L4.09454 11.1895L5.29609 12.1944Z" fill="#3A80E9"/>
<path id="Vector_27" fill-rule="evenodd" clip-rule="evenodd" d="M22.7852 22.2764L24.257 22.8164L23.9892 23.2814L22.7852 22.2764Z" fill="#3A80E9"/>
<path id="Vector_28" fill-rule="evenodd" clip-rule="evenodd" d="M22.7852 12.1944L23.9892 11.1895L24.257 11.6569L22.7852 12.1944Z" fill="#3A80E9"/>
<path id="Vector_29" fill-rule="evenodd" clip-rule="evenodd" d="M5.29609 22.2764L4.09454 23.2814L3.82422 22.8164L5.29609 22.2764Z" fill="#3A80E9"/>
</g>
</g>
</g>
<path id="Vector_30" d="M46.6233 9.59167C46.6233 12.2031 43.9603 13.1581 42.9422 13.1581C45.2135 13.1581 47.2106 14.4248 47.2106 17.1726C47.2106 18.4589 46.7799 19.4333 45.9967 20.1348C44.9982 21.0313 43.4121 21.4601 41.2387 21.4601H35.541V21.4211C35.6586 21.4211 36.755 21.2457 36.755 19.2773V8.44192C36.755 6.47356 35.6586 6.29819 35.541 6.29819V6.25919H41.8066C43.6275 6.25919 44.8414 6.64894 45.5855 7.25317C46.3295 7.87679 46.6233 8.71479 46.6233 9.59167ZM39.927 20.9533H41.1801C42.0807 20.9533 42.8248 20.6221 43.3338 19.901C43.7449 19.2969 43.9995 18.4784 43.9995 17.3481C43.9995 15.3018 43.138 13.4504 41.1213 13.4504H39.927V20.9533ZM39.927 12.9631H41.1213C42.5702 12.9631 43.5883 11.8134 43.6079 9.70866C43.6079 8.77317 43.4121 8.11067 43.0793 7.66242C42.6094 7.0193 41.9241 6.76593 41.2975 6.76593H39.927V12.9631ZM50.8814 12.2226C50.8814 10.2543 49.7849 10.0789 49.6675 10.0789V10.0399H54.0141V19.2773C54.0141 21.2457 55.1106 21.4211 55.2281 21.4211V21.4601H49.6675V21.4211C49.7849 21.4211 50.8814 21.2457 50.8814 19.2773V12.2226ZM50.6856 7.27267C50.6856 6.35668 51.4492 5.59668 52.3695 5.59668C53.2898 5.59668 54.0533 6.35668 54.0533 7.27267C54.0533 8.18855 53.2898 8.94866 52.3695 8.94866C51.4492 8.94866 50.6856 8.18855 50.6856 7.27267ZM58.2171 8.96805C57.571 6.59055 56.3375 6.29819 56.1612 6.29819V6.25919H61.6631V6.29819C61.6044 6.29819 60.6842 6.57106 61.2715 8.69529L63.347 16.3541L67.6742 6.14231L72.0992 16.0424L74.0768 8.69529C74.6642 6.57106 73.7439 6.29819 73.6851 6.29819V6.25919H76.7788V6.29819C76.6026 6.29819 75.1732 6.57106 74.5858 8.69529L71.1007 21.616L66.2449 10.761L61.6435 21.616L58.2171 8.96805ZM78.323 12.2226C78.323 10.2543 77.2265 10.0789 77.109 10.0789V10.0399H81.4558V19.2773C81.4558 21.2457 82.5523 21.4211 82.6697 21.4211V21.4601H77.109V21.4211C77.2265 21.4211 78.323 21.2457 78.323 19.2773V12.2226ZM78.1272 7.27267C78.1272 6.35668 78.8908 5.59668 79.8111 5.59668C80.7313 5.59668 81.4949 6.35668 81.4949 7.27267C81.4949 8.18855 80.7313 8.94866 79.8111 8.94866C78.8908 8.94866 78.1272 8.18855 78.1272 7.27267Z" fill="#141414"/>
<path id="Vector_31" d="M38.4046 30.6139L37.7847 30.1526C37.5129 30.3453 37.1684 30.4416 36.7514 30.4416C36.4386 30.4416 36.1631 30.386 35.9247 30.2748C35.6902 30.16 35.4947 30.008 35.3383 29.8189C35.1819 29.6299 35.0646 29.4113 34.9864 29.163C34.9082 28.9147 34.8691 28.6534 34.8691 28.3791C34.8691 28.1048 34.9082 27.8436 34.9864 27.5952C35.0646 27.3469 35.1819 27.1283 35.3383 26.9393C35.4947 26.7466 35.6902 26.5946 35.9247 26.4834C36.1631 26.3685 36.4386 26.3111 36.7514 26.3111C37.0642 26.3111 37.3378 26.3685 37.5725 26.4834C37.807 26.5946 38.0026 26.7466 38.1589 26.9393C38.3153 27.1283 38.4325 27.3469 38.5108 27.5952C38.5889 27.8436 38.6281 28.1048 38.6281 28.3791C38.6281 28.6904 38.5778 28.9832 38.4773 29.2575C38.3767 29.5281 38.2259 29.7597 38.0249 29.9524L38.5945 30.3805L38.4046 30.6139ZM37.74 29.7356C37.9187 29.5688 38.0472 29.3649 38.1253 29.1241C38.2073 28.8831 38.2482 28.6349 38.2482 28.3791C38.2482 28.1605 38.2185 27.9473 38.1589 27.7398C38.103 27.5323 38.0137 27.3469 37.8908 27.1838C37.7716 27.0171 37.6171 26.8836 37.4272 26.7836C37.2411 26.6835 37.0157 26.6335 36.7514 26.6335C36.487 26.6335 36.2599 26.6835 36.0699 26.7836C35.8801 26.8836 35.7237 27.0171 35.6008 27.1838C35.4817 27.3469 35.3923 27.5323 35.3327 27.7398C35.2768 27.9473 35.2489 28.1605 35.2489 28.3791C35.2489 28.594 35.2768 28.8072 35.3327 29.0184C35.3923 29.226 35.4817 29.4132 35.6008 29.5799C35.7237 29.743 35.8801 29.8746 36.0699 29.9746C36.2599 30.0747 36.487 30.1247 36.7514 30.1247C37.0343 30.1247 37.2801 30.0599 37.4886 29.9302L36.9636 29.5355L37.1591 29.2964L37.74 29.7356ZM41.6007 30.3638H41.2767V29.8468H41.2655C41.1725 30.0395 41.0366 30.1878 40.8579 30.2915C40.6829 30.3916 40.4873 30.4416 40.2714 30.4416C40.0889 30.4416 39.9325 30.4157 39.8022 30.3638C39.6756 30.3157 39.5713 30.2452 39.4894 30.1526C39.4112 30.0599 39.3535 29.9468 39.3163 29.8134C39.2791 29.6799 39.2604 29.5281 39.2604 29.3575V27.4951H39.6123V29.3631C39.6198 29.6225 39.6793 29.8189 39.791 29.9524C39.9065 30.0858 40.1038 30.1526 40.3831 30.1526C40.5358 30.1526 40.666 30.121 40.774 30.058C40.8821 29.9913 40.9714 29.9042 41.0422 29.7967C41.1129 29.6893 41.1651 29.567 41.1986 29.4298C41.2321 29.289 41.2488 29.1463 41.2488 29.0017V27.4951H41.6007V30.3638ZM42.3442 28.3736C42.3554 28.2068 42.3907 28.0622 42.4502 27.9399C42.5099 27.8177 42.5899 27.7176 42.6905 27.6397C42.7948 27.5619 42.9157 27.5044 43.0535 27.4674C43.1913 27.4303 43.3439 27.4118 43.5115 27.4118C43.6381 27.4118 43.7647 27.4248 43.8914 27.4507C44.018 27.4729 44.1315 27.5175 44.2321 27.5841C44.3326 27.6508 44.4145 27.7454 44.4778 27.8677C44.5411 27.9863 44.5727 28.142 44.5727 28.3347V29.8579C44.5727 29.9988 44.6417 30.0691 44.7794 30.0691C44.8204 30.0691 44.8576 30.0617 44.8911 30.0469V30.3416C44.8502 30.349 44.813 30.3545 44.7794 30.3582C44.7496 30.3619 44.7105 30.3638 44.6622 30.3638C44.5727 30.3638 44.5002 30.3527 44.4443 30.3305C44.3922 30.3045 44.3512 30.2693 44.3214 30.2248C44.2916 30.1804 44.2711 30.1284 44.26 30.0691C44.2525 30.0062 44.2488 29.9376 44.2488 29.8635H44.2376C44.1744 29.9561 44.1092 30.0395 44.0422 30.1136C43.9788 30.1841 43.9062 30.2433 43.8243 30.2915C43.7461 30.3397 43.6549 30.3768 43.5507 30.4027C43.4501 30.4286 43.3291 30.4416 43.1875 30.4416C43.0535 30.4416 42.927 30.4249 42.8078 30.3916C42.6923 30.362 42.5899 30.3138 42.5006 30.247C42.4149 30.1767 42.3461 30.0895 42.2938 29.9857C42.2455 29.8783 42.2213 29.7523 42.2213 29.6077C42.2213 29.4076 42.2659 29.252 42.3554 29.1407C42.4447 29.0258 42.562 28.9388 42.7072 28.8794C42.8562 28.8202 43.0219 28.7794 43.2043 28.7572C43.3905 28.7312 43.5786 28.7071 43.7685 28.6849C43.8429 28.6775 43.9081 28.6682 43.9639 28.6571C44.0198 28.646 44.0664 28.6275 44.1036 28.6015C44.1408 28.5718 44.1687 28.5329 44.1874 28.4848C44.2097 28.4365 44.2209 28.3736 44.2209 28.2958C44.2209 28.1772 44.2004 28.0808 44.1594 28.0067C44.1222 27.9288 44.0682 27.8677 43.9974 27.8232C43.9304 27.7787 43.8503 27.7491 43.7573 27.7342C43.6679 27.7157 43.5711 27.7065 43.4668 27.7065C43.2435 27.7065 43.0609 27.7602 42.9194 27.8677C42.778 27.9714 42.7035 28.1401 42.6961 28.3736H42.3442ZM44.2209 28.7961H44.2097C44.1874 28.8368 44.1445 28.8665 44.0812 28.885C44.018 28.9035 43.9621 28.9166 43.9137 28.924C43.7647 28.9499 43.6102 28.974 43.4501 28.9962C43.2937 29.0147 43.1503 29.0443 43.02 29.0852C42.8896 29.1259 42.7817 29.1852 42.6961 29.2631C42.6142 29.3371 42.5731 29.4447 42.5731 29.5855C42.5731 29.6744 42.5899 29.7541 42.6235 29.8245C42.6607 29.8913 42.7091 29.9505 42.7687 30.0025C42.8283 30.0506 42.8971 30.0877 42.9753 30.1136C43.0535 30.1395 43.1336 30.1526 43.2155 30.1526C43.3495 30.1526 43.478 30.1321 43.6009 30.0914C43.7238 30.0506 43.8299 29.9913 43.9193 29.9135C44.0123 29.8356 44.085 29.7412 44.1371 29.6299C44.193 29.5187 44.2209 29.3928 44.2209 29.252V28.7961ZM43.5338 27.0393L43.5618 26.8003C43.6735 26.7855 43.774 26.7447 43.8635 26.678C43.9565 26.6076 44.003 26.5149 44.003 26.4C44.003 26.2666 43.9528 26.1702 43.8522 26.111C43.7554 26.0479 43.64 26.0164 43.5059 26.0164C43.4278 26.0164 43.3458 26.0257 43.2602 26.0442C43.1782 26.059 43.1094 26.0794 43.0535 26.1053L43.1038 26.3055C43.1559 26.2833 43.2136 26.2648 43.277 26.2499C43.3402 26.235 43.3999 26.2276 43.4557 26.2276C43.653 26.2276 43.7517 26.2889 43.7517 26.4111C43.7517 26.5593 43.6232 26.6483 43.3663 26.678V27.0393H43.5338ZM45.3802 27.4951H45.7321V27.99H45.7432C45.8102 27.8157 45.9294 27.6768 46.1007 27.573C46.2719 27.4655 46.46 27.4118 46.6648 27.4118C46.8659 27.4118 47.0334 27.4377 47.1675 27.4896C47.3053 27.5416 47.4152 27.6156 47.497 27.712C47.579 27.8046 47.6367 27.9195 47.6701 28.0567C47.7036 28.1938 47.7205 28.3476 47.7205 28.5181V30.3638H47.3685V28.5737C47.3685 28.4514 47.3574 28.3384 47.335 28.2346C47.3127 28.127 47.2736 28.0345 47.2177 27.9566C47.1619 27.8788 47.0855 27.8177 46.9888 27.7731C46.8956 27.7287 46.7783 27.7065 46.6369 27.7065C46.4954 27.7065 46.3688 27.7324 46.257 27.7842C46.149 27.8325 46.056 27.901 45.9778 27.99C45.9033 28.0752 45.8437 28.179 45.799 28.3013C45.7581 28.4198 45.7358 28.5496 45.7321 28.6904V30.3638H45.3802V27.4951ZM50.1692 26.3944H50.5211V30.3638H50.1692V26.3944ZM52.2167 27.0949H51.9318L52.5183 26.3111H52.954L52.2167 27.0949ZM50.9823 27.4951H51.3566L52.3061 29.9413L53.1942 27.4951H53.546L52.2949 30.7975C52.2427 30.9197 52.1943 31.0198 52.1497 31.0977C52.105 31.1791 52.0547 31.2422 51.9989 31.2867C51.9468 31.3348 51.8834 31.3681 51.809 31.3867C51.7382 31.409 51.647 31.4201 51.5353 31.4201C51.4645 31.4164 51.4087 31.4127 51.3677 31.409C51.3305 31.409 51.2969 31.4034 51.2672 31.3922V31.0977C51.3081 31.1051 51.3473 31.1106 51.3845 31.1143C51.4254 31.1217 51.4663 31.1254 51.5074 31.1254C51.5855 31.1254 51.6489 31.1143 51.6973 31.0921C51.7494 31.0698 51.7941 31.0383 51.8313 30.9976C51.8685 30.9605 51.9002 30.9141 51.9262 30.8586C51.9524 30.803 51.9803 30.7418 52.01 30.6751L52.1329 30.3527L50.9823 27.4951ZM57.7027 28.3958C57.6544 28.1809 57.565 28.0122 57.4346 27.8899C57.3044 27.7676 57.1218 27.7065 56.8873 27.7065C56.7197 27.7065 56.5727 27.7416 56.446 27.812C56.3194 27.8825 56.2134 27.9752 56.1277 28.09C56.0458 28.2049 55.9824 28.3365 55.9378 28.4848C55.8968 28.6293 55.8763 28.7776 55.8763 28.9295C55.8763 29.0815 55.8968 29.2316 55.9378 29.3798C55.9824 29.5243 56.0458 29.654 56.1277 29.7689C56.2134 29.8839 56.3194 29.9765 56.446 30.0469C56.5727 30.1173 56.7197 30.1526 56.8873 30.1526C56.9953 30.1526 57.0976 30.1321 57.1945 30.0914C57.2914 30.0506 57.3769 29.9951 57.4515 29.9246C57.5259 29.8505 57.5873 29.7634 57.6358 29.6633C57.6841 29.5633 57.7139 29.4539 57.7251 29.3353H58.077C58.0285 29.6838 57.9001 29.9561 57.6916 30.1526C57.4831 30.3453 57.215 30.4416 56.8873 30.4416C56.6676 30.4416 56.4721 30.4027 56.3008 30.3249C56.1332 30.2433 55.9917 30.134 55.8763 29.9969C55.7609 29.8598 55.6734 29.7004 55.6138 29.5187C55.5542 29.3334 55.5244 29.137 55.5244 28.9295C55.5244 28.7219 55.5542 28.5274 55.6138 28.3458C55.6734 28.1605 55.7609 27.9993 55.8763 27.8621C55.9917 27.725 56.1332 27.6156 56.3008 27.5341C56.4721 27.4526 56.6676 27.4118 56.8873 27.4118C57.1964 27.4118 57.457 27.4933 57.6693 27.6564C57.8852 27.8195 58.0137 28.0659 58.0546 28.3958H57.7027ZM58.6722 26.3944H59.024V27.99H59.0352C59.1022 27.8157 59.2213 27.6768 59.3926 27.573C59.5639 27.4655 59.752 27.4118 59.9568 27.4118C60.1578 27.4118 60.3254 27.4377 60.4595 27.4896C60.5972 27.5416 60.7071 27.6156 60.789 27.712C60.871 27.8046 60.9286 27.9195 60.9621 28.0567C60.9957 28.1938 61.0125 28.3476 61.0125 28.5181V30.3638H60.6605V28.5737C60.6605 28.4514 60.6493 28.3384 60.627 28.2346C60.6047 28.127 60.5656 28.0345 60.5097 27.9566C60.4539 27.8788 60.3776 27.8177 60.2807 27.7731C60.1876 27.7287 60.0704 27.7065 59.9289 27.7065C59.7874 27.7065 59.6608 27.7324 59.549 27.7842C59.4411 27.8325 59.348 27.901 59.2697 27.99C59.1953 28.0752 59.1358 28.179 59.091 28.3013C59.0501 28.4198 59.0277 28.5496 59.024 28.6904V30.3638H58.6722V26.3944ZM61.7559 28.3736C61.7671 28.2068 61.8024 28.0622 61.8621 27.9399C61.9216 27.8177 62.0017 27.7176 62.1022 27.6397C62.2065 27.5619 62.3275 27.5044 62.4653 27.4674C62.603 27.4303 62.7556 27.4118 62.9232 27.4118C63.0498 27.4118 63.1764 27.4248 63.3031 27.4507C63.4297 27.4729 63.5432 27.5175 63.6438 27.5841C63.7443 27.6508 63.8262 27.7454 63.8896 27.8677C63.9528 27.9863 63.9844 28.142 63.9844 28.3347V29.8579C63.9844 29.9988 64.0534 30.0691 64.1912 30.0691C64.2321 30.0691 64.2693 30.0617 64.3028 30.0469V30.3416C64.2619 30.349 64.2247 30.3545 64.1912 30.3582C64.1613 30.3619 64.1222 30.3638 64.0739 30.3638C63.9844 30.3638 63.9119 30.3527 63.856 30.3305C63.8039 30.3045 63.7629 30.2693 63.7332 30.2248C63.7033 30.1804 63.6828 30.1284 63.6717 30.0691C63.6642 30.0062 63.6605 29.9376 63.6605 29.8635H63.6493C63.5861 29.9561 63.5209 30.0395 63.4539 30.1136C63.3905 30.1841 63.318 30.2433 63.236 30.2915C63.1578 30.3397 63.0666 30.3768 62.9624 30.4027C62.8618 30.4286 62.7408 30.4416 62.5993 30.4416C62.4653 30.4416 62.3387 30.4249 62.2195 30.3916C62.104 30.362 62.0017 30.3138 61.9123 30.247C61.8266 30.1767 61.7578 30.0895 61.7057 29.9857C61.6572 29.8783 61.633 29.7523 61.633 29.6077C61.633 29.4076 61.6776 29.252 61.7671 29.1407C61.8565 29.0258 61.9737 28.9388 62.1189 28.8794C62.2679 28.8202 62.4336 28.7794 62.616 28.7572C62.8023 28.7312 62.9903 28.7071 63.1802 28.6849C63.2547 28.6775 63.3198 28.6682 63.3756 28.6571C63.4316 28.646 63.4781 28.6275 63.5153 28.6015C63.5525 28.5718 63.5805 28.5329 63.5991 28.4848C63.6214 28.4365 63.6326 28.3736 63.6326 28.2958C63.6326 28.1772 63.6121 28.0808 63.5712 28.0067C63.5339 27.9288 63.4799 27.8677 63.4092 27.8232C63.3421 27.7787 63.2621 27.7491 63.169 27.7342C63.0796 27.7157 62.9828 27.7065 62.8785 27.7065C62.6552 27.7065 62.4727 27.7602 62.3312 27.8677C62.1897 27.9714 62.1152 28.1401 62.1077 28.3736H61.7559ZM63.6326 28.7961H63.6214C63.5991 28.8368 63.5563 28.8665 63.4929 28.885C63.4297 28.9035 63.3738 28.9166 63.3254 28.924C63.1764 28.9499 63.0219 28.974 62.8618 28.9962C62.7054 29.0147 62.562 29.0443 62.4317 29.0852C62.3014 29.1259 62.1934 29.1852 62.1077 29.2631C62.0259 29.3371 61.9848 29.4447 61.9848 29.5855C61.9848 29.6744 62.0017 29.7541 62.0352 29.8245C62.0724 29.8913 62.1208 29.9505 62.1804 30.0025C62.24 30.0506 62.3089 30.0877 62.387 30.1136C62.4653 30.1395 62.5453 30.1526 62.6273 30.1526C62.7612 30.1526 62.8897 30.1321 63.0126 30.0914C63.1355 30.0506 63.2416 29.9913 63.331 29.9135C63.4241 29.8356 63.4967 29.7412 63.5488 29.6299C63.6047 29.5187 63.6326 29.3928 63.6326 29.252V28.7961ZM63.7946 27.1172H63.4315L62.9512 26.5501L62.4596 27.1172H62.1412L62.7724 26.3333H63.1578L63.7946 27.1172ZM63.8001 26.7057H63.5153L64.1018 25.9219H64.5375L63.8001 26.7057ZM64.7975 27.4951H65.1214V27.9789H65.1382C65.2313 27.8009 65.3522 27.662 65.5012 27.5619C65.6539 27.4618 65.8475 27.4118 66.0821 27.4118C66.272 27.4118 66.4433 27.4581 66.5959 27.5508C66.7523 27.6434 66.8566 27.7842 66.9087 27.9733C66.9944 27.7842 67.121 27.6434 67.2886 27.5508C67.4561 27.4581 67.6349 27.4118 67.8247 27.4118C68.4615 27.4118 68.7798 27.7472 68.7798 28.418V30.3638H68.428V28.4347C68.428 28.1975 68.3777 28.0178 68.2772 27.8955C68.1766 27.7694 67.9997 27.7065 67.7466 27.7065C67.5939 27.7065 67.4673 27.7361 67.3667 27.7954C67.2663 27.851 67.1861 27.9269 67.1266 28.0233C67.067 28.1196 67.0242 28.2309 66.9981 28.3569C66.9758 28.4792 66.9646 28.6071 66.9646 28.7404V30.3638H66.6127V28.418C66.6127 28.3217 66.6015 28.2309 66.5792 28.1457C66.5606 28.0567 66.5271 27.9808 66.4786 27.9177C66.434 27.851 66.3726 27.7991 66.2943 27.762C66.2162 27.725 66.1212 27.7065 66.0094 27.7065C65.8606 27.7065 65.7302 27.7342 65.6185 27.7898C65.5105 27.8418 65.4212 27.9158 65.3504 28.0122C65.2834 28.1048 65.2332 28.216 65.1996 28.3458C65.1661 28.4718 65.1493 28.6108 65.1493 28.7628V30.3638H64.7975V27.4951ZM73.2612 28.3958C73.2127 28.1809 73.1234 28.0122 72.9931 27.8899C72.8628 27.7676 72.6803 27.7065 72.4457 27.7065C72.2781 27.7065 72.131 27.7416 72.0045 27.812C71.8779 27.8825 71.7717 27.9752 71.6862 28.09C71.6042 28.2049 71.5409 28.3365 71.4962 28.4848C71.4552 28.6293 71.4348 28.7776 71.4348 28.9295C71.4348 29.0815 71.4552 29.2316 71.4962 29.3798C71.5409 29.5243 71.6042 29.654 71.6862 29.7689C71.7717 29.8839 71.8779 29.9765 72.0045 30.0469C72.131 30.1173 72.2781 30.1526 72.4457 30.1526C72.5537 30.1526 72.6561 30.1321 72.7529 30.0914C72.8497 30.0506 72.9354 29.9951 73.0098 29.9246C73.0844 29.8505 73.1458 29.7634 73.1941 29.6633C73.2426 29.5633 73.2724 29.4539 73.2836 29.3353H73.6354C73.587 29.6838 73.4586 29.9561 73.2501 30.1526C73.0415 30.3453 72.7734 30.4416 72.4457 30.4416C72.226 30.4416 72.0306 30.4027 71.8593 30.3249C71.6917 30.2433 71.5502 30.134 71.4348 29.9969C71.3193 29.8598 71.2319 29.7004 71.1722 29.5187C71.1127 29.3334 71.0829 29.137 71.0829 28.9295C71.0829 28.7219 71.1127 28.5274 71.1722 28.3458C71.2319 28.1605 71.3193 27.9993 71.4348 27.8621C71.5502 27.725 71.6917 27.6156 71.8593 27.5341C72.0306 27.4526 72.226 27.4118 72.4457 27.4118C72.7547 27.4118 73.0154 27.4933 73.2276 27.6564C73.4437 27.8195 73.5722 28.0659 73.6131 28.3958H73.2612ZM76.286 27.0949H75.923L75.4426 26.5278L74.9511 27.0949H74.6272L75.2639 26.3111H75.6492L76.286 27.0949ZM75.4538 27.7065C75.2862 27.7065 75.1391 27.7416 75.0125 27.812C74.8859 27.8825 74.7798 27.9752 74.6941 28.09C74.6123 28.2049 74.5489 28.3365 74.5043 28.4848C74.4633 28.6293 74.4429 28.7776 74.4429 28.9295C74.4429 29.0815 74.4633 29.2316 74.5043 29.3798C74.5489 29.5243 74.6123 29.654 74.6941 29.7689C74.7798 29.8839 74.8859 29.9765 75.0125 30.0469C75.1391 30.1173 75.2862 30.1526 75.4538 30.1526C75.6213 30.1526 75.7684 30.1173 75.895 30.0469C76.0217 29.9765 76.1259 29.8839 76.2078 29.7689C76.2934 29.654 76.3568 29.5243 76.3977 29.3798C76.4424 29.2316 76.4647 29.0815 76.4647 28.9295C76.4647 28.7776 76.4424 28.6293 76.3977 28.4848C76.3568 28.3365 76.2934 28.2049 76.2078 28.09C76.1259 27.9752 76.0217 27.8825 75.895 27.812C75.7684 27.7416 75.6213 27.7065 75.4538 27.7065ZM75.4538 27.4118C75.6734 27.4118 75.8671 27.4526 76.0347 27.5341C76.206 27.6156 76.3493 27.725 76.4647 27.8621C76.5801 27.9993 76.6677 28.1605 76.7272 28.3458C76.7869 28.5274 76.8167 28.7219 76.8167 28.9295C76.8167 29.137 76.7869 29.3334 76.7272 29.5187C76.6677 29.7004 76.5801 29.8598 76.4647 29.9969C76.3493 30.134 76.206 30.2433 76.0347 30.3249C75.8671 30.4027 75.6734 30.4416 75.4538 30.4416C75.2341 30.4416 75.0386 30.4027 74.8673 30.3249C74.6997 30.2433 74.5582 30.134 74.4429 29.9969C74.3274 29.8598 74.2399 29.7004 74.1803 29.5187C74.1207 29.3334 74.0909 29.137 74.0909 28.9295C74.0909 28.7219 74.1207 28.5274 74.1803 28.3458C74.2399 28.1605 74.3274 27.9993 74.4429 27.8621C74.5582 27.725 74.6997 27.6156 74.8673 27.5341C75.0386 27.4526 75.2341 27.4118 75.4538 27.4118ZM77.4459 27.4951H77.7978V27.99H77.8089C77.8759 27.8157 77.9951 27.6768 78.1664 27.573C78.3377 27.4655 78.5258 27.4118 78.7306 27.4118C78.9316 27.4118 79.0992 27.4377 79.2332 27.4896C79.371 27.5416 79.4809 27.6156 79.5627 27.712C79.6447 27.8046 79.7024 27.9195 79.7359 28.0567C79.7694 28.1938 79.7862 28.3476 79.7862 28.5181V30.3638H79.4343V28.5737C79.4343 28.4514 79.4231 28.3384 79.4008 28.2346C79.3784 28.127 79.3394 28.0345 79.2835 27.9566C79.2276 27.8788 79.1514 27.8177 79.0545 27.7731C78.9614 27.7287 78.8442 27.7065 78.7026 27.7065C78.5611 27.7065 78.4345 27.7324 78.3228 27.7842C78.2149 27.8325 78.1217 27.901 78.0435 27.99C77.9691 28.0752 77.9095 28.179 77.8648 28.3013C77.8238 28.4198 77.8015 28.5496 77.7978 28.6904V30.3638H77.4459V27.4951ZM82.9984 30.1303C82.9984 30.3416 82.9743 30.5324 82.9258 30.7029C82.8811 30.8734 82.8084 31.0179 82.708 31.1365C82.6074 31.2552 82.4752 31.3459 82.3114 31.409C82.1512 31.4719 81.9539 31.5034 81.7194 31.5034C81.5742 31.5034 81.4327 31.4868 81.2949 31.4534C81.1571 31.4201 81.0323 31.3681 80.9206 31.2978C80.8127 31.2273 80.7214 31.1365 80.647 31.0253C80.5762 30.9178 80.5352 30.7882 80.5241 30.6362H80.8759C80.8945 30.7436 80.9299 30.8326 80.9821 30.903C81.0379 30.9772 81.1031 31.0364 81.1776 31.0809C81.2558 31.1254 81.3414 31.1569 81.4345 31.1754C81.5275 31.1977 81.6225 31.2088 81.7194 31.2088C82.0471 31.2088 82.2835 31.1162 82.4287 30.9309C82.5739 30.7455 82.6465 30.4787 82.6465 30.1303V29.7412H82.6353C82.5534 29.919 82.4324 30.0617 82.2723 30.1693C82.1159 30.2767 81.9316 30.3305 81.7194 30.3305C81.4885 30.3305 81.2912 30.2933 81.1273 30.2193C80.9635 30.1414 80.8276 30.0358 80.7195 29.9024C80.6152 29.7689 80.539 29.6133 80.4906 29.4354C80.4421 29.2538 80.4179 29.0611 80.4179 28.8572C80.4179 28.6608 80.4458 28.4755 80.5018 28.3013C80.5613 28.1233 80.6451 27.9695 80.753 27.8399C80.8648 27.7065 81.0007 27.6027 81.1608 27.5286C81.3246 27.4507 81.5108 27.4118 81.7194 27.4118C81.8273 27.4118 81.9279 27.4266 82.0209 27.4563C82.1178 27.4859 82.2053 27.5286 82.2835 27.5841C82.3617 27.636 82.4305 27.6972 82.4901 27.7676C82.5534 27.8381 82.6018 27.9121 82.6353 27.99H82.6465V27.4951H82.9984V30.1303ZM81.7194 30.0358C81.8721 30.0358 82.006 30.0043 82.1215 29.9413C82.2369 29.8746 82.3337 29.7893 82.4119 29.6856C82.4901 29.5781 82.5479 29.4558 82.5851 29.3186C82.626 29.1815 82.6465 29.0406 82.6465 28.8961C82.6465 28.7554 82.6297 28.6145 82.5962 28.4737C82.5628 28.3328 82.5088 28.2049 82.4343 28.09C82.3598 27.9752 82.263 27.8825 82.1438 27.812C82.0285 27.7416 81.8869 27.7065 81.7194 27.7065C81.5517 27.7065 81.4085 27.7416 81.2893 27.812C81.1701 27.8788 81.0714 27.9677 80.9933 28.0789C80.915 28.1901 80.8573 28.318 80.8201 28.4626C80.7866 28.6034 80.7698 28.7478 80.7698 28.8961C80.7698 29.0406 80.7885 29.1815 80.8257 29.3186C80.8629 29.4558 80.9206 29.5781 80.9988 29.6856C81.077 29.7893 81.1757 29.8746 81.2949 29.9413C81.4141 30.0043 81.5555 30.0358 81.7194 30.0358Z" fill="#141414"/>
</g>
</svg>
