<svg width="23" height="24" viewBox="0 0 23 24" fill="none" xmlns="http://www.w3.org/2000/svg">
<mask id="mask0_211_4724" style="mask-type:alpha" maskUnits="userSpaceOnUse" x="0" y="0" width="23" height="24">
<rect y="0.304688" width="23" height="23" fill="#C4C4C4"/>
</mask>
<g mask="url(#mask0_211_4724)">
<path d="M11.5 22.1546C5.79281 22.1546 1.15002 17.5118 1.15002 11.8046C1.15002 6.09737 5.79281 1.45459 11.5 1.45459C17.2072 1.45459 21.85 6.09737 21.85 11.8046C21.85 17.5118 17.2072 22.1546 11.5 22.1546ZM11.5 2.74834C6.50617 2.74834 2.44377 6.81073 2.44377 11.8046C2.44377 16.7984 6.50617 20.8608 11.5 20.8608C16.4939 20.8608 20.5563 16.7984 20.5563 11.8046C20.5563 6.81073 16.4939 2.74834 11.5 2.74834Z" fill="#4F4F4F" stroke="#4F4F4F" stroke-width="0.2"/>
<path d="M12.3625 16.9796C12.3625 17.4559 11.9764 17.8421 11.5001 17.8421C11.0238 17.8421 10.6376 17.4559 10.6376 16.9796C10.6376 16.5033 11.0238 16.1172 11.5001 16.1172C11.9764 16.1172 12.3625 16.5033 12.3625 16.9796Z" fill="#4F4F4F" stroke="#4F4F4F" stroke-width="0.2"/>
<path d="M11.5 14.1765C11.143 14.1765 10.8532 13.8867 10.8532 13.5296V12.6585C10.8532 11.8374 11.3742 11.1017 12.1486 10.8283C13.1793 10.4652 13.872 9.36713 13.872 8.57022C13.872 7.26178 12.8085 6.19829 11.5 6.19829C10.1916 6.19829 9.1281 7.26178 9.1281 8.57022C9.1281 8.9273 8.8383 9.21709 8.48123 9.21709C8.12415 9.21709 7.83435 8.9273 7.83435 8.57022C7.83435 6.54937 9.47839 4.90454 11.5 4.90454C13.5217 4.90454 15.1657 6.54937 15.1657 8.57022C15.1657 10.0089 14.0297 11.5364 12.579 12.0488C12.3203 12.1392 12.1469 12.385 12.1469 12.6593V13.5296C12.1469 13.8867 11.8571 14.1765 11.5 14.1765Z" fill="#4F4F4F" stroke="#4F4F4F" stroke-width="0.2"/>
</g>
</svg>
