<svg width="20" height="20" viewBox="0 0 20 20" fill="none" xmlns="http://www.w3.org/2000/svg">
<path fill-rule="evenodd" clip-rule="evenodd" d="M1 0.683105C0.447715 0.683105 0 1.13082 0 1.68311V17.6831C0 18.2354 0.447716 18.6831 1 18.6831H10.5051C9.74898 17.6792 9.30078 16.4304 9.30078 15.0768C9.30078 12.2098 11.3117 9.81243 14 9.21821V1.68311C14 1.13082 13.5523 0.683105 13 0.683105H1Z" fill="#5973FC"/>
<line x1="2.52527" y1="4.95386" x2="7.44422" y2="4.95386" stroke="white" stroke-linecap="round"/>
<line x1="2.52527" y1="7.05688" x2="9.50865" y2="7.05688" stroke="white" stroke-linecap="round"/>
<path fill-rule="evenodd" clip-rule="evenodd" d="M14.9952 19.9973C17.7567 19.9973 19.9952 17.7587 19.9952 14.9973C19.9952 14.1082 19.7632 13.2733 19.3563 12.5499L14.7806 14.9016V10.0581H15.7772C15.5224 10.0181 15.2613 9.99731 14.9952 9.99731C12.2338 9.99731 9.99524 12.2359 9.99524 14.9973C9.99524 17.7587 12.2338 19.9973 14.9952 19.9973Z" fill="#59C3FF"/>
<path fill-rule="evenodd" clip-rule="evenodd" d="M19.0486 12.1571L15.2769 14.0955V9.8042C16.906 9.87456 18.3115 10.8071 19.0486 12.1571Z" fill="#5973FC"/>
</svg>
