<svg width="19" height="21" viewBox="0 0 19 21" fill="none" xmlns="http://www.w3.org/2000/svg">
<path fill-rule="evenodd" clip-rule="evenodd" d="M1 0.683105C0.447715 0.683105 0 1.13082 0 1.68311V17.6831C0 18.2354 0.447716 18.6831 1 18.6831H11.1478C10.0915 17.3375 9.16714 15.8625 9.16714 14.8212C9.16714 12.0392 11.2492 9.69087 14 9.58237V1.68311C14 1.13082 13.5523 0.683105 13 0.683105H1Z" fill="#5973FC"/>
<path fill-rule="evenodd" clip-rule="evenodd" d="M14.0149 20.6201C14.0149 20.6201 17.782 17.5643 18.0012 14.8268C18.1805 12.5878 16.3008 10.6201 14.0149 10.6201C11.7291 10.6201 9.78934 12.4432 9.97734 14.8268C10.1942 17.576 14.0149 20.6201 14.0149 20.6201ZM13.9893 16.6155C15.1322 16.6155 16.0587 15.689 16.0587 14.546C16.0587 13.4031 15.1322 12.4766 13.9893 12.4766C12.8464 12.4766 11.9198 13.4031 11.9198 14.546C11.9198 15.689 12.8464 16.6155 13.9893 16.6155Z" fill="#59C3FF"/>
<line x1="2.52527" y1="4.95361" x2="7.44422" y2="4.95361" stroke="white" stroke-linecap="round"/>
<line x1="2.52527" y1="7.05664" x2="9.50865" y2="7.05664" stroke="white" stroke-linecap="round"/>
</svg>
