<svg width="19" height="19" viewBox="0 0 19 19" fill="none" xmlns="http://www.w3.org/2000/svg">
<path fill-rule="evenodd" clip-rule="evenodd" d="M18.1743 12.6843C17.265 12.999 16.2912 13.1696 15.2787 13.1696C10.2696 13.1696 6.20898 8.9946 6.20898 3.84442C6.20898 2.71097 6.40566 1.62475 6.76584 0.619873C3.17671 1.86226 0.591797 5.35062 0.591797 9.45973C0.591797 14.6099 4.65244 18.785 9.66149 18.785C13.5682 18.785 16.8979 16.2454 18.1743 12.6843Z" fill="#5973FC"/>
<path d="M12.6207 1.80033C12.7659 1.49779 13.1967 1.49779 13.3419 1.80033L14.032 3.23811C14.0894 3.35768 14.2024 3.44103 14.3335 3.46063L15.8947 3.69387C16.2194 3.74237 16.3506 4.13965 16.1188 4.37201L14.9751 5.51818C14.884 5.60953 14.8425 5.73924 14.8638 5.86652L15.1318 7.47333C15.1866 7.80162 14.8398 8.04929 14.547 7.89103L13.1715 7.14749C13.0528 7.08333 12.9098 7.08333 12.7911 7.14749L11.4155 7.89103C11.1228 8.04929 10.776 7.80162 10.8308 7.47333L11.0988 5.86652C11.1201 5.73924 11.0786 5.60953 10.9874 5.51818L9.84381 4.37201C9.61197 4.13965 9.74323 3.74237 10.0679 3.69387L11.629 3.46063C11.7602 3.44103 11.8731 3.35768 11.9305 3.23811L12.6207 1.80033Z" fill="#59C3FF"/>
</svg>
