<svg width="17" height="16" viewBox="0 0 17 16" fill="none" xmlns="http://www.w3.org/2000/svg">
<g id="icon/add">
<path id="Icon (Stroke)" fill-rule="evenodd" clip-rule="evenodd" d="M8.50065 1.83301C5.0949 1.83301 2.33398 4.59392 2.33398 7.99967C2.33398 11.4054 5.0949 14.1663 8.50065 14.1663C11.9064 14.1663 14.6673 11.4054 14.6673 7.99967C14.6673 4.59392 11.9064 1.83301 8.50065 1.83301ZM1.33398 7.99967C1.33398 4.04163 4.54261 0.833008 8.50065 0.833008C12.4587 0.833008 15.6673 4.04163 15.6673 7.99967C15.6673 11.9577 12.4587 15.1663 8.50065 15.1663C4.54261 15.1663 1.33398 11.9577 1.33398 7.99967ZM8.50065 4.83301C8.77679 4.83301 9.00065 5.05687 9.00065 5.33301V7.49967H11.1673C11.4435 7.49967 11.6673 7.72353 11.6673 7.99967C11.6673 8.27582 11.4435 8.49967 11.1673 8.49967H9.00065V10.6663C9.00065 10.9425 8.77679 11.1663 8.50065 11.1663C8.22451 11.1663 8.00065 10.9425 8.00065 10.6663V8.49967H5.83398C5.55784 8.49967 5.33398 8.27582 5.33398 7.99967C5.33398 7.72353 5.55784 7.49967 5.83398 7.49967H8.00065V5.33301C8.00065 5.05687 8.22451 4.83301 8.50065 4.83301Z" fill="white"/>
</g>
</svg>
