<svg width="16" height="16" viewBox="0 0 16 16" fill="none" xmlns="http://www.w3.org/2000/svg">
<g id="icon/adjust">
<path id="Icon (Stroke)" fill-rule="evenodd" clip-rule="evenodd" d="M12 3.83301C11.1716 3.83301 10.5 4.50458 10.5 5.33301C10.5 6.16144 11.1716 6.83301 12 6.83301C12.8284 6.83301 13.5 6.16143 13.5 5.33301C13.5 4.50458 12.8284 3.83301 12 3.83301ZM9.55001 4.83301C9.78164 3.69189 10.7905 2.83301 12 2.83301C13.3807 2.83301 14.5 3.9523 14.5 5.33301C14.5 6.71372 13.3807 7.83301 12 7.83301C10.7905 7.83301 9.78164 6.97413 9.55001 5.83301L2 5.83301C1.72386 5.83301 1.5 5.60915 1.5 5.33301C1.5 5.05687 1.72386 4.83301 2 4.83301L9.55001 4.83301ZM4 9.16634C3.17157 9.16634 2.5 9.83791 2.5 10.6663C2.5 11.4948 3.17157 12.1663 4 12.1663C4.82843 12.1663 5.5 11.4948 5.5 10.6663C5.5 9.83791 4.82843 9.16634 4 9.16634ZM1.5 10.6663C1.5 9.28563 2.61929 8.16634 4 8.16634C5.20948 8.16634 6.21836 9.02522 6.44999 10.1663L14 10.1663C14.2761 10.1663 14.5 10.3902 14.5 10.6663C14.5 10.9425 14.2761 11.1663 14 11.1663H6.44999C6.21836 12.3075 5.20948 13.1663 4 13.1663C2.61929 13.1663 1.5 12.0471 1.5 10.6663Z" fill="#146BD2"/>
</g>
</svg>
