<svg width="20" height="20" viewBox="0 0 20 20" fill="none" xmlns="http://www.w3.org/2000/svg">
<g id="icon/arrow block">
<path id="Icon (Stroke)" fill-rule="evenodd" clip-rule="evenodd" d="M11.4275 3.58959C11.661 3.49285 11.9299 3.54632 12.1086 3.72507L17.9419 9.5584C18.186 9.80248 18.186 10.1982 17.9419 10.4423L12.1086 16.2756C11.9299 16.4544 11.661 16.5078 11.4275 16.4111C11.1939 16.3144 11.0417 16.0865 11.0417 15.8337V13.1253L3.14982 13.1253C3.04802 13.1254 2.93765 13.1254 2.84211 13.1176C2.73398 13.1088 2.59112 13.0869 2.44377 13.0118C2.24776 12.9119 2.08841 12.7526 1.98854 12.5566C1.91346 12.4092 1.89159 12.2664 1.88276 12.1582C1.87495 12.0627 1.87498 11.9523 1.875 11.8505L1.87501 8.16701C1.87501 8.16142 1.875 8.15581 1.875 8.15016C1.87498 8.04836 1.87495 7.93799 1.88276 7.84245C1.89159 7.73432 1.91346 7.59146 1.98854 7.4441C2.08841 7.2481 2.24776 7.08875 2.44377 6.98888C2.59112 6.9138 2.73398 6.89193 2.84211 6.8831C2.93765 6.87529 3.04803 6.87532 3.14983 6.87534C3.15547 6.87534 3.16109 6.87534 3.16667 6.87534H11.0417V4.16701C11.0417 3.91422 11.1939 3.68632 11.4275 3.58959ZM12.2917 5.67589V7.50034C12.2917 7.84552 12.0119 8.12534 11.6667 8.12534H3.16667C3.15197 8.12534 3.13813 8.12534 3.12502 8.12535C3.12501 8.13846 3.12501 8.15231 3.12501 8.16701V11.8337C3.12501 11.8484 3.12501 11.8622 3.12502 11.8753C3.13813 11.8753 3.15197 11.8753 3.16667 11.8753H11.6667C12.0119 11.8753 12.2917 12.1552 12.2917 12.5003V14.3248L16.6161 10.0003L12.2917 5.67589Z" fill="#20B369"/>
</g>
</svg>
