<svg width="20" height="20" viewBox="0 0 20 20" fill="none" xmlns="http://www.w3.org/2000/svg">
<g id="icon/arrow block">
<path id="Icon (Stroke)" fill-rule="evenodd" clip-rule="evenodd" d="M8.14919 1.875C8.15483 1.875 8.16045 1.87501 8.16603 1.87501L11.8495 1.875C11.9513 1.87498 12.0617 1.87495 12.1573 1.88276C12.2654 1.89159 12.4082 1.91346 12.5556 1.98854C12.7516 2.08841 12.911 2.24776 13.0108 2.44377C13.0859 2.59112 13.1078 2.73398 13.1166 2.84211C13.1244 2.93765 13.1244 3.04802 13.1244 3.14982L13.1244 11.0417H15.8327C16.0855 11.0417 16.3134 11.1939 16.4101 11.4275C16.5069 11.661 16.4534 11.9299 16.2746 12.1086L10.4413 17.9419C10.1972 18.186 9.8015 18.186 9.55743 17.9419L3.72409 12.1086C3.54534 11.9299 3.49187 11.661 3.58861 11.4275C3.68535 11.1939 3.91324 11.0417 4.16603 11.0417H6.87437V3.16667C6.87437 3.16109 6.87437 3.15547 6.87436 3.14983C6.87434 3.04803 6.87431 2.93765 6.88212 2.84211C6.89095 2.73398 6.91282 2.59112 6.9879 2.44377C7.08777 2.24776 7.24712 2.08841 7.44313 1.98854C7.59048 1.91346 7.73334 1.89159 7.84147 1.88276C7.93701 1.87495 8.04739 1.87498 8.14919 1.875ZM8.12438 3.12502C8.12437 3.13813 8.12437 3.15197 8.12437 3.16667V11.6667C8.12437 12.0119 7.84454 12.2917 7.49937 12.2917H5.67492L9.99937 16.6161L14.3238 12.2917H12.4994C12.1542 12.2917 11.8744 12.0119 11.8744 11.6667V3.16667C11.8744 3.15197 11.8744 3.13813 11.8744 3.12502C11.8612 3.12501 11.8474 3.12501 11.8327 3.12501H8.16603C8.15134 3.12501 8.13749 3.12501 8.12438 3.12502Z" fill="#878C95"/>
</g>
</svg>
