<svg width="20" height="20" viewBox="0 0 20 20" fill="none" xmlns="http://www.w3.org/2000/svg">
<g id="icon/arrow-circle-left">
<path id="Icon (Stroke)" fill-rule="evenodd" clip-rule="evenodd" d="M9.99996 2.29166C5.74276 2.29166 2.29163 5.74279 2.29163 9.99999C2.29163 14.2572 5.74276 17.7083 9.99996 17.7083C14.2572 17.7083 17.7083 14.2572 17.7083 9.99999C17.7083 5.74279 14.2572 2.29166 9.99996 2.29166ZM1.04163 9.99999C1.04163 5.05244 5.05241 1.04166 9.99996 1.04166C14.9475 1.04166 18.9583 5.05244 18.9583 9.99999C18.9583 14.9475 14.9475 18.9583 9.99996 18.9583C5.05241 18.9583 1.04163 14.9475 1.04163 9.99999ZM10.4419 6.22471C10.686 6.46879 10.686 6.86452 10.4419 7.1086L8.17551 9.37499H13.3333C13.6785 9.37499 13.9583 9.65481 13.9583 9.99999C13.9583 10.3452 13.6785 10.625 13.3333 10.625H8.17551L10.4419 12.8914C10.686 13.1355 10.686 13.5312 10.4419 13.7753C10.1978 14.0193 9.8021 14.0193 9.55802 13.7753L6.22468 10.4419C5.98061 10.1979 5.98061 9.80213 6.22468 9.55805L9.55802 6.22471C9.8021 5.98064 10.1978 5.98064 10.4419 6.22471Z" fill="#9CA1AA"/>
</g>
</svg>
