<svg width="953" height="164" viewBox="0 0 953 164" fill="none" xmlns="http://www.w3.org/2000/svg">
<rect x="0.75" width="952" height="164" rx="16" fill="white"/>
<rect opacity="0.1" x="0.75" width="952" height="164" rx="16" fill="#5973FC"/>
<mask id="mask0_211_4593" style="mask-type:alpha" maskUnits="userSpaceOnUse" x="0" y="0" width="953" height="164">
<rect x="0.75" width="952" height="164" rx="16" fill="#5973FC"/>
</mask>
<g mask="url(#mask0_211_4593)">
<g opacity="0.1">
<path d="M77.7164 120.706L57.3694 157.98" stroke="#5973FC" stroke-width="13" stroke-miterlimit="10" stroke-linecap="round"/>
<path d="M52.2507 124.895L82.8148 155.328" stroke="#5973FC" stroke-width="13" stroke-miterlimit="10" stroke-linecap="round"/>
<path d="M26.2179 120.706L5.87087 157.98" stroke="#5973FC" stroke-width="13" stroke-miterlimit="10" stroke-linecap="round"/>
<path d="M0.75 124.895L31.3285 155.328" stroke="#5973FC" stroke-width="13" stroke-miterlimit="10" stroke-linecap="round"/>
</g>
<g opacity="0.1">
<path d="M888.136 102L848.458 174.686" stroke="#5973FC" stroke-width="24" stroke-miterlimit="10" stroke-linecap="round"/>
<path d="M838.477 110.167L898.078 169.514" stroke="#5973FC" stroke-width="24" stroke-miterlimit="10" stroke-linecap="round"/>
<path d="M787.712 102L748.034 174.686" stroke="#5973FC" stroke-width="24" stroke-miterlimit="10" stroke-linecap="round"/>
<path d="M738.048 110.167L797.677 169.514" stroke="#5973FC" stroke-width="24" stroke-miterlimit="10" stroke-linecap="round"/>
</g>
<path d="M21.7152 165.817C21.7152 165.817 26.8659 151.434 22.6621 137.069C18.4583 122.704 17.3997 105.588 22.9894 88.748" stroke="#4656BD" stroke-miterlimit="10"/>
<path d="M19.6862 110.768C20.783 110.537 21.7771 109.96 22.5229 109.124C23.2688 108.287 23.7274 107.233 23.8316 106.117C21.0553 106.2 20.2132 108.51 19.6862 110.768Z" fill="#4656BD"/>
<path d="M19.0161 114.807C20.1129 114.575 21.107 113.999 21.8529 113.162C22.5987 112.325 23.0573 111.272 23.1615 110.156C20.3852 110.239 19.5431 112.549 19.0161 114.807Z" fill="#4656BD"/>
<path d="M19.7788 116.374C18.7221 116.749 17.5731 116.776 16.4997 116.452C15.4263 116.128 14.4846 115.469 13.8122 114.572C16.2084 113.195 18.161 114.723 19.7788 116.374Z" fill="#4656BD"/>
<path d="M19.5497 108.604C18.493 108.979 17.3441 109.006 16.2706 108.682C15.1972 108.358 14.2555 107.699 13.5832 106.802C15.9793 105.425 17.932 106.953 19.5497 108.604Z" fill="#4656BD"/>
<path d="M20.1589 102.255C21.28 102.344 22.4001 102.071 23.3546 101.476C24.3092 100.882 25.0479 99.9967 25.4623 98.9513C22.7722 98.27 21.2903 100.205 20.1589 102.255Z" fill="#4656BD"/>
<path d="M18.909 113.543C17.7895 113.486 16.7173 113.073 15.849 112.365C14.9806 111.656 14.3616 110.688 14.0821 109.602C16.8223 109.243 18.034 111.376 18.909 113.543Z" fill="#4656BD"/>
<path d="M19.225 105.925C20.3253 106.128 21.4618 105.974 22.4688 105.486C23.4758 104.999 24.3007 104.202 24.8232 103.212C22.2335 102.23 20.5409 104.038 19.225 105.925Z" fill="#4656BD"/>
<path d="M19.225 105.925C20.3253 106.128 21.4618 105.974 22.4688 105.486C23.4758 104.999 24.3007 104.202 24.8232 103.212C22.2335 102.23 20.5409 104.038 19.225 105.925Z" fill="#4656BD"/>
<path d="M19.2251 105.925C18.1053 105.869 17.0328 105.457 16.1643 104.748C15.2958 104.039 14.6769 103.07 14.3982 101.984C17.1249 101.632 18.3436 103.767 19.2251 105.925Z" fill="#4656BD"/>
<path d="M19.5125 101.577C18.3927 101.521 17.3202 101.108 16.4517 100.399C15.5832 99.6905 14.9643 98.7222 14.6856 97.6363C17.4123 97.2843 18.631 99.4191 19.5125 101.577Z" fill="#4656BD"/>
<path d="M21.0204 97.7321C22.1165 97.9723 23.2607 97.8553 24.2854 97.398C25.3101 96.9407 26.1614 96.1674 26.7147 95.1911C24.1629 94.1287 22.4279 95.8708 21.0204 97.7321Z" fill="#4656BD"/>
<path d="M21.7512 93.2406C22.8473 93.4809 23.9915 93.3638 25.0162 92.9065C26.0409 92.4493 26.8923 91.6759 27.4455 90.6997C24.8938 89.6372 23.1587 91.3794 21.7512 93.2406Z" fill="#4656BD"/>
<path d="M20.427 98.1687C19.3097 98.0758 18.2512 97.6285 17.4058 96.892C16.5604 96.1555 15.9724 95.1682 15.7273 94.0741C18.4885 93.8155 19.6248 95.9727 20.427 98.1687Z" fill="#4656BD"/>
<path d="M21.3174 93.5878C20.2001 93.495 19.1416 93.0477 18.2962 92.3112C17.4508 91.5747 16.8628 90.5874 16.6177 89.4933C19.3789 89.2347 20.5152 91.3919 21.3174 93.5878Z" fill="#4656BD"/>
<path d="M22.6307 90.5169C22.1052 89.1732 22.023 87.6968 22.3961 86.3031C22.7693 84.9095 23.5781 83.6716 24.7047 82.7702C26.5751 85.7983 24.7148 88.3506 22.6307 90.5169Z" fill="#4656BD"/>
<path d="M46.0256 173.822C46.0256 173.822 45.2929 155.646 40.3125 140.18C35.3321 124.714 47.4736 101.715 39.2764 86.2764C33.127 102.095 18.6475 112.282 30.0504 144.181C34.1229 154.741 36.3483 172.384 36.026 182.551C35.7036 192.718 46.0256 173.822 46.0256 173.822Z" fill="#5973FC"/>
<g style="mix-blend-mode:multiply" opacity="0.38">
<path d="M40.0397 170.756C40.0397 170.756 38.7533 152.831 32.883 137.904C27.0126 122.977 37.0596 100.422 37.0596 100.422C37.0596 100.422 29.3434 125.012 34.5971 137.004C39.8509 148.996 42.2317 168.729 42.2317 168.729L40.0397 170.756Z" fill="#442020"/>
</g>
<path d="M36.6226 185.296C36.6226 185.296 17.5676 168.402 16.7014 153.568C15.8351 138.735 5.58339 125.739 5.58339 125.739C5.58339 125.739 39.6116 145.925 41.376 181.286L36.6226 185.296Z" fill="#5973FC"/>
<g style="mix-blend-mode:multiply" opacity="0.38">
<path d="M36.5122 184.688C36.5444 185.012 36.8334 185.249 37.1576 185.217C37.4819 185.184 37.7186 184.896 37.6864 184.571L36.5122 184.688ZM5.57439 125.744C5.1525 126.156 5.15252 126.156 5.15265 126.156C5.15283 126.156 5.15307 126.157 5.15344 126.157C5.15419 126.158 5.15536 126.159 5.15697 126.161C5.16019 126.164 5.16512 126.169 5.17175 126.176C5.18499 126.19 5.20501 126.21 5.23158 126.238C5.28473 126.293 5.36411 126.376 5.46808 126.485C5.67601 126.705 5.98225 127.031 6.37358 127.457C7.15626 128.309 8.27914 129.561 9.63648 131.157C12.3516 134.349 16.0026 138.913 19.7447 144.4C27.2397 155.388 35.054 170.01 36.5122 184.688L37.6864 184.571C36.1987 169.597 28.2506 154.776 20.7195 143.735C16.9487 138.206 13.2708 133.609 10.5353 130.393C9.16733 128.784 8.03446 127.521 7.24272 126.659C6.84684 126.228 6.5362 125.897 6.32405 125.673C6.21798 125.561 6.13653 125.476 6.08135 125.419C6.05376 125.39 6.03273 125.369 6.01849 125.354C6.01137 125.347 6.00594 125.341 6.00223 125.337C6.00037 125.335 5.99895 125.334 5.99795 125.333C5.99746 125.332 5.99704 125.332 5.99679 125.332C5.99648 125.331 5.99628 125.331 5.57439 125.744Z" fill="#442020"/>
</g>
<path d="M918.546 176.86C918.546 176.86 910.592 154.65 917.084 132.467C923.576 110.283 925.211 83.8515 916.578 57.8457" stroke="#4656BD" stroke-miterlimit="10"/>
<path d="M921.679 91.8506C919.985 91.4932 918.45 90.6033 917.298 89.311C916.146 88.0186 915.438 86.3917 915.277 84.668C919.564 84.7966 920.865 88.3636 921.679 91.8506Z" fill="#4656BD"/>
<path d="M922.714 98.0874C921.02 97.73 919.485 96.8401 918.333 95.5478C917.181 94.2554 916.473 92.6285 916.312 90.9049C920.599 91.0335 921.9 94.6004 922.714 98.0874Z" fill="#4656BD"/>
<path d="M921.536 100.507C923.168 101.086 924.942 101.129 926.6 100.628C928.258 100.127 929.712 99.1098 930.75 97.7241C927.05 95.5979 924.035 97.9579 921.536 100.507Z" fill="#4656BD"/>
<path d="M921.889 88.5082C923.521 89.0876 925.295 89.13 926.953 88.6294C928.61 88.1287 930.065 87.1113 931.103 85.7256C927.403 83.5993 924.387 85.9594 921.889 88.5082Z" fill="#4656BD"/>
<path d="M920.949 78.7038C919.218 78.8412 917.488 78.4197 916.014 77.5015C914.54 76.5832 913.399 75.2165 912.759 73.602C916.914 72.55 919.202 75.5376 920.949 78.7038Z" fill="#4656BD"/>
<path d="M922.88 96.1352C924.608 96.048 926.264 95.4106 927.605 94.3159C928.946 93.2213 929.902 91.7267 930.334 90.0503C926.102 89.495 924.231 92.7887 922.88 96.1352Z" fill="#4656BD"/>
<path d="M922.391 84.3709C920.692 84.6846 918.937 84.4474 917.382 83.6939C915.826 82.9404 914.553 81.71 913.746 80.182C917.745 78.6656 920.359 81.4567 922.391 84.3709Z" fill="#4656BD"/>
<path d="M922.391 84.3709C920.692 84.6846 918.937 84.4474 917.382 83.6939C915.826 82.9404 914.553 81.71 913.746 80.182C917.745 78.6656 920.359 81.4567 922.391 84.3709Z" fill="#4656BD"/>
<path d="M922.392 84.3711C924.121 84.2851 925.777 83.6481 927.119 82.5533C928.46 81.4584 929.416 79.9631 929.846 78.2862C925.635 77.7425 923.753 81.0393 922.392 84.3711Z" fill="#4656BD"/>
<path d="M921.947 77.6565C923.676 77.5705 925.333 76.9335 926.674 75.8387C928.015 74.7438 928.971 73.2485 929.401 71.5716C925.19 71.0279 923.308 74.3247 921.947 77.6565Z" fill="#4656BD"/>
<path d="M919.62 71.7191C917.927 72.0901 916.16 71.9093 914.578 71.2032C912.995 70.4971 911.681 69.3027 910.826 67.7952C914.767 66.1545 917.446 68.8448 919.62 71.7191Z" fill="#4656BD"/>
<path d="M918.49 64.7833C916.797 65.1543 915.03 64.9735 913.448 64.2674C911.865 63.5613 910.551 62.3669 909.696 60.8594C913.637 59.2187 916.316 61.909 918.49 64.7833Z" fill="#4656BD"/>
<path d="M920.535 72.3934C922.26 72.25 923.895 71.5593 925.2 70.4219C926.506 69.2845 927.414 67.76 927.792 66.0704C923.528 65.671 921.774 69.0023 920.535 72.3934Z" fill="#4656BD"/>
<path d="M919.159 65.32C920.885 65.1765 922.519 64.4858 923.825 63.3484C925.13 62.2111 926.038 60.6865 926.417 58.9969C922.153 58.5975 920.398 61.9288 919.159 65.32Z" fill="#4656BD"/>
<path d="M917.132 60.5772C917.943 58.5023 918.07 56.2223 917.494 54.0701C916.917 51.9179 915.668 50.0063 913.929 48.6143C911.04 53.2904 913.913 57.2319 917.132 60.5772Z" fill="#4656BD"/>
<path d="M881.004 189.223C881.004 189.223 882.135 161.155 889.827 137.27C897.518 113.386 878.768 77.8707 891.427 54.0288C900.923 78.4578 923.283 94.1886 905.674 143.449C899.385 159.756 895.948 187.002 896.446 202.703C896.944 218.404 881.004 189.223 881.004 189.223Z" fill="#5973FC"/>
<g style="mix-blend-mode:multiply" opacity="0.38">
<path d="M890.25 184.488C890.25 184.488 892.236 156.807 901.301 133.756C910.367 110.705 894.852 75.8735 894.852 75.8735C894.852 75.8735 906.768 113.847 898.654 132.366C890.541 150.885 886.864 181.357 886.864 181.357L890.25 184.488Z" fill="#442020"/>
</g>
<path d="M895.525 206.942C895.525 206.942 924.951 180.853 926.289 157.946C927.627 135.039 943.458 114.969 943.458 114.969C943.458 114.969 890.909 146.143 888.185 200.749L895.525 206.942Z" fill="#5973FC"/>
<g style="mix-blend-mode:multiply" opacity="0.38">
<path d="M895.377 205.971C895.345 206.295 895.056 206.532 894.732 206.5C894.407 206.467 894.171 206.178 894.203 205.854L895.377 205.971ZM943.473 114.977C943.895 115.389 943.895 115.389 943.894 115.39C943.894 115.39 943.894 115.39 943.893 115.391C943.892 115.392 943.89 115.394 943.887 115.397C943.882 115.402 943.874 115.41 943.864 115.421C943.843 115.442 943.812 115.474 943.771 115.517C943.688 115.603 943.565 115.731 943.404 115.901C943.082 116.241 942.608 116.746 942.002 117.405C940.791 118.724 939.054 120.661 936.955 123.128C932.757 128.064 927.111 135.121 921.325 143.605C909.741 160.589 897.637 183.223 895.377 205.971L894.203 205.854C896.492 182.81 908.73 159.977 920.35 142.941C926.165 134.414 931.838 127.324 936.056 122.364C938.166 119.884 939.913 117.936 941.133 116.607C941.743 115.943 942.222 115.433 942.548 115.089C942.711 114.917 942.836 114.786 942.921 114.698C942.963 114.654 942.996 114.621 943.017 114.599C943.028 114.588 943.036 114.579 943.042 114.573C943.045 114.57 943.047 114.568 943.048 114.567C943.049 114.566 943.05 114.565 943.05 114.565C943.051 114.565 943.051 114.564 943.473 114.977Z" fill="#442020"/>
</g>
</g>
</svg>
