<svg width="108" height="138" viewBox="0 0 108 138" fill="none" xmlns="http://www.w3.org/2000/svg">
<g id="Frame" clip-path="url(#clip0_401_6318)">
<path id="Vector" d="M52.3818 7.31543C80.7229 7.31543 103.772 30.4658 103.772 58.9188C103.772 87.3719 80.7254 110.52 52.3818 110.52C24.0383 110.52 0.976562 87.3719 0.976562 58.9113C0.976562 30.4508 24.0333 7.31543 52.3818 7.31543Z" fill="#D6DCE8"/>
<path id="Vector_2" d="M89.0041 11.2191C89.4098 10.9625 89.882 10.8322 90.3613 10.8446C90.8406 10.8569 91.3056 11.0115 91.6976 11.2887C92.0895 11.5659 92.391 11.9534 92.564 12.4023C92.737 12.8512 92.7738 13.3415 92.6697 13.8114C92.5656 14.2813 92.3254 14.7097 91.9791 15.0427C91.6329 15.3757 91.1963 15.5984 90.7242 15.6827C90.2522 15.767 89.7658 15.7092 89.3265 15.5164C88.8871 15.3237 88.5144 15.0047 88.2553 14.5997C88.083 14.3285 87.9657 14.0258 87.91 13.709C87.8544 13.3922 87.8616 13.0675 87.9311 12.7534C88.0007 12.4394 88.1313 12.1423 88.3154 11.879C88.4995 11.6157 88.7336 11.3915 89.0041 11.2191Z" fill="#D6DCE8"/>
<path id="Vector_3" d="M83.7835 8.34772C84.0412 8.18403 84.3415 8.10058 84.6463 8.10786C84.9512 8.11514 85.2471 8.21284 85.4968 8.38865C85.7465 8.56446 85.9388 8.81051 86.0494 9.09582C86.1601 9.38113 86.1841 9.69294 86.1186 9.99196C86.0531 10.291 85.9009 10.5638 85.6811 10.7762C85.4614 10.9885 85.184 11.1308 84.8839 11.1852C84.5838 11.2396 84.2744 11.2035 83.9946 11.0817C83.7148 10.9598 83.4772 10.7576 83.3117 10.5004C83.2016 10.328 83.1265 10.1356 83.0906 9.93399C83.0547 9.73242 83.0588 9.52573 83.1026 9.32575C83.1464 9.12578 83.2292 8.93645 83.346 8.76862C83.4628 8.60079 83.6115 8.45776 83.7835 8.34772Z" fill="#D6DCE8"/>
<path id="Vector_4" d="M90.1203 104.254C90.526 103.998 90.9982 103.867 91.4775 103.88C91.9568 103.892 92.4218 104.047 92.8137 104.324C93.2057 104.601 93.5072 104.989 93.6802 105.437C93.8532 105.886 93.89 106.377 93.7859 106.847C93.6818 107.316 93.4415 107.745 93.0953 108.078C92.7491 108.411 92.3125 108.634 91.8404 108.718C91.3684 108.802 90.882 108.744 90.4427 108.552C90.0033 108.359 89.6306 108.04 89.3715 107.635C89.1989 107.364 89.0813 107.061 89.0254 106.744C88.9696 106.427 88.9767 106.102 89.0463 105.788C89.1159 105.474 89.2466 105.177 89.4309 104.914C89.6152 104.651 89.8495 104.426 90.1203 104.254Z" fill="#D6DCE8"/>
<path id="Vector_5" d="M6.6515 100.951C6.99156 100.735 7.38783 100.624 7.79037 100.633C8.19291 100.643 8.5837 100.771 8.91349 101.003C9.24328 101.235 9.49731 101.56 9.64355 101.937C9.7898 102.313 9.82172 102.725 9.73529 103.12C9.64887 103.514 9.44796 103.875 9.15789 104.155C8.86783 104.436 8.50159 104.623 8.10533 104.695C7.70907 104.767 7.30053 104.719 6.93121 104.558C6.56188 104.397 6.24829 104.13 6.02997 103.79C5.88499 103.563 5.78607 103.309 5.73884 103.043C5.69162 102.778 5.69702 102.505 5.75474 102.241C5.81246 101.978 5.92137 101.728 6.07524 101.507C6.22911 101.285 6.42493 101.096 6.6515 100.951Z" fill="#D6DCE8"/>
<path id="Vector_6" d="M107.256 51.1672L104.211 58.9734L88.3255 99.7158L72.3652 93.4934L88.1757 53.0843L91.3708 44.9323C95.6966 33.7906 111.597 40.0155 107.256 51.1672Z" fill="#F1F3F9"/>
<path id="Vector_7" d="M107.256 51.1678L104.211 58.974C99.4832 54.8792 94.149 52.8594 88.1758 53.0824L91.3708 44.9304C95.6966 33.7913 111.597 40.0162 107.256 51.1678Z" fill="url(#paint0_linear_401_6318)"/>
<path id="Vector_8" d="M105.248 56.3177L107.257 51.1678C111.598 40.0162 95.6974 33.7913 91.3716 44.9304L89.2324 50.391C95.3155 49.8221 100.625 51.8645 105.248 56.3177Z" fill="url(#paint1_linear_401_6318)"/>
<path id="Vector_9" d="M88.3249 99.716C87.9389 100.709 87.3516 101.61 86.6 102.362L81.443 107.557L75.0005 114.043C74.8033 114.241 74.5528 114.377 74.2797 114.435C74.0066 114.493 73.7226 114.47 73.4625 114.368C73.2023 114.267 72.9772 114.091 72.8146 113.864C72.652 113.636 72.559 113.365 72.5468 113.086L72.1574 103.941L71.8504 96.6111C71.8001 95.5477 71.9701 94.4853 72.3496 93.4912C74.1543 88.835 90.1171 95.0599 88.3249 99.716Z" fill="url(#paint2_linear_401_6318)"/>
<path id="Vector_10" d="M72.365 93.4932L72.2852 93.6811C72.3126 93.6135 72.3251 93.5608 72.3526 93.4932H72.365Z" fill="url(#paint3_linear_401_6318)"/>
<path id="Vector_11" d="M81.4302 107.557L74.9927 114.043C74.7959 114.24 74.5464 114.375 74.2746 114.432C74.0027 114.489 73.7202 114.466 73.4612 114.365C73.2023 114.264 72.978 114.09 72.8157 113.864C72.6533 113.638 72.5598 113.369 72.5465 113.091L72.1621 103.944C73.8902 103.527 75.7039 103.65 77.3604 104.296C79.0169 104.943 80.4369 106.083 81.4302 107.562V107.557Z" fill="url(#paint4_linear_401_6318)"/>
<path id="Vector_12" d="M65.5735 114.814H59.9721C59.618 114.814 59.2783 114.673 59.0279 114.422C58.7774 114.17 58.6367 113.829 58.6367 113.474C58.6367 113.118 58.7774 112.777 59.0279 112.526C59.2783 112.274 59.618 112.133 59.9721 112.133H65.5735C65.9276 112.133 66.2673 112.274 66.5178 112.526C66.7682 112.777 66.9089 113.118 66.9089 113.474C66.9089 113.829 66.7682 114.17 66.5178 114.422C66.2673 114.673 65.9276 114.814 65.5735 114.814Z" fill="#A0A8BA"/>
<path id="Vector_13" d="M50.5068 114.814H35.1357C33.2675 114.814 31.4758 114.069 30.1548 112.743C28.8337 111.417 28.0916 109.618 28.0916 107.743C28.0916 105.867 28.8337 104.068 30.1548 102.742C31.4758 101.416 33.2675 100.671 35.1357 100.671H52.8357C53.4068 100.684 53.9748 100.584 54.5064 100.374C55.038 100.164 55.5224 99.8494 55.9311 99.4489C56.3399 99.0483 56.6647 98.5697 56.8865 98.0412C57.1082 97.5128 57.2225 96.9451 57.2225 96.3716C57.2225 95.7982 57.1082 95.2305 56.8865 94.702C56.6647 94.1736 56.3399 93.6949 55.9311 93.2944C55.5224 92.8938 55.038 92.5793 54.5064 92.3695C53.9748 92.1597 53.4068 92.0587 52.8357 92.0726H19.2528C18.9083 92.0576 18.5828 91.9097 18.3443 91.6597C18.1058 91.4097 17.9727 91.0768 17.9727 90.7306C17.9727 90.3844 18.1058 90.0516 18.3443 89.8016C18.5828 89.5516 18.9083 89.4036 19.2528 89.3887H52.8357C54.6576 89.4233 56.3932 90.1743 57.6695 91.48C58.9457 92.7858 59.6607 94.5422 59.6607 96.3716C59.6607 98.201 58.9457 99.9574 57.6695 101.263C56.3932 102.569 54.6576 103.32 52.8357 103.355H35.1357C34.0133 103.408 32.9546 103.894 32.1792 104.711C31.4039 105.527 30.9714 106.612 30.9714 107.74C30.9714 108.868 31.4039 109.953 32.1792 110.77C32.9546 111.586 34.0133 112.072 35.1357 112.126H50.5068C50.861 112.126 51.2007 112.267 51.4511 112.518C51.7016 112.77 51.8423 113.111 51.8423 113.466C51.8423 113.822 51.7016 114.163 51.4511 114.414C51.2007 114.666 50.861 114.807 50.5068 114.807V114.814Z" fill="#A0A8BA"/>
<path id="Vector_14" d="M11.2276 92.0729H7.32117C6.97665 92.0579 6.65119 91.91 6.41268 91.66C6.17416 91.4099 6.04102 91.0771 6.04102 90.7309C6.04102 90.3847 6.17416 90.0519 6.41268 89.8019C6.65119 89.5518 6.97665 89.4039 7.32117 89.3889H11.2276C11.408 89.3811 11.5881 89.41 11.7571 89.4739C11.926 89.5378 12.0804 89.6354 12.2108 89.7608C12.3412 89.8862 12.445 90.0368 12.5159 90.2035C12.5868 90.3702 12.6233 90.5496 12.6233 90.7309C12.6233 90.9122 12.5868 91.0916 12.5159 91.2583C12.445 91.425 12.3412 91.5756 12.2108 91.701C12.0804 91.8264 11.926 91.924 11.7571 91.9879C11.5881 92.0518 11.408 92.0807 11.2276 92.0729Z" fill="#A0A8BA"/>
<path id="Vector_15" d="M61.3667 9.63589L77.1447 56.9064C77.7617 58.7554 77.6218 60.7748 76.7557 62.5202C75.8897 64.2656 74.3686 65.5942 72.5269 66.2137L25.4224 82.0591C23.58 82.6785 21.568 82.5377 19.829 81.6678C18.09 80.7979 16.7663 79.2701 16.1493 77.4205L0.381258 30.1449C-0.235715 28.2959 -0.0958055 26.2766 0.770204 24.5312C1.63621 22.7857 3.15739 21.4571 4.99909 20.8377L52.0985 4.9973C53.9403 4.37947 55.951 4.52099 57.6889 5.39077C59.4268 6.26055 60.7496 7.78744 61.3667 9.63589Z" fill="url(#paint5_linear_401_6318)"/>
<path id="Vector_16" d="M12.9431 13.5828L15.6889 21.8225C15.9444 22.5881 15.8865 23.4243 15.5279 24.1471C15.1693 24.8699 14.5394 25.4201 13.7768 25.6767C13.0152 25.9307 12.1842 25.871 11.4664 25.5106C10.7485 25.1503 10.2024 24.5187 9.94776 23.7546L7.20202 15.5174C6.94652 14.7517 7.00442 13.9155 7.36299 13.1928C7.72156 12.47 8.35143 11.9198 9.11405 11.6632C9.8754 11.4091 10.706 11.4684 11.4238 11.8283C12.1417 12.1881 12.688 12.8191 12.9431 13.5828Z" fill="url(#paint6_linear_401_6318)"/>
<path id="Vector_17" d="M24.3513 9.74812L27.097 17.9853C27.3525 18.751 27.2946 19.5872 26.9361 20.31C26.5775 21.0328 25.9476 21.583 25.185 21.8395C24.4223 22.096 23.5894 22.0379 22.8695 21.6779C22.1495 21.3179 21.6015 20.6856 21.3459 19.9199L18.6002 11.6827C18.4737 11.3035 18.423 10.9029 18.4507 10.5039C18.4785 10.1049 18.5843 9.71535 18.7621 9.35743C18.9399 8.99951 19.1862 8.68027 19.4869 8.41793C19.7876 8.1556 20.1369 7.95531 20.5147 7.82852C20.8922 7.70155 21.2909 7.65049 21.688 7.67825C22.0851 7.70601 22.4729 7.81205 22.8291 7.99032C23.1854 8.16858 23.5032 8.41557 23.7644 8.71718C24.0256 9.01879 24.225 9.36911 24.3513 9.74812Z" fill="url(#paint7_linear_401_6318)"/>
<path id="Vector_18" d="M35.7519 5.91391L38.4977 14.1511C38.7532 14.9168 38.6953 15.7529 38.3367 16.4757C37.9781 17.1985 37.3483 17.7487 36.5856 18.0053C35.823 18.2618 34.9901 18.2037 34.2701 17.8437C33.5502 17.4837 33.0022 16.8514 32.7466 16.0857L30.0008 7.84853C29.7453 7.08287 29.8032 6.24669 30.1618 5.52389C30.5204 4.8011 31.1503 4.25089 31.9129 3.99431C32.2905 3.86696 32.6894 3.81561 33.0868 3.84318C33.4842 3.87075 33.8723 3.9767 34.2288 4.15499C34.5854 4.33328 34.9035 4.58039 35.1648 4.88221C35.4262 5.18402 35.6257 5.53461 35.7519 5.91391Z" fill="url(#paint8_linear_401_6318)"/>
<path id="Vector_19" d="M47.9938 14.174C47.6826 14.2792 47.3561 14.3317 47.0278 14.3294C46.3902 14.3319 45.7682 14.1321 45.2504 13.7586C44.7327 13.3851 44.3457 12.8569 44.1448 12.2494L41.399 4.01219C41.2726 3.63292 41.2218 3.23235 41.2496 2.83336C41.2774 2.43438 41.3832 2.0448 41.561 1.68688C41.7387 1.32897 41.985 1.00972 42.2858 0.747382C42.5865 0.485048 42.9357 0.284766 43.3136 0.157975C43.6243 0.0507947 43.951 -0.0025922 44.2796 9.67362e-05C44.9152 0.000826263 45.5344 0.20201 46.05 0.575233C46.5655 0.948456 46.9512 1.47485 47.1526 2.08007L49.8983 10.3173C50.155 11.0823 50.0985 11.9183 49.7413 12.6415C49.3842 13.3647 48.7556 13.9159 47.9938 14.174Z" fill="url(#paint9_linear_401_6318)"/>
<path id="Vector_20" d="M51.2353 57.5866C57.9176 50.8779 57.9176 40.001 51.2353 33.2924C44.5531 26.5837 33.719 26.5837 27.0368 33.2924C20.3545 40.001 20.3545 50.8779 27.0368 57.5865C33.719 64.2952 44.5531 64.2952 51.2353 57.5866Z" fill="url(#paint10_linear_401_6318)"/>
<path id="Vector_21" d="M46.5759 52.8968C46.3422 53.1326 46.0642 53.3198 45.7582 53.4475C45.4521 53.5752 45.1239 53.641 44.7925 53.641C44.461 53.641 44.1328 53.5752 43.8268 53.4475C43.5207 53.3198 43.2428 53.1326 43.009 52.8968L39.5144 49.3884L36.0198 52.8968C35.5462 53.3727 34.9036 53.6401 34.2335 53.6404C33.5634 53.6406 32.9206 53.3736 32.4466 52.898C31.9726 52.4225 31.7062 51.7774 31.706 51.1046C31.7057 50.4319 31.9717 49.7866 32.4454 49.3107L35.9399 45.8023L32.4454 42.2939C32.1994 42.0609 32.0025 41.7806 31.8663 41.4698C31.7302 41.159 31.6575 40.8239 31.6526 40.4844C31.6477 40.1449 31.7107 39.8079 31.8379 39.4933C31.9651 39.1786 32.1538 38.8928 32.393 38.6527C32.6321 38.4126 32.9168 38.2231 33.2302 38.0955C33.5436 37.9678 33.8793 37.9045 34.2175 37.9094C34.5556 37.9144 34.8894 37.9873 35.199 38.124C35.5086 38.2607 35.7877 38.4584 36.0198 38.7053L39.5144 42.2137L43.009 38.7053C43.2437 38.4699 43.5223 38.2831 43.8289 38.1557C44.1355 38.0284 44.464 37.9629 44.7958 37.963C45.1276 37.9631 45.4562 38.0289 45.7627 38.1564C46.0692 38.284 46.3477 38.471 46.5822 38.7066C46.8167 38.9422 47.0027 39.2219 47.1296 39.5297C47.2565 39.8375 47.3217 40.1674 47.3216 40.5005C47.3215 40.8336 47.256 41.1635 47.1289 41.4712C47.0019 41.7789 46.8156 42.0584 46.5809 42.2939L43.0864 45.8023L46.5809 49.3107C46.8157 49.5462 47.0019 49.8259 47.1287 50.1338C47.2556 50.4416 47.3206 50.7716 47.3202 51.1048C47.3197 51.4379 47.2537 51.7677 47.126 52.0753C46.9983 52.3828 46.8114 52.662 46.5759 52.8968Z" fill="url(#paint11_linear_401_6318)"/>
<path id="Vector_22" d="M11.3175 105.191C11.5752 105.027 11.8755 104.944 12.1806 104.951C12.4856 104.958 12.7817 105.055 13.0316 105.231C13.2814 105.407 13.4738 105.653 13.5846 105.939C13.6953 106.224 13.7193 106.536 13.6537 106.835C13.588 107.134 13.4357 107.407 13.2157 107.62C12.9958 107.832 12.7182 107.974 12.4179 108.028C12.1176 108.082 11.808 108.046 11.5282 107.924C11.2485 107.802 11.011 107.599 10.8458 107.341C10.736 107.169 10.6612 106.977 10.6255 106.776C10.5899 106.574 10.594 106.368 10.6379 106.168C10.6817 105.968 10.7642 105.779 10.8809 105.612C10.9975 105.444 11.1459 105.301 11.3175 105.191Z" fill="#D6DCE8"/>
<g id="NO DATA">
<path d="M30.7731 127.174V137.97H29.9644C29.8396 137.97 29.7348 137.947 29.6499 137.902C29.57 137.857 29.4876 137.784 29.4028 137.684L23.3297 129.798C23.3397 129.933 23.3472 130.066 23.3521 130.196C23.3621 130.327 23.3671 130.449 23.3671 130.565V137.97H21.9668V127.174H22.7905C22.9303 127.174 23.0351 127.192 23.105 127.227C23.1749 127.257 23.2523 127.329 23.3372 127.445L29.4252 135.339C29.4103 135.193 29.3978 135.053 29.3878 134.918C29.3828 134.777 29.3803 134.647 29.3803 134.527V127.174H30.7731Z" fill="url(#paint12_linear_401_6318)"/>
<path d="M43.4529 132.572C43.4529 133.379 43.3231 134.121 43.0635 134.797C42.8088 135.469 42.4469 136.05 41.9776 136.541C41.5084 137.028 40.9467 137.406 40.2928 137.677C39.6388 137.947 38.9124 138.083 38.1136 138.083C37.3199 138.083 36.5935 137.947 35.9345 137.677C35.2805 137.406 34.7189 137.028 34.2496 136.541C33.7853 136.05 33.4234 135.469 33.1638 134.797C32.9042 134.121 32.7744 133.379 32.7744 132.572C32.7744 131.77 32.9042 131.031 33.1638 130.354C33.4234 129.677 33.7853 129.096 34.2496 128.61C34.7189 128.119 35.2805 127.738 35.9345 127.467C36.5935 127.192 37.3199 127.054 38.1136 127.054C38.9124 127.054 39.6388 127.192 40.2928 127.467C40.9467 127.738 41.5084 128.119 41.9776 128.61C42.4469 129.096 42.8088 129.677 43.0635 130.354C43.3231 131.031 43.4529 131.77 43.4529 132.572ZM41.8204 132.572C41.8204 131.93 41.733 131.354 41.5583 130.843C41.3836 130.332 41.1339 129.898 40.8094 129.542C40.4899 129.186 40.1005 128.913 39.6413 128.723C39.187 128.532 38.6778 128.437 38.1136 128.437C37.5495 128.437 37.0378 128.532 36.5785 128.723C36.1242 128.913 35.7348 129.186 35.4103 129.542C35.0858 129.898 34.8362 130.332 34.6615 130.843C34.4868 131.354 34.3994 131.93 34.3994 132.572C34.3994 133.218 34.4868 133.797 34.6615 134.309C34.8362 134.815 35.0858 135.246 35.4103 135.602C35.7348 135.958 36.1242 136.231 36.5785 136.421C37.0378 136.607 37.5495 136.699 38.1136 136.699C38.6778 136.699 39.187 136.607 39.6413 136.421C40.1005 136.231 40.4899 135.958 40.8094 135.602C41.1339 135.246 41.3836 134.815 41.5583 134.309C41.733 133.797 41.8204 133.218 41.8204 132.572Z" fill="url(#paint13_linear_401_6318)"/>
<path d="M58.6268 132.572C58.6268 133.379 58.497 134.113 58.2374 134.775C57.9828 135.436 57.6208 136.005 57.1516 136.481C56.6823 136.952 56.1207 137.318 55.4667 137.579C54.8127 137.84 54.0863 137.97 53.2876 137.97H49.2438V127.174H53.2876C54.0863 127.174 54.8127 127.304 55.4667 127.565C56.1207 127.826 56.6823 128.194 57.1516 128.67C57.6208 129.141 57.9828 129.71 58.2374 130.377C58.497 131.038 58.6268 131.77 58.6268 132.572ZM56.9943 132.572C56.9943 131.93 56.9069 131.357 56.7322 130.85C56.5575 130.339 56.3079 129.908 55.9834 129.557C55.6639 129.201 55.2745 128.931 54.8152 128.745C54.3609 128.56 53.8517 128.467 53.2876 128.467H50.8463V136.677H53.2876C53.8517 136.677 54.3609 136.584 54.8152 136.399C55.2745 136.213 55.6639 135.945 55.9834 135.594C56.3079 135.238 56.5575 134.807 56.7322 134.301C56.9069 133.795 56.9943 133.218 56.9943 132.572Z" fill="url(#paint14_linear_401_6318)"/>
<path d="M66.0584 133.948L64.4634 129.76C64.3486 129.474 64.2337 129.114 64.1189 128.678C64.064 128.893 64.0066 129.094 63.9467 129.279C63.8918 129.464 63.8369 129.63 63.7819 129.775L62.1944 133.948H66.0584ZM69.211 137.97H67.9829C67.8431 137.97 67.7283 137.935 67.6385 137.865C67.5486 137.794 67.4837 137.704 67.4438 137.594L66.4927 135.09H61.7526L60.8016 137.594C60.7666 137.689 60.7017 137.777 60.6069 137.857C60.512 137.932 60.3972 137.97 60.2624 137.97H59.0343L63.3177 127.174H64.9277L69.211 137.97Z" fill="url(#paint15_linear_401_6318)"/>
<path d="M76.8316 128.512H73.4169V137.97H71.8294V128.512H68.3997V127.174H76.8316V128.512Z" fill="url(#paint16_linear_401_6318)"/>
<path d="M83.0389 133.948L81.4439 129.76C81.3291 129.474 81.2142 129.114 81.0994 128.678C81.0445 128.893 80.9871 129.094 80.9272 129.279C80.8723 129.464 80.8174 129.63 80.7624 129.775L79.1749 133.948H83.0389ZM86.1915 137.97H84.9634C84.8236 137.97 84.7088 137.935 84.619 137.865C84.5291 137.794 84.4642 137.704 84.4243 137.594L83.4732 135.09H78.7331L77.7821 137.594C77.7471 137.689 77.6822 137.777 77.5874 137.857C77.4925 137.932 77.3777 137.97 77.2429 137.97H76.0148L80.2982 127.174H81.9082L86.1915 137.97Z" fill="url(#paint17_linear_401_6318)"/>
</g>
</g>
<defs>
<linearGradient id="paint0_linear_401_6318" x1="72.3048" y1="49.4366" x2="109.023" y2="49.8023" gradientUnits="userSpaceOnUse">
<stop stop-color="#AAB2C5"/>
<stop offset="1" stop-color="#D6DCE8"/>
</linearGradient>
<linearGradient id="paint1_linear_401_6318" x1="74.1311" y1="48.1216" x2="108.917" y2="48.4681" gradientUnits="userSpaceOnUse">
<stop stop-color="#989FB0"/>
<stop offset="1" stop-color="#AAB2C5"/>
</linearGradient>
<linearGradient id="paint2_linear_401_6318" x1="69.5852" y1="100.634" x2="85.5654" y2="106.818" gradientUnits="userSpaceOnUse">
<stop stop-color="#AAB2C5"/>
<stop offset="1" stop-color="#D6DCE8"/>
</linearGradient>
<linearGradient id="paint3_linear_401_6318" x1="70.8407" y1="94.1449" x2="70.9206" y2="94.1457" gradientUnits="userSpaceOnUse">
<stop stop-color="#D6DCE8"/>
<stop offset="1" stop-color="#F1F3F9"/>
</linearGradient>
<linearGradient id="paint4_linear_401_6318" x1="70.7648" y1="107.532" x2="80.0435" y2="111.123" gradientUnits="userSpaceOnUse">
<stop stop-color="#989FB0"/>
<stop offset="1" stop-color="#AAB2C5"/>
</linearGradient>
<linearGradient id="paint5_linear_401_6318" x1="-0.000648775" y1="43.5269" x2="77.5266" y2="43.5269" gradientUnits="userSpaceOnUse">
<stop stop-color="#D6DCE8"/>
<stop offset="1" stop-color="#F1F3F9"/>
</linearGradient>
<linearGradient id="paint6_linear_401_6318" x1="7.03977" y1="18.6674" x2="15.8561" y2="18.6674" gradientUnits="userSpaceOnUse">
<stop stop-color="#989FB0"/>
<stop offset="1" stop-color="#AAB2C5"/>
</linearGradient>
<linearGradient id="paint7_linear_401_6318" x1="18.4404" y1="14.8328" x2="27.2568" y2="14.8328" gradientUnits="userSpaceOnUse">
<stop stop-color="#989FB0"/>
<stop offset="1" stop-color="#AAB2C5"/>
</linearGradient>
<linearGradient id="paint8_linear_401_6318" x1="29.8436" y1="10.9986" x2="38.6599" y2="10.9986" gradientUnits="userSpaceOnUse">
<stop stop-color="#989FB0"/>
<stop offset="1" stop-color="#AAB2C5"/>
</linearGradient>
<linearGradient id="paint9_linear_401_6318" x1="41.2418" y1="7.16473" x2="50.0581" y2="7.16473" gradientUnits="userSpaceOnUse">
<stop stop-color="#989FB0"/>
<stop offset="1" stop-color="#AAB2C5"/>
</linearGradient>
<linearGradient id="paint10_linear_401_6318" x1="22.0254" y1="45.4413" x2="56.2448" y2="45.4413" gradientUnits="userSpaceOnUse">
<stop stop-color="#989FB0"/>
<stop offset="1" stop-color="#AAB2C5"/>
</linearGradient>
<linearGradient id="paint11_linear_401_6318" x1="31.694" y1="45.7948" x2="47.3223" y2="45.7948" gradientUnits="userSpaceOnUse">
<stop stop-color="#D6DCE8"/>
<stop offset="1" stop-color="#F1F3F9"/>
</linearGradient>
<linearGradient id="paint12_linear_401_6318" x1="-29.7106" y1="132.842" x2="89.0033" y2="139.172" gradientUnits="userSpaceOnUse">
<stop stop-color="#989FB0"/>
<stop offset="1" stop-color="#AAB2C5"/>
</linearGradient>
<linearGradient id="paint13_linear_401_6318" x1="-29.7106" y1="132.842" x2="89.0033" y2="139.172" gradientUnits="userSpaceOnUse">
<stop stop-color="#989FB0"/>
<stop offset="1" stop-color="#AAB2C5"/>
</linearGradient>
<linearGradient id="paint14_linear_401_6318" x1="-29.7106" y1="132.842" x2="89.0033" y2="139.172" gradientUnits="userSpaceOnUse">
<stop stop-color="#989FB0"/>
<stop offset="1" stop-color="#AAB2C5"/>
</linearGradient>
<linearGradient id="paint15_linear_401_6318" x1="-29.7106" y1="132.842" x2="89.0033" y2="139.172" gradientUnits="userSpaceOnUse">
<stop stop-color="#989FB0"/>
<stop offset="1" stop-color="#AAB2C5"/>
</linearGradient>
<linearGradient id="paint16_linear_401_6318" x1="-29.7106" y1="132.842" x2="89.0033" y2="139.172" gradientUnits="userSpaceOnUse">
<stop stop-color="#989FB0"/>
<stop offset="1" stop-color="#AAB2C5"/>
</linearGradient>
<linearGradient id="paint17_linear_401_6318" x1="-29.7106" y1="132.842" x2="89.0033" y2="139.172" gradientUnits="userSpaceOnUse">
<stop stop-color="#989FB0"/>
<stop offset="1" stop-color="#AAB2C5"/>
</linearGradient>
<clipPath id="clip0_401_6318">
<rect width="108" height="138" fill="white"/>
</clipPath>
</defs>
</svg>
