<svg width="24" height="24" viewBox="0 0 24 24" fill="none" xmlns="http://www.w3.org/2000/svg">
<g id="bow 1" clip-path="url(#clip0_401_5828)">
<g id="Group">
<path id="Vector" d="M7.79443 23.0259L5.48535 19.5103L1.35352 20.2898L6.91309 7.14648L13.501 9.59521L7.79443 23.0259Z" fill="#FA421A"/>
<path id="Vector_2" d="M16.2046 23.0244L10.2598 9.06104L16.9692 6.98242L22.6489 20.2898L18.5132 19.5095L16.2046 23.0244Z" fill="#FA421A"/>
<path id="Vector_3" d="M2.99853 13.3957C2.52685 13.3957 2.0581 13.2612 1.64648 12.996C0.92871 12.5339 0.5 11.748 0.5 10.8942V3.10613C0.5 2.25237 0.92871 1.46648 1.64648 1.00432C2.36523 0.541431 3.25732 0.476491 4.03467 0.830251L10.7895 3.90056C10.9678 3.98162 11.0825 4.1596 11.0825 4.35564V9.6447C11.0825 9.84075 10.9678 10.0187 10.7895 10.0998L4.03467 13.1701C3.70263 13.321 3.3501 13.3957 2.99853 13.3957Z" fill="#FB695B"/>
<path id="Vector_4" d="M21.002 13.3962C20.6504 13.3962 20.2979 13.3215 19.9658 13.1706L13.2109 10.1003C13.0327 10.0192 12.918 9.84126 12.918 9.64522V4.35615C12.918 4.16011 13.0327 3.98213 13.2109 3.90107L19.9658 0.830765C20.7437 0.47774 21.6357 0.542435 22.354 1.00483C23.0718 1.46699 23.5005 2.25288 23.5005 3.10664V10.8947C23.5005 11.7485 23.0718 12.5344 22.354 12.9965C21.9424 13.2617 21.4736 13.3962 21.002 13.3962Z" fill="#FB695B"/>
<path id="Vector_5" d="M12 11C10.8954 11 10 10.1046 10 9V5C10 3.89543 10.8954 3 12 3C13.1046 3 14 3.89543 14 5V9C14 10.1046 13.1046 11 12 11Z" fill="#FFD142"/>
</g>
</g>
<defs>
<clipPath id="clip0_401_5828">
<rect width="24" height="24" fill="white"/>
</clipPath>
</defs>
</svg>
