<svg width="132" height="26" viewBox="0 0 132 26" fill="none" xmlns="http://www.w3.org/2000/svg">
<path d="M24.0248 19.696C23.2248 19.696 22.8248 19.4827 22.8248 19.056V6.25601C22.8248 5.82934 23.2248 5.61601 24.0248 5.61601H24.7248C25.5248 5.61601 25.9248 5.82934 25.9248 6.25601V11.196H31.3248V6.25601C31.3248 5.82934 31.7248 5.61601 32.5248 5.61601H33.2248C34.0248 5.61601 34.4248 5.82934 34.4248 6.25601V19.056C34.4248 19.4827 34.0248 19.696 33.2248 19.696H32.5248C31.7248 19.696 31.3248 19.4827 31.3248 19.056V13.836H25.9248V19.056C25.9248 19.4827 25.5248 19.696 24.7248 19.696H24.0248ZM38.5328 19.696C37.7328 19.696 37.3328 19.4827 37.3328 19.056V6.45601C37.3328 6.176 37.3928 5.976 37.5128 5.856C37.6461 5.72267 37.8528 5.656 38.1328 5.656H42.0328C45.3528 5.656 47.0128 6.90934 47.0128 9.41601C47.0128 10.1627 46.7994 10.816 46.3728 11.376C45.9594 11.9227 45.3928 12.3293 44.6728 12.596V12.676C44.9261 12.7693 45.1861 12.996 45.4528 13.356C45.7194 13.7027 45.9394 14.0893 46.1128 14.516L47.8728 18.916C47.9394 19.0893 47.9728 19.216 47.9728 19.296C47.9728 19.416 47.8728 19.516 47.6728 19.596C47.4728 19.6627 47.1728 19.696 46.7728 19.696H45.9528C45.2994 19.696 44.9128 19.556 44.7928 19.276L43.2128 15.376C42.9861 14.936 42.7394 14.6293 42.4728 14.456C42.2194 14.2693 41.7928 14.176 41.1928 14.176H40.4128V19.056C40.4128 19.4827 40.0128 19.696 39.2128 19.696H38.5328ZM42.3128 11.516C42.7261 11.516 43.0861 11.3493 43.3928 11.016C43.6994 10.6827 43.8528 10.276 43.8528 9.79601C43.8528 9.32934 43.6994 8.96267 43.3928 8.69601C43.0994 8.41601 42.6928 8.27601 42.1728 8.27601H40.4128V11.516H42.3128ZM56.2998 16.316C55.9531 16.316 55.6865 16.1893 55.4998 15.936L53.0398 11.536C52.8665 11.2427 52.7198 10.9827 52.5998 10.756L52.5198 10.776V11.756V19.056C52.5198 19.4827 52.1198 19.696 51.3198 19.696H50.7398C49.9398 19.696 49.5398 19.4827 49.5398 19.056V6.25601C49.5398 5.82934 49.9398 5.61601 50.7398 5.61601H51.7998C52.4398 5.61601 52.8598 5.79601 53.0598 6.15601L56.3798 12.076L56.5798 12.416L56.7598 12.076L60.1398 6.15601C60.3398 5.79601 60.7598 5.61601 61.3998 5.61601H62.4398C63.2398 5.61601 63.6398 5.82934 63.6398 6.25601V19.056C63.6398 19.4827 63.2398 19.696 62.4398 19.696H61.8598C61.0598 19.696 60.6598 19.4827 60.6598 19.056V11.756V10.776L60.5798 10.756C60.4598 10.9827 60.3131 11.2427 60.1398 11.536L57.6798 15.936C57.4931 16.1893 57.2265 16.316 56.8798 16.316H56.2998ZM74.0339 19.754C71.7006 19.754 70.5339 18.5173 70.5339 16.044C70.5339 14.784 70.8186 13.8367 71.3879 13.202C71.9573 12.558 72.7739 12.236 73.8379 12.236C74.8179 12.236 75.5506 12.5533 76.0359 13.188C76.5213 13.8227 76.7639 14.7233 76.7639 15.89C76.7639 15.9833 76.6939 16.114 76.5539 16.282C76.4233 16.45 76.3159 16.534 76.2319 16.534H72.0459C72.1019 17.2433 72.2933 17.7613 72.6199 18.088C72.9466 18.4053 73.4226 18.564 74.0479 18.564C74.4026 18.564 74.7106 18.522 74.9719 18.438C75.2426 18.354 75.4713 18.2653 75.6579 18.172C75.8539 18.0693 75.9659 18.018 75.9939 18.018C76.0966 18.018 76.2133 18.1253 76.3439 18.34C76.4839 18.5547 76.5539 18.7133 76.5539 18.816C76.5539 18.9653 76.4279 19.1147 76.1759 19.264C75.9333 19.404 75.6159 19.5207 75.2239 19.614C74.8319 19.7073 74.4353 19.754 74.0339 19.754ZM75.2939 15.414C75.2939 14.77 75.1679 14.28 74.9159 13.944C74.6733 13.5987 74.3046 13.426 73.8099 13.426C72.7553 13.426 72.1673 14.0887 72.0459 15.414H75.2939ZM86.0748 12.236C86.6815 12.236 87.1902 12.4087 87.6008 12.754C88.0208 13.0993 88.2308 13.6827 88.2308 14.504V19.334C88.2308 19.5673 88.0162 19.684 87.5868 19.684H87.4328C87.0035 19.684 86.7888 19.5673 86.7888 19.334V14.672C86.7888 14.2893 86.6862 13.9953 86.4808 13.79C86.2848 13.5753 85.9908 13.468 85.5988 13.468C85.2535 13.468 84.9502 13.5707 84.6888 13.776C84.4275 13.972 84.2175 14.182 84.0588 14.406V14.532V19.334C84.0588 19.5673 83.8442 19.684 83.4148 19.684H83.2748C82.8455 19.684 82.6308 19.5673 82.6308 19.334V14.672C82.6308 14.2893 82.5282 13.9953 82.3228 13.79C82.1268 13.5753 81.8282 13.468 81.4268 13.468C81.1655 13.468 80.9228 13.5333 80.6988 13.664C80.4748 13.7853 80.2928 13.9207 80.1528 14.07C80.0128 14.21 79.9288 14.3127 79.9008 14.378V19.334C79.9008 19.5673 79.6862 19.684 79.2568 19.684H79.1028C78.6735 19.684 78.4588 19.5673 78.4588 19.334V14.56C78.4588 13.944 78.4308 13.496 78.3748 13.216C78.3188 12.936 78.2908 12.7773 78.2908 12.74C78.2908 12.6093 78.4075 12.516 78.6408 12.46C78.8742 12.404 79.0888 12.376 79.2848 12.376C79.4248 12.376 79.5275 12.446 79.5928 12.586C79.6582 12.726 79.7048 12.8707 79.7328 13.02C79.7702 13.16 79.7935 13.2533 79.8028 13.3C80.0455 13.0013 80.3488 12.7493 80.7128 12.544C81.0862 12.3387 81.4828 12.236 81.9028 12.236C82.3415 12.236 82.7382 12.3247 83.0928 12.502C83.4475 12.67 83.7042 12.9593 83.8628 13.37C84.1335 13.0433 84.4648 12.7727 84.8568 12.558C85.2488 12.3433 85.6548 12.236 86.0748 12.236ZM91.012 22.554C90.5827 22.554 90.368 22.442 90.368 22.218V14.56C90.368 13.944 90.34 13.496 90.284 13.216C90.228 12.936 90.2 12.7773 90.2 12.74C90.2 12.6093 90.3167 12.516 90.55 12.46C90.7833 12.404 90.998 12.376 91.194 12.376C91.334 12.376 91.4367 12.446 91.502 12.586C91.5673 12.7167 91.614 12.8567 91.642 13.006C91.6793 13.146 91.7027 13.2393 91.712 13.286C92.0013 12.95 92.3233 12.6933 92.678 12.516C93.042 12.3293 93.4247 12.236 93.826 12.236C94.3767 12.236 94.8527 12.3947 95.254 12.712C95.6647 13.02 95.9773 13.4587 96.192 14.028C96.4067 14.5973 96.514 15.2553 96.514 16.002C96.514 17.178 96.2527 18.0973 95.73 18.76C95.2167 19.4227 94.5213 19.754 93.644 19.754C93.2707 19.754 92.9393 19.698 92.65 19.586C92.3607 19.474 92.0807 19.3153 91.81 19.11V22.218C91.81 22.442 91.5953 22.554 91.166 22.554H91.012ZM93.322 18.536C93.8913 18.536 94.316 18.326 94.596 17.906C94.8853 17.486 95.03 16.8747 95.03 16.072C95.03 15.232 94.8993 14.588 94.638 14.14C94.3767 13.6827 93.994 13.454 93.49 13.454C93.1913 13.454 92.8973 13.538 92.608 13.706C92.3187 13.8647 92.0527 14.0887 91.81 14.378V18.018C92.2393 18.3633 92.7433 18.536 93.322 18.536ZM100.199 19.754C99.6861 19.754 99.2474 19.6 98.8834 19.292C98.5194 18.9747 98.3374 18.452 98.3374 17.724V9.46401C98.3374 9.23067 98.5474 9.11401 98.9674 9.11401H99.1214C99.5507 9.11401 99.7654 9.23067 99.7654 9.46401V17.654C99.7654 17.99 99.8261 18.228 99.9474 18.368C100.069 18.4987 100.237 18.564 100.451 18.564C100.582 18.564 100.689 18.5547 100.773 18.536C100.867 18.508 100.937 18.494 100.983 18.494C101.077 18.494 101.156 18.5967 101.221 18.802C101.287 18.998 101.319 19.1473 101.319 19.25C101.319 19.586 100.946 19.754 100.199 19.754ZM104.955 19.754C103.881 19.754 103.065 19.4367 102.505 18.802C101.945 18.158 101.665 17.2293 101.665 16.016C101.665 14.8027 101.949 13.8693 102.519 13.216C103.088 12.5627 103.9 12.236 104.955 12.236C106.009 12.236 106.812 12.5627 107.363 13.216C107.923 13.86 108.203 14.7933 108.203 16.016C108.203 17.2293 107.927 18.158 107.377 18.802C106.826 19.4367 106.019 19.754 104.955 19.754ZM104.927 18.564C105.543 18.564 105.995 18.354 106.285 17.934C106.583 17.514 106.733 16.87 106.733 16.002C106.733 15.134 106.583 14.49 106.285 14.07C105.995 13.6407 105.543 13.426 104.927 13.426C104.32 13.426 103.872 13.6407 103.583 14.07C103.293 14.49 103.149 15.134 103.149 16.002C103.149 16.87 103.289 17.514 103.569 17.934C103.858 18.354 104.311 18.564 104.927 18.564ZM114.679 12.306C115.099 12.306 115.309 12.39 115.309 12.558C115.309 12.6047 115.295 12.6793 115.267 12.782L111.781 22.26C111.715 22.456 111.487 22.554 111.095 22.554H110.871C110.488 22.554 110.297 22.4747 110.297 22.316C110.297 22.288 110.32 22.2087 110.367 22.078L111.459 19.362L109.051 12.768C109.023 12.656 109.009 12.586 109.009 12.558C109.009 12.39 109.233 12.306 109.681 12.306H109.891C110.255 12.306 110.46 12.3853 110.507 12.544L111.767 16.002C111.888 16.3193 112.033 16.814 112.201 17.486H112.229L112.341 17.108C112.471 16.6507 112.583 16.282 112.677 16.002L113.909 12.544C113.955 12.3853 114.17 12.306 114.553 12.306H114.679ZM119.602 19.754C117.269 19.754 116.102 18.5173 116.102 16.044C116.102 14.784 116.387 13.8367 116.956 13.202C117.526 12.558 118.342 12.236 119.406 12.236C120.386 12.236 121.119 12.5533 121.604 13.188C122.09 13.8227 122.332 14.7233 122.332 15.89C122.332 15.9833 122.262 16.114 122.122 16.282C121.992 16.45 121.884 16.534 121.8 16.534H117.614C117.67 17.2433 117.862 17.7613 118.188 18.088C118.515 18.4053 118.991 18.564 119.616 18.564C119.971 18.564 120.279 18.522 120.54 18.438C120.811 18.354 121.04 18.2653 121.226 18.172C121.422 18.0693 121.534 18.018 121.562 18.018C121.665 18.018 121.782 18.1253 121.912 18.34C122.052 18.5547 122.122 18.7133 122.122 18.816C122.122 18.9653 121.996 19.1147 121.744 19.264C121.502 19.404 121.184 19.5207 120.792 19.614C120.4 19.7073 120.004 19.754 119.602 19.754ZM120.862 15.414C120.862 14.77 120.736 14.28 120.484 13.944C120.242 13.5987 119.873 13.426 119.378 13.426C118.324 13.426 117.736 14.0887 117.614 15.414H120.862ZM127.012 19.754C124.679 19.754 123.512 18.5173 123.512 16.044C123.512 14.784 123.797 13.8367 124.366 13.202C124.936 12.558 125.752 12.236 126.816 12.236C127.796 12.236 128.529 12.5533 129.014 13.188C129.5 13.8227 129.742 14.7233 129.742 15.89C129.742 15.9833 129.672 16.114 129.532 16.282C129.402 16.45 129.294 16.534 129.21 16.534H125.024C125.08 17.2433 125.272 17.7613 125.598 18.088C125.925 18.4053 126.401 18.564 127.026 18.564C127.381 18.564 127.689 18.522 127.95 18.438C128.221 18.354 128.45 18.2653 128.636 18.172C128.832 18.0693 128.944 18.018 128.972 18.018C129.075 18.018 129.192 18.1253 129.322 18.34C129.462 18.5547 129.532 18.7133 129.532 18.816C129.532 18.9653 129.406 19.1147 129.154 19.264C128.912 19.404 128.594 19.5207 128.202 19.614C127.81 19.7073 127.414 19.754 127.012 19.754ZM128.272 15.414C128.272 14.77 128.146 14.28 127.894 13.944C127.652 13.5987 127.283 13.426 126.788 13.426C125.734 13.426 125.146 14.0887 125.024 15.414H128.272Z" fill="#333333"/>
<rect y="10.072" width="9.40329" height="9.40329" rx="4.70164" fill="#5973FC"/>
<rect x="8.65442" y="4.46338" width="9.40329" height="9.40329" rx="4.70164" fill="#FC8059"/>
<rect x="8.65442" y="15.6316" width="9.40329" height="9.40329" rx="4.70164" fill="#EF5DA8"/>
</svg>
