<svg width="84" height="64" viewBox="0 0 84 64" fill="none" xmlns="http://www.w3.org/2000/svg">
<mask id="mask0_59_1293" style="mask-type:alpha" maskUnits="userSpaceOnUse" x="0" y="0" width="84" height="64">
<rect width="84" height="64" fill="#C4C4C4"/>
</mask>
<g mask="url(#mask0_59_1293)">
<ellipse cx="42.8215" cy="59.4644" rx="39.4643" ry="3.75001" fill="#E0E0E0"/>
<path d="M16.0491 56.1486L6.55249 38.7517" stroke="#BDBDBD" stroke-width="6" stroke-miterlimit="10" stroke-linecap="round"/>
<path d="M4.16235 54.1937L18.4343 39.9894" stroke="#BDBDBD" stroke-width="6" stroke-miterlimit="10" stroke-linecap="round"/>
<path d="M74.9962 51.6671C74.9962 51.6671 74.5453 46.4778 77.1774 42.1056C79.8096 37.7335 81.6433 32.1814 81.2607 26.1436" stroke="#BDBDBD" stroke-width="0.4" stroke-miterlimit="10"/>
<mask id="path-6-inside-1_59_1293" fill="white">
<path d="M80.4398 33.6911C80.0982 33.5196 79.8204 33.2434 79.6471 32.9027C79.4737 32.5621 79.4139 32.1749 79.4763 31.7978C80.3846 32.0661 80.4619 32.9008 80.4398 33.6911Z"/>
</mask>
<path d="M80.4398 33.6911C80.0982 33.5196 79.8204 33.2434 79.6471 32.9027C79.4737 32.5621 79.4139 32.1749 79.4763 31.7978C80.3846 32.0661 80.4619 32.9008 80.4398 33.6911Z" fill="#4656BD"/>
<path d="M80.4398 33.6911L81.4394 33.719L81.3956 35.2897L79.9913 34.5848L80.4398 33.6911ZM79.4763 31.7978L78.4897 31.6345L78.6746 30.5183L79.7596 30.8388L79.4763 31.7978ZM79.9913 34.5848C79.4589 34.3176 79.026 33.8872 78.7558 33.3563L80.5383 32.4492C80.6148 32.5996 80.7375 32.7216 80.8884 32.7973L79.9913 34.5848ZM78.7558 33.3563C78.4857 32.8255 78.3924 32.2221 78.4897 31.6345L80.4629 31.9612C80.4353 32.1277 80.4617 32.2987 80.5383 32.4492L78.7558 33.3563ZM79.7596 30.8388C80.5335 31.0674 81.0079 31.5806 81.2412 32.1922C81.4472 32.7321 81.4508 33.3116 81.4394 33.719L79.4402 33.6632C79.4509 33.2803 79.4269 33.0473 79.3726 32.9052C79.3513 32.8493 79.3325 32.8285 79.3232 32.8195C79.3152 32.8119 79.2841 32.7838 79.193 32.7569L79.7596 30.8388Z" fill="#BDBDBD" mask="url(#path-6-inside-1_59_1293)"/>
<mask id="path-8-inside-2_59_1293" fill="white">
<path d="M80.3106 35.0809C79.9689 34.9094 79.6911 34.6332 79.5178 34.2925C79.3444 33.9519 79.2846 33.5647 79.347 33.1876C80.2553 33.4559 80.3326 34.2906 80.3106 35.0809Z"/>
</mask>
<path d="M80.3106 35.0809C79.9689 34.9094 79.6911 34.6332 79.5178 34.2925C79.3444 33.9519 79.2846 33.5647 79.347 33.1876C80.2553 33.4559 80.3326 34.2906 80.3106 35.0809Z" fill="#4656BD"/>
<path d="M80.3106 35.0809L81.3102 35.1087L81.2663 36.6794L79.862 35.9746L80.3106 35.0809ZM79.347 33.1876L78.3605 33.0242L78.5453 31.9081L79.6303 32.2286L79.347 33.1876ZM79.862 35.9746C79.3296 35.7074 78.8967 35.2769 78.6266 34.7461L80.409 33.8389C80.4856 33.9894 80.6083 34.1114 80.7591 34.1871L79.862 35.9746ZM78.6266 34.7461C78.3564 34.2152 78.2632 33.6119 78.3605 33.0242L80.3336 33.351C80.306 33.5175 80.3324 33.6885 80.409 33.8389L78.6266 34.7461ZM79.6303 32.2286C80.4042 32.4571 80.8786 32.9703 81.112 33.582C81.318 34.1219 81.3215 34.7013 81.3102 35.1087L79.3109 35.053C79.3216 34.6701 79.2976 34.4371 79.2434 34.295C79.2221 34.2391 79.2033 34.2183 79.1939 34.2093C79.1859 34.2017 79.1548 34.1735 79.0638 34.1466L79.6303 32.2286Z" fill="#BDBDBD" mask="url(#path-8-inside-2_59_1293)"/>
<mask id="path-10-inside-3_59_1293" fill="white">
<path d="M79.9233 35.5314C80.2392 35.7467 80.6157 35.8555 80.9978 35.8417C81.3798 35.8279 81.7475 35.6923 82.0471 35.4547C81.3763 34.7929 80.5999 35.1275 79.9233 35.5314Z"/>
</mask>
<path d="M79.9233 35.5314C80.2392 35.7467 80.6157 35.8555 80.9978 35.8417C81.3798 35.8279 81.7475 35.6923 82.0471 35.4547C81.3763 34.7929 80.5999 35.1275 79.9233 35.5314Z" fill="#4656BD"/>
<path d="M79.9233 35.5314L79.36 36.3577L78.066 35.4755L79.4107 34.6728L79.9233 35.5314ZM82.0471 35.4547L82.7494 34.7429L83.5535 35.5363L82.6684 36.2382L82.0471 35.4547ZM80.4866 34.7051C80.6263 34.8003 80.7927 34.8484 80.9617 34.8423L81.0338 36.841C80.4386 36.8625 79.8522 36.6931 79.36 36.3577L80.4866 34.7051ZM80.9617 34.8423C81.1306 34.8362 81.2932 34.7763 81.4257 34.6712L82.6684 36.2382C82.2018 36.6083 81.629 36.8195 81.0338 36.841L80.9617 34.8423ZM81.3447 36.1665C81.2792 36.1019 81.2405 36.0887 81.2298 36.0854C81.2168 36.0813 81.1883 36.0749 81.1278 36.0835C80.9762 36.105 80.7588 36.1972 80.4359 36.39L79.4107 34.6728C79.7644 34.4616 80.2735 34.1846 80.847 34.1033C81.4934 34.0116 82.1746 34.1756 82.7494 34.7429L81.3447 36.1665Z" fill="#BDBDBD" mask="url(#path-10-inside-3_59_1293)"/>
<mask id="path-12-inside-4_59_1293" fill="white">
<path d="M80.6726 32.9892C80.9885 33.2045 81.365 33.3132 81.747 33.2994C82.1291 33.2856 82.4968 33.1501 82.7963 32.9125C82.1256 32.2506 81.3492 32.5852 80.6726 32.9892Z"/>
</mask>
<path d="M80.6726 32.9892C80.9885 33.2045 81.365 33.3132 81.747 33.2994C82.1291 33.2856 82.4968 33.1501 82.7963 32.9125C82.1256 32.2506 81.3492 32.5852 80.6726 32.9892Z" fill="#4656BD"/>
<path d="M80.6726 32.9892L80.1093 33.8154L78.8153 32.9333L80.16 32.1305L80.6726 32.9892ZM82.7963 32.9125L83.4987 32.2007L84.3027 32.9941L83.4177 33.696L82.7963 32.9125ZM81.2359 32.1629C81.3755 32.2581 81.542 32.3062 81.711 32.3001L81.7831 34.2988C81.1879 34.3203 80.6014 34.1509 80.1093 33.8154L81.2359 32.1629ZM81.711 32.3001C81.8799 32.294 82.0425 32.234 82.1749 32.129L83.4177 33.696C82.9511 34.0661 82.3783 34.2773 81.7831 34.2988L81.711 32.3001ZM82.0939 33.6243C82.0285 33.5597 81.9898 33.5465 81.979 33.5431C81.9661 33.5391 81.9375 33.5327 81.8771 33.5412C81.7255 33.5627 81.5081 33.655 81.1852 33.8478L80.16 32.1305C80.5137 31.9194 81.0228 31.6424 81.5963 31.5611C82.2427 31.4694 82.9238 31.6334 83.4987 32.2007L82.0939 33.6243Z" fill="#BDBDBD" mask="url(#path-12-inside-4_59_1293)"/>
<mask id="path-14-inside-5_59_1293" fill="white">
<path d="M81.0225 30.8429C80.6452 30.775 80.2995 30.5879 80.0363 30.309C79.7731 30.0301 79.6063 29.6742 79.5603 29.2935C80.5065 29.3022 80.8273 30.0687 81.0225 30.8429Z"/>
</mask>
<path d="M81.0225 30.8429C80.6452 30.775 80.2995 30.5879 80.0363 30.309C79.7731 30.0301 79.6063 29.6742 79.5603 29.2935C80.5065 29.3022 80.8273 30.0687 81.0225 30.8429Z" fill="#4656BD"/>
<path d="M81.0225 30.8429L81.9922 30.5984L82.3713 32.1017L80.8454 31.8271L81.0225 30.8429ZM79.5603 29.2935L78.5675 29.4134L78.431 28.2831L79.5695 28.2936L79.5603 29.2935ZM80.8454 31.8271C80.2575 31.7213 79.719 31.4298 79.309 30.9954L80.7636 29.6227C80.88 29.746 81.0328 29.8287 81.1997 29.8587L80.8454 31.8271ZM79.309 30.9954C78.8991 30.5609 78.6392 30.0065 78.5675 29.4134L80.5531 29.1736C80.5734 29.342 80.6472 29.4993 80.7636 29.6227L79.309 30.9954ZM79.5695 28.2936C80.3668 28.3009 80.9659 28.6522 81.3654 29.1711C81.7207 29.6326 81.8889 30.1887 81.9922 30.5984L80.0529 31.0874C79.961 30.723 79.8711 30.5087 79.7807 30.3912C79.7446 30.3444 79.7194 30.328 79.7044 30.3203C79.6906 30.3133 79.6488 30.2944 79.5511 30.2935L79.5695 28.2936Z" fill="#BDBDBD" mask="url(#path-14-inside-5_59_1293)"/>
<mask id="path-16-inside-6_59_1293" fill="white">
<path d="M80.4556 34.6734C80.8297 34.7519 81.219 34.7088 81.5668 34.5503C81.9146 34.3919 82.2027 34.1265 82.389 33.7928C81.5166 33.4365 80.9321 34.0347 80.4556 34.6734Z"/>
</mask>
<path d="M80.4556 34.6734C80.8297 34.7519 81.219 34.7088 81.5668 34.5503C81.9146 34.3919 82.2027 34.1265 82.389 33.7928C81.5166 33.4365 80.9321 34.0347 80.4556 34.6734Z" fill="#4656BD"/>
<path d="M80.4556 34.6734L80.2503 35.6521L78.7177 35.3305L79.6541 34.0754L80.4556 34.6734ZM82.389 33.7928L82.7671 32.867L83.8128 33.294L83.2622 34.2802L82.389 33.7928ZM80.661 33.6947C80.8264 33.7294 80.9985 33.7103 81.1523 33.6403L81.9813 35.4604C81.4395 35.7072 80.833 35.7743 80.2503 35.6521L80.661 33.6947ZM81.1523 33.6403C81.3061 33.5702 81.4335 33.4529 81.5159 33.3053L83.2622 34.2802C82.972 34.8001 82.5232 35.2136 81.9813 35.4604L81.1523 33.6403ZM82.011 34.7185C81.9242 34.6831 81.8828 34.6856 81.8719 34.6865C81.8591 34.6877 81.8315 34.6922 81.7803 34.7223C81.6504 34.7985 81.4854 34.9655 81.2571 35.2714L79.6541 34.0754C79.9024 33.7426 80.2678 33.2911 80.7674 32.9977C81.3322 32.666 82.0227 32.563 82.7671 32.867L82.011 34.7185Z" fill="#BDBDBD" mask="url(#path-16-inside-6_59_1293)"/>
<mask id="path-18-inside-7_59_1293" fill="white">
<path d="M81.012 32.1339C80.6315 32.1055 80.2701 31.9563 79.9803 31.708C79.6906 31.4598 79.4877 31.1255 79.4013 30.7539C80.3404 30.6548 80.7417 31.3975 81.012 32.1339Z"/>
</mask>
<path d="M81.012 32.1339C80.6315 32.1055 80.2701 31.9563 79.9803 31.708C79.6906 31.4598 79.4877 31.1255 79.4013 30.7539C80.3404 30.6548 80.7417 31.3975 81.012 32.1339Z" fill="#4656BD"/>
<path d="M81.012 32.1339L81.9508 31.7894L82.4856 33.247L80.9374 33.1312L81.012 32.1339ZM79.4013 30.7539L78.4273 30.9806L78.1708 29.8783L79.2963 29.7594L79.4013 30.7539ZM80.9374 33.1312C80.3445 33.0868 79.7812 32.8542 79.3297 32.4674L80.631 30.9486C80.7589 31.0583 80.9185 31.1242 81.0866 31.1367L80.9374 33.1312ZM79.3297 32.4674C78.8782 32.0806 78.562 31.5596 78.4273 30.9806L80.3752 30.5273C80.4134 30.6914 80.503 30.839 80.631 30.9486L79.3297 32.4674ZM79.2963 29.7594C80.0975 29.6748 80.7334 29.9681 81.1832 30.4427C81.5833 30.8647 81.8077 31.3995 81.9508 31.7894L80.0732 32.4784C79.9461 32.132 79.8346 31.9272 79.7317 31.8185C79.6905 31.7751 79.6642 31.7622 79.6507 31.7569C79.6391 31.7525 79.5991 31.7386 79.5063 31.7484L79.2963 29.7594Z" fill="#BDBDBD" mask="url(#path-18-inside-7_59_1293)"/>
<mask id="path-20-inside-8_59_1293" fill="white">
<path d="M81.012 32.1339C80.6315 32.1055 80.2701 31.9563 79.9803 31.708C79.6906 31.4598 79.4877 31.1255 79.4013 30.7539C80.3404 30.6548 80.7417 31.3975 81.012 32.1339Z"/>
</mask>
<path d="M81.012 32.1339C80.6315 32.1055 80.2701 31.9563 79.9803 31.708C79.6906 31.4598 79.4877 31.1255 79.4013 30.7539C80.3404 30.6548 80.7417 31.3975 81.012 32.1339Z" fill="#4656BD"/>
<path d="M81.012 32.1339L81.9508 31.7894L82.4856 33.247L80.9374 33.1312L81.012 32.1339ZM79.4013 30.7539L78.4273 30.9806L78.1708 29.8783L79.2963 29.7594L79.4013 30.7539ZM80.9374 33.1312C80.3445 33.0868 79.7812 32.8542 79.3297 32.4674L80.631 30.9486C80.7589 31.0583 80.9185 31.1242 81.0866 31.1367L80.9374 33.1312ZM79.3297 32.4674C78.8782 32.0806 78.562 31.5596 78.4273 30.9806L80.3752 30.5273C80.4134 30.6914 80.503 30.839 80.631 30.9486L79.3297 32.4674ZM79.2963 29.7594C80.0975 29.6748 80.7334 29.9681 81.1832 30.4427C81.5833 30.8647 81.8077 31.3995 81.9508 31.7894L80.0732 32.4784C79.9461 32.132 79.8346 31.9272 79.7317 31.8185C79.6905 31.7751 79.6642 31.7622 79.6507 31.7569C79.6391 31.7525 79.5991 31.7386 79.5063 31.7484L79.2963 29.7594Z" fill="#BDBDBD" mask="url(#path-20-inside-8_59_1293)"/>
<mask id="path-22-inside-9_59_1293" fill="white">
<path d="M81.0122 32.134C81.3863 32.2128 81.7758 32.1698 82.1236 32.0113C82.4715 31.8529 82.7596 31.5873 82.9457 31.2534C82.0771 30.9008 81.4901 31.499 81.0122 32.134Z"/>
</mask>
<path d="M81.0122 32.134C81.3863 32.2128 81.7758 32.1698 82.1236 32.0113C82.4715 31.8529 82.7596 31.5873 82.9457 31.2534C82.0771 30.9008 81.4901 31.499 81.0122 32.134Z" fill="#4656BD"/>
<path d="M81.0122 32.134L80.8062 33.1126L79.2681 32.7887L80.2132 31.5327L81.0122 32.134ZM82.9457 31.2534L83.3218 30.3268L84.3698 30.7522L83.8192 31.7402L82.9457 31.2534ZM81.2183 31.1555C81.3835 31.1903 81.5555 31.1713 81.7091 31.1013L82.5381 32.9214C81.996 33.1683 81.3891 33.2353 80.8062 33.1126L81.2183 31.1555ZM81.7091 31.1013C81.8628 31.0313 81.99 30.914 82.0722 30.7666L83.8192 31.7402C83.5292 32.2606 83.0803 32.6745 82.5381 32.9214L81.7091 31.1013ZM82.5695 32.18C82.4847 32.1455 82.4441 32.148 82.4329 32.149C82.4196 32.1502 82.391 32.1551 82.3385 32.1859C82.2066 32.2633 82.0402 32.4311 81.8113 32.7353L80.2132 31.5327C80.4621 31.2019 80.8281 30.7532 81.3264 30.4609C81.8884 30.1311 82.5775 30.0247 83.3218 30.3268L82.5695 32.18Z" fill="#BDBDBD" mask="url(#path-22-inside-9_59_1293)"/>
<mask id="path-24-inside-10_59_1293" fill="white">
<path d="M81.2944 30.6753C81.6684 30.754 82.0579 30.7111 82.4057 30.5526C82.7536 30.3942 83.0417 30.1286 83.2278 29.7946C82.3592 29.4421 81.7722 30.0403 81.2944 30.6753Z"/>
</mask>
<path d="M81.2944 30.6753C81.6684 30.754 82.0579 30.7111 82.4057 30.5526C82.7536 30.3942 83.0417 30.1286 83.2278 29.7946C82.3592 29.4421 81.7722 30.0403 81.2944 30.6753Z" fill="#4656BD"/>
<path d="M81.2944 30.6753L81.0883 31.6538L79.5502 31.3299L80.4953 30.074L81.2944 30.6753ZM83.2278 29.7946L83.6039 28.8681L84.6519 29.2935L84.1013 30.2815L83.2278 29.7946ZM81.5004 29.6967C81.6656 29.7315 81.8376 29.7125 81.9912 29.6426L82.8202 31.4627C82.2781 31.7096 81.6712 31.7766 81.0883 31.6538L81.5004 29.6967ZM81.9912 29.6426C82.1449 29.5726 82.2721 29.4553 82.3543 29.3078L84.1013 30.2815C83.8113 30.8018 83.3624 31.2157 82.8202 31.4627L81.9912 29.6426ZM82.8516 30.7212C82.7668 30.6868 82.7262 30.6893 82.715 30.6903C82.7017 30.6915 82.6731 30.6963 82.6206 30.7271C82.4887 30.8045 82.3223 30.9724 82.0934 31.2765L80.4953 30.074C80.7443 29.7432 81.1103 29.2945 81.6085 29.0021C82.1705 28.6724 82.8596 28.5659 83.6039 28.8681L82.8516 30.7212Z" fill="#BDBDBD" mask="url(#path-24-inside-10_59_1293)"/>
<mask id="path-26-inside-11_59_1293" fill="white">
<path d="M81.1311 29.2767C80.7488 29.2609 80.3817 29.123 80.0834 28.8834C79.7852 28.6437 79.5716 28.3148 79.4738 27.9449C80.4074 27.8159 80.8284 28.5409 81.1311 29.2767Z"/>
</mask>
<path d="M81.1311 29.2767C80.7488 29.2609 80.3817 29.123 80.0834 28.8834C79.7852 28.6437 79.5716 28.3148 79.4738 27.9449C80.4074 27.8159 80.8284 28.5409 81.1311 29.2767Z" fill="#4656BD"/>
<path d="M81.1311 29.2767L82.0559 28.8963L82.65 30.3406L81.0896 30.2759L81.1311 29.2767ZM79.4738 27.9449L78.507 28.2005L78.2185 27.1089L79.3369 26.9544L79.4738 27.9449ZM81.0896 30.2759C80.4939 30.2512 79.9218 30.0363 79.457 29.6629L80.7098 28.1039C80.8415 28.2097 81.0037 28.2706 81.1725 28.2776L81.0896 30.2759ZM79.457 29.6629C78.9923 29.2894 78.6593 28.7769 78.507 28.2005L80.4406 27.6894C80.4838 27.8528 80.5781 27.998 80.7098 28.1039L79.457 29.6629ZM79.3369 26.9544C80.1335 26.8443 80.7772 27.1153 81.2424 27.5757C81.6547 27.9837 81.8976 28.5114 82.0559 28.8963L80.2062 29.6571C80.0619 29.3062 79.9429 29.1035 79.8356 28.9973C79.7931 28.9552 79.7669 28.9436 79.7542 28.9392C79.7433 28.9353 79.7034 28.9227 79.6107 28.9355L79.3369 26.9544Z" fill="#BDBDBD" mask="url(#path-26-inside-11_59_1293)"/>
<mask id="path-28-inside-12_59_1293" fill="white">
<path d="M81.2793 27.7323C80.897 27.7164 80.5299 27.5786 80.2316 27.3389C79.9334 27.0993 79.7198 26.7704 79.622 26.4005C80.5556 26.2715 80.9766 26.9965 81.2793 27.7323Z"/>
</mask>
<path d="M81.2793 27.7323C80.897 27.7164 80.5299 27.5786 80.2316 27.3389C79.9334 27.0993 79.7198 26.7704 79.622 26.4005C80.5556 26.2715 80.9766 26.9965 81.2793 27.7323Z" fill="#4656BD"/>
<path d="M81.2793 27.7323L82.2041 27.3519L82.7981 28.7961L81.2378 28.7314L81.2793 27.7323ZM79.622 26.4005L78.6552 26.656L78.3667 25.5645L79.4851 25.4099L79.622 26.4005ZM81.2378 28.7314C80.6421 28.7067 80.07 28.4919 79.6052 28.1184L80.858 26.5594C80.9897 26.6653 81.1519 26.7261 81.3207 26.7331L81.2378 28.7314ZM79.6052 28.1184C79.1405 27.745 78.8075 27.2325 78.6552 26.656L80.5888 26.145C80.632 26.3083 80.7263 26.4536 80.858 26.5594L79.6052 28.1184ZM79.4851 25.4099C80.2817 25.2999 80.9254 25.5709 81.3906 26.0313C81.8029 26.4393 82.0457 26.967 82.2041 27.3519L80.3544 28.1127C80.2101 27.7618 80.0911 27.5591 79.9838 27.4529C79.9413 27.4108 79.9151 27.3992 79.9024 27.3947C79.8915 27.3909 79.8516 27.3783 79.7589 27.3911L79.4851 25.4099Z" fill="#BDBDBD" mask="url(#path-28-inside-12_59_1293)"/>
<mask id="path-30-inside-13_59_1293" fill="white">
<path d="M81.2885 29.4721C81.665 29.5384 82.0529 29.4827 82.3955 29.3132C82.7381 29.1436 83.0177 28.8691 83.1934 28.5296C82.3053 28.2048 81.7435 28.8176 81.2885 29.4721Z"/>
</mask>
<path d="M81.2885 29.4721C81.665 29.5384 82.0529 29.4827 82.3955 29.3132C82.7381 29.1436 83.0177 28.8691 83.1934 28.5296C82.3053 28.2048 81.7435 28.8176 81.2885 29.4721Z" fill="#4656BD"/>
<path d="M81.2885 29.4721L81.1151 30.4569L79.5746 30.1857L80.4674 28.9013L81.2885 29.4721ZM83.1934 28.5296L83.5369 27.5904L84.6035 27.9805L84.0815 28.9892L83.1934 28.5296ZM81.4619 28.4872C81.6286 28.5166 81.8003 28.4919 81.952 28.4169L82.839 30.2095C82.3054 30.4735 81.7014 30.5602 81.1151 30.4569L81.4619 28.4872ZM81.952 28.4169C82.1037 28.3418 82.2275 28.2203 82.3053 28.07L84.0815 28.9892C83.8079 29.5179 83.3726 29.9454 82.839 30.2095L81.952 28.4169ZM82.8499 29.4687C82.7594 29.4356 82.7159 29.4393 82.7034 29.4408C82.6893 29.4424 82.6616 29.4482 82.6119 29.4795C82.4857 29.559 82.3273 29.7297 82.1096 30.0429L80.4674 28.9013C80.7047 28.56 81.0547 28.097 81.5452 27.7877C82.0995 27.4382 82.7845 27.3153 83.5369 27.5904L82.8499 29.4687Z" fill="#BDBDBD" mask="url(#path-30-inside-13_59_1293)"/>
<mask id="path-32-inside-14_59_1293" fill="white">
<path d="M81.392 27.8845C81.7685 27.9507 82.1564 27.8951 82.499 27.7255C82.8416 27.556 83.1212 27.2815 83.2969 26.9419C82.4089 26.6172 81.847 27.2299 81.392 27.8845Z"/>
</mask>
<path d="M81.392 27.8845C81.7685 27.9507 82.1564 27.8951 82.499 27.7255C82.8416 27.556 83.1212 27.2815 83.2969 26.9419C82.4089 26.6172 81.847 27.2299 81.392 27.8845Z" fill="#4656BD"/>
<path d="M81.392 27.8845L81.2186 28.8693L79.6781 28.5981L80.5709 27.3137L81.392 27.8845ZM83.2969 26.9419L83.6404 26.0028L84.707 26.3929L84.185 27.4016L83.2969 26.9419ZM81.5654 26.8996C81.7321 26.9289 81.9038 26.9043 82.0555 26.8292L82.9425 28.6218C82.4089 28.8858 81.8049 28.9725 81.2186 28.8693L81.5654 26.8996ZM82.0555 26.8292C82.2072 26.7542 82.331 26.6326 82.4088 26.4823L84.185 27.4016C83.9114 27.9303 83.4761 28.3578 82.9425 28.6218L82.0555 26.8292ZM82.9534 27.8811C82.8629 27.848 82.8194 27.8516 82.8069 27.8531C82.7928 27.8548 82.7651 27.8605 82.7154 27.8918C82.5893 27.9714 82.4309 28.142 82.2131 28.4552L80.5709 27.3137C80.8082 26.9723 81.1582 26.5093 81.6487 26.2001C82.2031 25.8505 82.888 25.7276 83.6404 26.0028L82.9534 27.8811Z" fill="#BDBDBD" mask="url(#path-32-inside-14_59_1293)"/>
<mask id="path-34-inside-15_59_1293" fill="white">
<path d="M81.2256 26.7579C81.5154 26.3604 81.6705 25.8807 81.6684 25.3888C81.6662 24.8969 81.5069 24.4185 81.2136 24.0236C80.3342 24.8599 80.7262 25.8628 81.2256 26.7579Z"/>
</mask>
<path d="M81.2256 26.7579C81.5154 26.3604 81.6705 25.8807 81.6684 25.3888C81.6662 24.8969 81.5069 24.4185 81.2136 24.0236C80.3342 24.8599 80.7262 25.8628 81.2256 26.7579Z" fill="#4656BD"/>
<path d="M81.2256 26.7579L82.0336 27.3471L81.1133 28.6093L80.3523 27.2451L81.2256 26.7579ZM81.2136 24.0236L80.5245 23.2989L81.343 22.5206L82.0164 23.4274L81.2136 24.0236ZM80.4175 26.1688C80.5817 25.9436 80.6696 25.6718 80.6684 25.3932L82.6684 25.3844C82.6715 26.0896 82.449 26.7773 82.0336 27.3471L80.4175 26.1688ZM80.6684 25.3932C80.6672 25.1145 80.5769 24.8435 80.4108 24.6198L82.0164 23.4274C82.4369 23.9936 82.6653 24.6793 82.6684 25.3844L80.6684 25.3932ZM81.9027 24.7483C81.7038 24.9374 81.6774 25.0826 81.6968 25.2612C81.7241 25.5146 81.8581 25.8391 82.0989 26.2708L80.3523 27.2451C80.0937 26.7817 79.782 26.1572 79.7083 25.4762C79.6266 24.7205 79.8439 23.9461 80.5245 23.2989L81.9027 24.7483Z" fill="#BDBDBD" mask="url(#path-34-inside-15_59_1293)"/>
<path d="M67.5393 56.3151C67.5393 56.3151 65.2354 48.2417 71.0875 41.6005C74.0713 36.9325 72.0625 28.2958 76.1046 23.9159C76.7602 29.6656 80.6513 34.2804 74.1244 43.8098C71.8656 46.9387 69.0311 54.5095 69.0311 54.5095L67.5393 56.3151Z" fill="#BDBDBD"/>
<g style="mix-blend-mode:multiply" opacity="0.38">
<path d="M68.5256 51.7066C68.5256 51.7066 70.5046 45.9073 73.735 41.4945C76.9654 37.0817 75.6089 28.7727 75.6089 28.7727C75.6089 28.7727 76.0204 37.5503 73.2479 41.049C70.4753 44.5477 67.9787 50.8478 67.9787 50.8478L68.5256 51.7066Z" fill="#442020"/>
</g>
<path d="M68.3909 56.7974C68.3909 56.7974 76.1396 52.8794 77.7118 48.0632C79.2841 43.2471 83.7918 39.8509 83.7918 39.8509C83.7918 39.8509 70.8202 43.5558 67.1713 55.0628L68.3909 56.7974Z" fill="#BDBDBD"/>
<g style="mix-blend-mode:multiply" opacity="0.38">
<path d="M79.9142 42.5316C79.9142 42.5316 71.2988 47.6901 68.7462 54.5498" stroke="#442020" stroke-width="0.5" stroke-miterlimit="10" stroke-linecap="round"/>
</g>
<rect x="18.9287" y="0.714355" width="51.0355" height="59.6429" rx="8" fill="#E0E0E0"/>
<rect x="16.2144" y="0.357178" width="52" height="60" rx="6" fill="#F2F2F2"/>
<rect x="24.7856" y="10.8928" width="21.0715" height="2" rx="1" fill="#BDBDBD"/>
<rect x="24.7856" y="22.3214" width="10.1786" height="7.14283" rx="1" fill="#BDBDBD"/>
<rect x="24.7856" y="16.8928" width="30" height="2" rx="1" fill="#BDBDBD"/>
</g>
</svg>
