<svg width="32" height="24" viewBox="0 0 32 24" fill="none" xmlns="http://www.w3.org/2000/svg">
<g id="Frame 811471" clip-path="url(#clip0_401_5816)">
<rect width="32" height="22.8571" transform="translate(0 0.571289)" fill="#FFECE8"/>
<g id="Group 98672">
<rect id="Rectangle 28931" x="12.2266" y="-4.54004" width="0.222167" height="35.5467" transform="rotate(45 12.2266 -4.54004)" fill="#FA421A"/>
<rect id="Rectangle 28932" x="17.1152" y="-4.54004" width="0.222167" height="35.5467" transform="rotate(45 17.1152 -4.54004)" fill="#FA421A"/>
<rect id="Rectangle 28933" x="22.6699" y="-5.42871" width="0.222167" height="35.5467" transform="rotate(45 22.6699 -5.42871)" fill="#FA421A"/>
<rect id="Rectangle 28934" x="28.4453" y="-5.20703" width="0.222167" height="35.5467" transform="rotate(45 28.4453 -5.20703)" fill="#FA421A"/>
<rect id="Rectangle 28935" x="34" y="-4.31836" width="0.222167" height="35.5467" transform="rotate(45 34 -4.31836)" fill="#FA421A"/>
<rect id="Rectangle 28936" x="36.666" y="-1.20703" width="0.222167" height="35.5467" transform="rotate(45 36.666 -1.20703)" fill="#FA421A"/>
<rect id="Rectangle 28937" x="41.1094" y="0.347656" width="0.222167" height="35.5467" transform="rotate(45 41.1094 0.347656)" fill="#FA421A"/>
<rect id="Rectangle 28938" x="43.9961" y="3.90234" width="0.222167" height="35.5467" transform="rotate(45 43.9961 3.90234)" fill="#FA421A"/>
</g>
</g>
<defs>
<clipPath id="clip0_401_5816">
<rect width="32" height="22.8571" fill="white" transform="translate(0 0.571289)"/>
</clipPath>
</defs>
</svg>
