<svg width="16" height="16" viewBox="0 0 16 16" fill="none" xmlns="http://www.w3.org/2000/svg">
<mask id="mask0_494_3324" style="mask-type:alpha" maskUnits="userSpaceOnUse" x="-1" y="-1" width="18" height="18">
<rect x="-0.799805" y="-0.800049" width="17.6" height="17.6" fill="#C4C4C4"/>
</mask>
<g mask="url(#mask0_494_3324)">
<path d="M6.8963 1.55313C7.35839 0.656216 8.64077 0.656216 9.10285 1.55313C9.60424 2.52631 10.7354 2.99484 11.778 2.66122C12.739 2.35376 13.6458 3.26053 13.3383 4.22149C13.0047 5.26417 13.4732 6.39528 14.4464 6.89667C15.3433 7.35876 15.3433 8.64113 14.4464 9.10322C13.4732 9.60461 13.0047 10.7357 13.3383 11.7784C13.6458 12.7394 12.739 13.6461 11.778 13.3387C10.7354 13.0051 9.60424 13.4736 9.10285 14.4468C8.64077 15.3437 7.35839 15.3437 6.8963 14.4468C6.39492 13.4736 5.2638 13.0051 4.22112 13.3387C3.26017 13.6461 2.35339 12.7394 2.66086 11.7784C2.99447 10.7357 2.52595 9.60461 1.55276 9.10322C0.65585 8.64113 0.65585 7.35876 1.55276 6.89667C2.52595 6.39528 2.99447 5.26417 2.66086 4.22149C2.35339 3.26053 3.26017 2.35376 4.22112 2.66122C5.2638 2.99484 6.39492 2.52631 6.8963 1.55313Z" stroke="#4F4F4F"/>
<circle cx="7.99895" cy="7.99993" r="3.372" stroke="#4F4F4F"/>
</g>
</svg>
