<svg width="17" height="16" viewBox="0 0 17 16" fill="none" xmlns="http://www.w3.org/2000/svg">
<g id="icon/filter">
<path id="Icon (Stroke)" fill-rule="evenodd" clip-rule="evenodd" d="M2 4C2 3.72386 2.22386 3.5 2.5 3.5H14.5C14.7761 3.5 15 3.72386 15 4C15 4.27614 14.7761 4.5 14.5 4.5H2.5C2.22386 4.5 2 4.27614 2 4ZM4 8C4 7.72386 4.22386 7.5 4.5 7.5H12.5C12.7761 7.5 13 7.72386 13 8C13 8.27614 12.7761 8.5 12.5 8.5H4.5C4.22386 8.5 4 8.27614 4 8ZM6 12C6 11.7239 6.22386 11.5 6.5 11.5H10.5C10.7761 11.5 11 11.7239 11 12C11 12.2761 10.7761 12.5 10.5 12.5H6.5C6.22386 12.5 6 12.2761 6 12Z" fill="#146BD2"/>
</g>
</svg>