<svg width="24" height="24" viewBox="0 0 24 24" fill="none" xmlns="http://www.w3.org/2000/svg">
<g id="Frame 811501">
<rect width="24" height="24" rx="12" fill="#FFECE8"/>
<path id="B" d="M12.5697 15.9394C12.9635 15.9394 13.2862 15.8886 13.5378 15.787C13.7949 15.6795 14 15.5392 14.1531 15.366C14.3063 15.1927 14.4129 14.9956 14.4731 14.7746C14.5333 14.5477 14.5634 14.3147 14.5634 14.0758C14.5634 13.813 14.5278 13.5771 14.4567 13.368C14.3856 13.159 14.2707 12.9828 14.1121 12.8394C13.9535 12.6901 13.7457 12.5766 13.4886 12.499C13.237 12.4213 12.9253 12.3825 12.5533 12.3825H10.4613V15.9394H12.5697ZM10.4613 7.04273V10.5548H12.0775C12.4221 10.5548 12.7284 10.5249 12.9964 10.4652C13.2644 10.3995 13.4886 10.298 13.6691 10.1606C13.8496 10.0232 13.9863 9.84402 14.0793 9.62302C14.1778 9.39605 14.227 9.12428 14.227 8.80772C14.227 8.48518 14.186 8.21043 14.1039 7.98346C14.0273 7.75649 13.907 7.57432 13.7429 7.43694C13.5789 7.29956 13.371 7.20101 13.1194 7.14128C12.8678 7.07558 12.5697 7.04273 12.2252 7.04273H10.4613ZM12.2252 5C13.0237 5 13.7046 5.08362 14.268 5.25086C14.8368 5.41213 15.299 5.64507 15.6545 5.94969C16.0155 6.24833 16.278 6.61268 16.4421 7.04273C16.6062 7.47278 16.6882 7.9536 16.6882 8.48518C16.6882 8.78383 16.6472 9.07053 16.5652 9.34528C16.4886 9.62003 16.3655 9.87985 16.196 10.1247C16.0319 10.3637 15.8186 10.5817 15.5561 10.7788C15.2935 10.9759 14.9818 11.1431 14.6208 11.2805C15.4303 11.4895 16.0292 11.83 16.4175 12.3019C16.8058 12.7737 17 13.3859 17 14.1385C17 14.688 16.9016 15.1987 16.7046 15.6706C16.5132 16.1424 16.2315 16.5516 15.8596 16.898C15.4877 17.2444 15.0283 17.5162 14.4813 17.7133C13.9398 17.9044 13.3163 18 12.6108 18H8V5H12.2252Z" fill="#FA421A"/>
</g>
</svg>
