<svg width="18" height="16" viewBox="0 0 18 16" fill="none" xmlns="http://www.w3.org/2000/svg">
<path fill-rule="evenodd" clip-rule="evenodd" d="M8.85645 15.3758C12.5292 14.7457 15.3241 11.5459 15.3241 7.69339C15.3241 5.38295 14.3189 3.3073 12.722 1.87988C15.7564 2.65469 18.0001 5.40649 18.0001 8.68234C18.0001 10.1762 17.5335 11.5611 16.7381 12.6992L17.3755 15.078L14.9968 14.4406C13.8587 15.236 12.4737 15.7026 10.9798 15.7026C10.2397 15.7026 9.52632 15.5881 8.85645 15.3758Z" fill="#59C3FF"/>
<path fill-rule="evenodd" clip-rule="evenodd" d="M7.32008 14.9373C11.3627 14.9373 14.6399 11.6601 14.6399 7.61745C14.6399 3.57481 11.3627 0.297607 7.32008 0.297607C3.27745 0.297607 0.000244141 3.57481 0.000244141 7.61745C0.000244141 9.17513 0.486799 10.6192 1.31622 11.8059L0.651663 14.286L3.13188 13.6215C4.31855 14.4508 5.7625 14.9373 7.32008 14.9373Z" fill="#5973FC"/>
<rect x="6.6543" y="5.75635" width="1.30836" height="5.23346" rx="0.654182" fill="white"/>
<rect x="6.6543" y="4.09058" width="1.30836" height="1.30836" rx="0.654182" fill="white"/>
</svg>
