<svg width="20" height="20" viewBox="0 0 20 20" fill="none" xmlns="http://www.w3.org/2000/svg">
<mask id="mask0_220_4737" style="mask-type:alpha" maskUnits="userSpaceOnUse" x="0" y="0" width="20" height="20">
<rect width="20" height="20" fill="#C4C4C4"/>
</mask>
<g mask="url(#mask0_220_4737)">
<mask id="mask1_220_4737" style="mask-type:alpha" maskUnits="userSpaceOnUse" x="0" y="0" width="20" height="20">
<rect width="20" height="20" fill="#C4C4C4"/>
</mask>
<g mask="url(#mask1_220_4737)">
<path fill-rule="evenodd" clip-rule="evenodd" d="M12.0185 1.29305C11.1731 -0.348008 8.82673 -0.348008 7.98126 1.29305C7.47322 2.27913 6.32712 2.75387 5.27062 2.41583C3.51238 1.85327 1.85327 3.51238 2.41583 5.27062C2.75387 6.32712 2.27913 7.47322 1.29305 7.98126C-0.348008 8.82673 -0.348008 11.1731 1.29305 12.0185C2.27914 12.5266 2.75387 13.6727 2.41583 14.7292C1.85327 16.4874 3.51238 18.1465 5.27062 17.584C6.32712 17.2459 7.47322 17.7206 7.98126 18.7067C8.82673 20.3478 11.1731 20.3478 12.0185 18.7067C12.5266 17.7206 13.6727 17.2459 14.7292 17.584C16.4874 18.1465 18.1465 16.4874 17.584 14.7292C17.2459 13.6727 17.7206 12.5266 18.7067 12.0185C20.3478 11.1731 20.3478 8.82673 18.7067 7.98125C17.7206 7.47322 17.2459 6.32712 17.584 5.27062C18.1465 3.51238 16.4874 1.85327 14.7292 2.41583C13.6727 2.75387 12.5266 2.27913 12.0185 1.29305ZM9.99988 14.9999C12.7613 14.9999 14.9999 12.7613 14.9999 9.99988C14.9999 7.23846 12.7613 4.99988 9.99988 4.99988C7.23846 4.99988 4.99988 7.23846 4.99988 9.99988C4.99988 12.7613 7.23846 14.9999 9.99988 14.9999Z" fill="#5973FC"/>
<circle cx="10" cy="10" r="4" fill="#59C3FF"/>
</g>
</g>
</svg>
