<svg width="20" height="20" viewBox="0 0 20 20" fill="none" xmlns="http://www.w3.org/2000/svg">
<g id="icon/&#196;&#145;&#198;&#161;n">
<path id="Icon (Stroke)" fill-rule="evenodd" clip-rule="evenodd" d="M7.30723 1.04199L11.6673 1.04199C11.8331 1.04199 11.992 1.10784 12.1093 1.22505L17.1093 6.22505C17.2265 6.34226 17.2923 6.50123 17.2923 6.66699V14.3604C17.2923 15.0378 17.2923 15.5841 17.2562 16.0265C17.219 16.4821 17.1403 16.8822 16.9517 17.2524C16.6521 17.8404 16.174 18.3184 15.586 18.6181C15.2159 18.8067 14.8157 18.8853 14.3602 18.9225C13.9178 18.9587 13.3714 18.9587 12.6941 18.9587H7.30722C6.62986 18.9587 6.08352 18.9587 5.64109 18.9225C5.18556 18.8853 4.78545 18.8067 4.41526 18.6181C3.82726 18.3184 3.34919 17.8404 3.04959 17.2524C2.86097 16.8822 2.78234 16.4821 2.74512 16.0265C2.70897 15.5841 2.70898 15.0378 2.70898 14.3604V5.64024C2.70898 4.96287 2.70897 4.41653 2.74512 3.9741C2.78234 3.51857 2.86097 3.11845 3.04959 2.74827C3.34919 2.16027 3.82726 1.6822 4.41526 1.3826C4.78545 1.19398 5.18556 1.11535 5.64109 1.07813C6.08352 1.04198 6.62986 1.04199 7.30723 1.04199ZM5.74288 2.32398C5.36466 2.35488 5.14735 2.41249 4.98275 2.49636C4.62995 2.67612 4.34311 2.96296 4.16335 3.31576C4.07948 3.48036 4.02187 3.69766 3.99097 4.07589C3.95947 4.46142 3.95898 4.95661 3.95898 5.66699V14.3337C3.95898 15.044 3.95947 15.5392 3.99097 15.9248C4.02187 16.303 4.07948 16.5203 4.16335 16.6849C4.34311 17.0377 4.62995 17.3245 4.98275 17.5043C5.14735 17.5882 5.36466 17.6458 5.74288 17.6767C6.12841 17.7082 6.62361 17.7087 7.33398 17.7087H12.6673C13.3777 17.7087 13.8729 17.7082 14.2584 17.6767C14.6366 17.6458 14.854 17.5882 15.0185 17.5043C15.3714 17.3245 15.6582 17.0377 15.838 16.6849C15.9218 16.5203 15.9794 16.303 16.0103 15.9248C16.0418 15.5392 16.0423 15.044 16.0423 14.3337V7.29205L12.9788 7.29205C12.7642 7.29207 12.5672 7.29208 12.4024 7.27862C12.2248 7.26411 12.0305 7.23089 11.8386 7.1331C11.5642 6.99329 11.3411 6.77019 11.2013 6.49579C11.1035 6.30387 11.0703 6.10956 11.0557 5.93195C11.0423 5.76721 11.0423 5.57015 11.0423 5.35558L11.0423 2.29199H7.33398C6.62361 2.29199 6.12841 2.29248 5.74288 2.32398ZM12.2923 3.17588L15.1585 6.04205H13.0007C12.757 6.04205 12.6118 6.04157 12.5042 6.03277C12.4385 6.02741 12.4109 6.02033 12.4035 6.01803C12.3663 5.99843 12.3359 5.96803 12.3163 5.93083C12.314 5.92343 12.307 5.89583 12.3016 5.83016C12.2928 5.72255 12.2923 5.57739 12.2923 5.33372V3.17588ZM12.3171 5.93299C12.3171 5.93302 12.3169 5.93262 12.3166 5.93173L12.3171 5.93299ZM12.4014 6.01728C12.4014 6.01727 12.4018 6.01742 12.4026 6.01775L12.4014 6.01728ZM6.04232 7.50033C6.04232 7.15515 6.32214 6.87533 6.66732 6.87533H8.33398C8.67916 6.87533 8.95898 7.15515 8.95898 7.50033C8.95898 7.8455 8.67916 8.12533 8.33398 8.12533H6.66732C6.32214 8.12533 6.04232 7.8455 6.04232 7.50033ZM6.04232 10.8337C6.04232 10.4885 6.32214 10.2087 6.66732 10.2087H13.334C13.6792 10.2087 13.959 10.4885 13.959 10.8337C13.959 11.1788 13.6792 11.4587 13.334 11.4587H6.66732C6.32214 11.4587 6.04232 11.1788 6.04232 10.8337ZM6.04232 14.167C6.04232 13.8218 6.32214 13.542 6.66732 13.542H13.334C13.6792 13.542 13.959 13.8218 13.959 14.167C13.959 14.5122 13.6792 14.792 13.334 14.792H6.66732C6.32214 14.792 6.04232 14.5122 6.04232 14.167Z" fill="#878C95"/>
</g>
</svg>
