<svg width="20" height="20" viewBox="0 0 20 20" fill="none" xmlns="http://www.w3.org/2000/svg">
<g id="icon/qu&#225;&#186;&#163;n tr&#225;&#187;&#139; danh m&#225;&#187;&#165;c" clip-path="url(#clip0_3605_1621)">
<path id="Icon (Stroke)" fill-rule="evenodd" clip-rule="evenodd" d="M16.75 0.5C16.0596 0.5 15.5 1.05964 15.5 1.75C15.5 2.44036 16.0596 3 16.75 3C17.4404 3 18 2.44036 18 1.75C18 1.05964 17.4404 0.5 16.75 0.5ZM14.1035 1.00023C14.4298 -0.154139 15.4911 -1 16.75 -1C18.2688 -1 19.5 0.231217 19.5 1.75C19.5 3.26878 18.2688 4.5 16.75 4.5C15.4913 4.5 14.4302 3.65439 14.1036 2.50029C13.4827 2.50148 13.0179 2.50756 12.6407 2.53838C12.1868 2.57546 11.926 2.6446 11.7285 2.74524C11.3052 2.96095 10.961 3.30516 10.7452 3.72852C10.6446 3.92604 10.5755 4.1868 10.5384 4.64068C10.5006 5.10331 10.5 5.69755 10.5 6.55V9H14.1035C14.43 7.84575 15.4912 7 16.75 7C18.2688 7 19.5 8.23122 19.5 9.75C19.5 11.2688 18.2688 12.5 16.75 12.5C15.4912 12.5 14.43 11.6543 14.1035 10.5H10.5V12.95C10.5 13.8025 10.5006 14.3967 10.5384 14.8593C10.5755 15.3132 10.6446 15.574 10.7452 15.7715C10.9609 16.1948 11.3052 16.539 11.7285 16.7548C11.926 16.8554 12.1868 16.9245 12.6407 16.9616C13.0179 16.9924 13.4827 16.9985 14.1036 16.9997C14.4302 15.8456 15.4913 15 16.75 15C18.2688 15 19.5 16.2312 19.5 17.75C19.5 19.2688 18.2688 20.5 16.75 20.5C15.4911 20.5 14.4298 19.6541 14.1035 18.4998C13.4783 18.4987 12.9561 18.4924 12.5185 18.4566C11.9719 18.412 11.4918 18.3176 11.0475 18.0913C10.3419 17.7317 9.76825 17.1581 9.40873 16.4525C9.18239 16.0082 9.08803 15.5281 9.04336 14.9815C8.99999 14.4506 8.99999 13.795 9 12.9821V10.5H5.39648C5.07002 11.6543 4.00878 12.5 2.75 12.5C1.23122 12.5 0 11.2688 0 9.75C0 8.23122 1.23122 7 2.75 7C4.00878 7 5.07002 7.84575 5.39648 9H9V6.51788C8.99999 5.70505 8.99999 5.04944 9.04336 4.51853C9.08803 3.9719 9.18239 3.49175 9.40873 3.04754C9.76825 2.34193 10.3419 1.76825 11.0475 1.40873C11.4918 1.18238 11.9719 1.08803 12.5185 1.04336C12.9561 1.00762 13.4783 1.00133 14.1035 1.00023ZM2.75 8.5C2.05964 8.5 1.5 9.05964 1.5 9.75C1.5 10.4404 2.05964 11 2.75 11C3.44036 11 4 10.4404 4 9.75C4 9.05964 3.44036 8.5 2.75 8.5ZM16.75 8.5C16.0596 8.5 15.5 9.05964 15.5 9.75C15.5 10.4404 16.0596 11 16.75 11C17.4404 11 18 10.4404 18 9.75C18 9.05964 17.4404 8.5 16.75 8.5ZM16.75 16.5C16.0596 16.5 15.5 17.0596 15.5 17.75C15.5 18.4404 16.0596 19 16.75 19C17.4404 19 18 18.4404 18 17.75C18 17.0596 17.4404 16.5 16.75 16.5Z" fill="#878C95"/>
</g>
<defs>
<clipPath id="clip0_3605_1621">
<rect width="20" height="20" fill="white"/>
</clipPath>
</defs>
</svg>
