<svg width="20" height="20" viewBox="0 0 20 20" fill="none" xmlns="http://www.w3.org/2000/svg">
<g id="icon/qu&#225;&#186;&#163;n l&#195;&#189; nh&#195;&#162;n vi&#195;&#170;n">
<path id="Icon (Stroke)" fill-rule="evenodd" clip-rule="evenodd" d="M5.63926 1.04199H14.3594C15.0368 1.04199 15.5831 1.04198 16.0256 1.07813C16.4811 1.11535 16.8812 1.19398 17.2514 1.3826C17.8394 1.6822 18.3175 2.16027 18.6171 2.74827C18.8057 3.11845 18.8843 3.51857 18.9215 3.9741C18.9577 4.41652 18.9577 4.96286 18.9577 5.64022V14.3604C18.9577 15.0378 18.9577 15.5841 18.9215 16.0265C18.8843 16.4821 18.8057 16.8822 18.6171 17.2524C18.3175 17.8404 17.8394 18.3184 17.2514 18.6181C17.1216 18.6842 16.9875 18.7372 16.8472 18.7797C16.2551 18.9591 15.4939 18.9589 14.4463 18.9587C14.4088 18.9587 14.3709 18.9587 14.3327 18.9587H5.66602C5.62778 18.9587 5.58991 18.9587 5.55241 18.9587C4.50477 18.9589 3.74359 18.9591 3.15148 18.7797C3.01122 18.7372 2.87706 18.6842 2.7473 18.6181C2.15929 18.3184 1.68122 17.8404 1.38162 17.2524C1.193 16.8822 1.11437 16.4821 1.07715 16.0265C1.041 15.5841 1.04101 15.0378 1.04102 14.3604V5.64024C1.04101 4.96287 1.041 4.41653 1.07715 3.9741C1.11437 3.51857 1.193 3.11845 1.38162 2.74827C1.68122 2.16027 2.15929 1.6822 2.7473 1.3826C3.11748 1.19398 3.5176 1.11535 3.97313 1.07813C4.41555 1.04198 4.9619 1.04199 5.63926 1.04199ZM4.07492 2.32398C3.69669 2.35488 3.47938 2.41249 3.31478 2.49636C2.96198 2.67612 2.67514 2.96296 2.49538 3.31576C2.41151 3.48036 2.3539 3.69766 2.323 4.07589C2.2915 4.46142 2.29102 4.95661 2.29102 5.66699V14.3337C2.29102 15.044 2.2915 15.5392 2.323 15.9248C2.3539 16.303 2.41151 16.5203 2.49538 16.6849C2.56213 16.8159 2.64363 16.9378 2.7378 17.0485C2.74868 16.9355 2.76351 16.8298 2.78374 16.7281C3.09608 15.1579 4.32355 13.9304 5.89378 13.618C6.27704 13.5418 6.72156 13.5419 7.41994 13.542C7.44605 13.542 7.47252 13.542 7.49935 13.542H12.4993C12.5262 13.542 12.5526 13.542 12.5788 13.542C13.2771 13.5419 13.7217 13.5418 14.1049 13.618C15.6751 13.9304 16.9026 15.1579 17.215 16.7281C17.2352 16.8298 17.25 16.9355 17.2609 17.0485C17.3551 16.9378 17.4366 16.8159 17.5033 16.6849C17.5872 16.5203 17.6448 16.303 17.6757 15.9248C17.7072 15.5392 17.7077 15.044 17.7077 14.3337V5.66699C17.7077 4.95661 17.7072 4.46142 17.6757 4.07589C17.6448 3.69766 17.5872 3.48036 17.5033 3.31576C17.3236 2.96296 17.0367 2.67612 16.6839 2.49636C16.5193 2.41249 16.302 2.35488 15.9238 2.32398C15.5383 2.29248 15.0431 2.29199 14.3327 2.29199H5.66602C4.95564 2.29199 4.46044 2.29248 4.07492 2.32398ZM16.0383 17.6666C16.0335 17.3225 16.0208 17.1322 15.989 16.972C15.7753 15.8976 14.9354 15.0577 13.8611 14.844C13.6146 14.795 13.3037 14.792 12.4993 14.792H7.49935C6.69497 14.792 6.38405 14.795 6.13765 14.844C5.06328 15.0577 4.22343 15.8976 4.00972 16.972C3.97785 17.1322 3.96519 17.3225 3.9604 17.6666C4.33287 17.7055 4.85293 17.7087 5.66602 17.7087H14.3327C15.1458 17.7087 15.6658 17.7055 16.0383 17.6666ZM9.99935 5.20866C8.50358 5.20866 7.29102 6.42122 7.29102 7.91699C7.29102 9.41276 8.50358 10.6253 9.99935 10.6253C11.4951 10.6253 12.7077 9.41276 12.7077 7.91699C12.7077 6.42122 11.4951 5.20866 9.99935 5.20866ZM6.04102 7.91699C6.04102 5.73087 7.81322 3.95866 9.99935 3.95866C12.1855 3.95866 13.9577 5.73087 13.9577 7.91699C13.9577 10.1031 12.1855 11.8753 9.99935 11.8753C7.81322 11.8753 6.04102 10.1031 6.04102 7.91699Z" fill="#308CFB"/>
</g>
</svg>
