<svg width="20" height="20" viewBox="0 0 20 20" fill="none" xmlns="http://www.w3.org/2000/svg">
<g id="icon/qly H&#196;&#144;">
<path id="Icon (Stroke)" fill-rule="evenodd" clip-rule="evenodd" d="M7.30674 1.04166H12.6936C13.371 1.04166 13.9173 1.04165 14.3597 1.0778C14.8153 1.11502 15.2154 1.19365 15.5856 1.38227C16.1736 1.68187 16.6516 2.15994 16.9512 2.74794C17.1398 3.11813 17.2185 3.51824 17.2557 3.97377C17.2918 4.4162 17.2918 4.96254 17.2918 5.63989V5.83333C17.2918 6.17851 17.012 6.45833 16.6668 6.45833C16.3217 6.45833 16.0418 6.17851 16.0418 5.83333V5.66666C16.0418 4.95629 16.0413 4.46109 16.0098 4.07556C15.9789 3.69733 15.9213 3.48003 15.8375 3.31543C15.6577 2.96263 15.3709 2.67579 15.0181 2.49603C14.8535 2.41216 14.6362 2.35455 14.2579 2.32365C13.8724 2.29215 13.3772 2.29166 12.6668 2.29166H7.3335C6.62312 2.29166 6.12792 2.29215 5.7424 2.32365C5.36417 2.35455 5.14686 2.41216 4.98226 2.49603C4.62946 2.67579 4.34262 2.96263 4.16286 3.31543C4.07899 3.48003 4.02138 3.69733 3.99048 4.07556C3.95898 4.46109 3.9585 4.95629 3.9585 5.66666V14.3333C3.9585 15.0437 3.95898 15.5389 3.99048 15.9244C4.02138 16.3027 4.07899 16.52 4.16286 16.6846C4.34262 17.0374 4.62946 17.3242 4.98226 17.504C5.14686 17.5878 5.36417 17.6454 5.7424 17.6763C6.12792 17.7078 6.62312 17.7083 7.3335 17.7083H10.4168C10.762 17.7083 11.0418 17.9882 11.0418 18.3333C11.0418 18.6785 10.762 18.9583 10.4168 18.9583H7.30673C6.62937 18.9583 6.08303 18.9583 5.64061 18.9222C5.18508 18.885 4.78496 18.8063 4.41478 18.6177C3.82677 18.3181 3.34871 17.8401 3.0491 17.2521C2.86048 16.8819 2.78185 16.4818 2.74463 16.0262C2.70849 15.5838 2.70849 15.0374 2.7085 14.3601V5.63991C2.70849 4.96254 2.70849 4.4162 2.74463 3.97377C2.78185 3.51824 2.86048 3.11813 3.0491 2.74794C3.34871 2.15994 3.82677 1.68187 4.41478 1.38227C4.78496 1.19365 5.18508 1.11502 5.64061 1.0778C6.08303 1.04165 6.62938 1.04166 7.30674 1.04166ZM6.04183 5.83333C6.04183 5.48815 6.32165 5.20833 6.66683 5.20833H13.3335C13.6787 5.20833 13.9585 5.48815 13.9585 5.83333C13.9585 6.17851 13.6787 6.45833 13.3335 6.45833H6.66683C6.32165 6.45833 6.04183 6.17851 6.04183 5.83333ZM6.04183 9.16666C6.04183 8.82149 6.32165 8.54166 6.66683 8.54166H10.4168C10.762 8.54166 11.0418 8.82149 11.0418 9.16666C11.0418 9.51184 10.762 9.79166 10.4168 9.79166H6.66683C6.32165 9.79166 6.04183 9.51184 6.04183 9.16666ZM16.2502 9.79166C15.905 9.79166 15.6252 10.0715 15.6252 10.4167V15C15.6252 15.3452 15.3453 15.625 15.0002 15.625C14.655 15.625 14.3752 15.3452 14.3752 15V10.4167C14.3752 9.38113 15.2146 8.54166 16.2502 8.54166C17.2857 8.54166 18.1252 9.38113 18.1252 10.4167V15C18.1252 16.7259 16.7261 18.125 15.0002 18.125C13.2743 18.125 11.8752 16.7259 11.8752 15V11.6667C11.8752 11.3215 12.155 11.0417 12.5002 11.0417C12.8453 11.0417 13.1252 11.3215 13.1252 11.6667V15C13.1252 16.0355 13.9646 16.875 15.0002 16.875C16.0357 16.875 16.8752 16.0355 16.8752 15V10.4167C16.8752 10.0715 16.5953 9.79166 16.2502 9.79166ZM6.04183 12.5C6.04183 12.1548 6.32165 11.875 6.66683 11.875H9.5835C9.92867 11.875 10.2085 12.1548 10.2085 12.5C10.2085 12.8452 9.92867 13.125 9.5835 13.125H6.66683C6.32165 13.125 6.04183 12.8452 6.04183 12.5Z" fill="#308CFB"/>
</g>
</svg>
