<svg width="20" height="20" viewBox="0 0 20 20" fill="none" xmlns="http://www.w3.org/2000/svg">
<g id="icon/nh&#195;&#162;n vi&#195;&#170;n">
<path id="Icon (Stroke)" fill-rule="evenodd" clip-rule="evenodd" d="M7.91654 3.125C6.19065 3.125 4.79154 4.52411 4.79154 6.25C4.79154 7.97589 6.19065 9.375 7.91654 9.375C9.64243 9.375 11.0415 7.97589 11.0415 6.25C11.0415 4.52411 9.64243 3.125 7.91654 3.125ZM3.54154 6.25C3.54154 3.83375 5.50029 1.875 7.91654 1.875C10.3328 1.875 12.2915 3.83375 12.2915 6.25C12.2915 8.66625 10.3328 10.625 7.91654 10.625C5.50029 10.625 3.54154 8.66625 3.54154 6.25ZM12.7735 2.61165C12.9271 2.30254 13.3022 2.17649 13.6114 2.3301C15.0504 3.04525 16.0415 4.5313 16.0415 6.25C16.0415 7.9687 15.0504 9.45475 13.6114 10.1699C13.3022 10.3235 12.9271 10.1975 12.7735 9.88834C12.6199 9.57923 12.7459 9.20412 13.0551 9.0505C14.0855 8.5384 14.7915 7.47607 14.7915 6.25C14.7915 5.02393 14.0855 3.9616 13.0551 3.4495C12.7459 3.29588 12.6199 2.92077 12.7735 2.61165ZM7.91654 13.125C5.79769 13.125 3.88372 14.2802 2.65275 16.1284C2.4983 16.3603 2.41674 16.485 2.3684 16.5836C2.33336 16.6551 2.33588 16.6736 2.33651 16.6783C2.33655 16.6783 2.33746 16.6855 2.34204 16.7002C2.34746 16.7177 2.35613 16.7389 2.36807 16.7612C2.38001 16.7835 2.39286 16.8024 2.40437 16.8166C2.41229 16.8264 2.4176 16.8315 2.41929 16.833C2.4202 16.8335 2.42332 16.835 2.42969 16.8372C2.44505 16.8424 2.4773 16.8509 2.53933 16.8581C2.67614 16.874 2.86363 16.875 3.18517 16.875H12.6479C12.9694 16.875 13.1569 16.874 13.2937 16.8581C13.3558 16.8509 13.388 16.8424 13.4034 16.8372C13.4097 16.835 13.4129 16.8335 13.4138 16.833C13.4155 16.8315 13.4208 16.8264 13.4287 16.8166C13.4402 16.8024 13.4531 16.7835 13.465 16.7612C13.4769 16.7389 13.4856 16.7177 13.491 16.7002C13.4956 16.6855 13.4965 16.6779 13.4965 16.6779C13.4972 16.6732 13.4997 16.6551 13.4647 16.5836C13.4163 16.485 13.3348 16.3603 13.1803 16.1284C11.9494 14.2802 10.0354 13.125 7.91654 13.125ZM1.61237 15.4355C3.03859 13.2941 5.31767 11.875 7.91654 11.875C10.5154 11.875 12.7945 13.2941 14.2207 15.4355C14.2263 15.444 14.232 15.4524 14.2376 15.4609C14.3685 15.6574 14.4979 15.8515 14.587 16.0333C14.6909 16.2451 14.7608 16.4781 14.7442 16.754C14.731 16.9735 14.6575 17.1821 14.567 17.3512C14.4764 17.5204 14.3435 17.6972 14.1682 17.8298C13.9345 18.0066 13.6796 18.0717 13.4382 18.0997C13.2204 18.1251 12.9589 18.125 12.6784 18.125H3.15463C2.87422 18.125 2.6127 18.1251 2.3949 18.0997C2.15352 18.0717 1.8986 18.0066 1.6649 17.8298C1.48955 17.6972 1.35668 17.5204 1.26611 17.3512C1.17553 17.1821 1.10203 16.9735 1.08885 16.754C1.07229 16.4781 1.14221 16.2451 1.24603 16.0333C1.33519 15.8515 1.46455 15.6574 1.59545 15.4609L1.61237 15.4355ZM14.4414 12.9168C14.5963 12.6084 14.972 12.484 15.2804 12.6389C16.6053 13.3044 17.7288 14.3659 18.5436 15.6784C18.5523 15.6925 18.5612 15.7067 18.5701 15.7209C18.6961 15.9227 18.8357 16.1464 18.8817 16.4433C18.9341 16.7814 18.8427 17.1115 18.7003 17.3674C18.558 17.6233 18.3258 17.8751 18.0109 18.0089C17.7332 18.1269 17.4318 18.126 17.1522 18.1251C17.1291 18.1251 17.1061 18.125 17.0832 18.125C16.738 18.125 16.4582 17.8452 16.4582 17.5C16.4582 17.1548 16.738 16.875 17.0832 16.875C17.2682 16.875 17.3721 16.8746 17.4499 16.8686C17.4846 16.8659 17.5036 16.8627 17.5134 16.8606C17.518 16.8597 17.5204 16.859 17.5212 16.8587L17.5221 16.8584C17.5205 16.8591 17.5317 16.8544 17.5508 16.8359C17.5697 16.8176 17.5902 16.7916 17.6079 16.7597C17.6257 16.7279 17.6369 16.6967 17.6425 16.6711C17.6478 16.6467 17.6464 16.6346 17.6464 16.6346C17.6454 16.6275 17.6437 16.6163 17.6262 16.5814C17.6009 16.5311 17.5621 16.4674 17.4816 16.3377C16.7778 15.204 15.821 14.3093 14.7193 13.7559C14.4109 13.6009 14.2864 13.2253 14.4414 12.9168Z" fill="#878C95"/>
</g>
</svg>
