<svg width="20" height="20" viewBox="0 0 20 20" fill="none" xmlns="http://www.w3.org/2000/svg">
<g id="icon/l&#198;&#176;&#198;&#161;ng">
<path id="Icon (Stroke)" fill-rule="evenodd" clip-rule="evenodd" d="M4.30781 3.54166L15.6919 3.54167C16.137 3.54166 16.5085 3.54165 16.8121 3.56645C17.1286 3.59231 17.4258 3.64824 17.7069 3.79144C18.1381 4.01115 18.4887 4.36173 18.7084 4.79294C18.8516 5.07399 18.9075 5.3712 18.9334 5.68778C18.9582 5.9913 18.9582 6.36283 18.9582 6.80795V13.192C18.9582 13.6372 18.9582 14.0087 18.9334 14.3122C18.9075 14.6288 18.8516 14.926 18.7084 15.2071C18.4887 15.6383 18.1381 15.9888 17.7069 16.2086C17.4258 16.3518 17.1286 16.4077 16.8121 16.4335C16.5085 16.4583 16.137 16.4583 15.6919 16.4583L4.30779 16.4583C3.86267 16.4583 3.49114 16.4583 3.18761 16.4335C2.87104 16.4077 2.57383 16.3518 2.29278 16.2086C1.86157 15.9888 1.51099 15.6383 1.29128 15.2071C1.14808 14.926 1.09215 14.6288 1.06629 14.3122C1.04149 14.0087 1.0415 13.6372 1.0415 13.192L1.0415 6.80797C1.0415 6.36284 1.04149 5.9913 1.06629 5.68777C1.09215 5.3712 1.14808 5.07399 1.29128 4.79294C1.51099 4.36173 1.86157 4.01115 2.29278 3.79144C2.57383 3.64824 2.87104 3.59231 3.18761 3.56645C3.49114 3.54165 3.86268 3.54166 4.30781 3.54166ZM3.2894 4.8123C3.05013 4.83185 2.93573 4.86675 2.86026 4.9052C2.66426 5.00507 2.50491 5.16442 2.40504 5.36042C2.36659 5.43589 2.33168 5.55029 2.31214 5.78956C2.29199 6.03613 2.2915 6.35631 2.2915 6.83333L2.2915 13.1667C2.2915 13.6437 2.29199 13.9639 2.31214 14.2104C2.33168 14.4497 2.36659 14.5641 2.40504 14.6396C2.50491 14.8356 2.66426 14.9949 2.86026 15.0948C2.93573 15.1332 3.05013 15.1681 3.2894 15.1877C3.53597 15.2078 3.85615 15.2083 4.33317 15.2083L15.6665 15.2083C16.1435 15.2083 16.4637 15.2078 16.7103 15.1877C16.9495 15.1682 17.0639 15.1333 17.1394 15.0948C17.3354 14.9949 17.4948 14.8356 17.5946 14.6396C17.6331 14.5641 17.668 14.4497 17.6875 14.2104C17.7077 13.9639 17.7082 13.6437 17.7082 13.1667V6.83333C17.7082 6.35631 17.7077 6.03613 17.6875 5.78956C17.668 5.55029 17.6331 5.43589 17.5946 5.36043C17.4948 5.16442 17.3354 5.00507 17.1394 4.9052C17.0639 4.86675 16.9495 4.83185 16.7103 4.8123C16.4637 4.79215 16.1435 4.79167 15.6665 4.79167L4.33317 4.79166C3.85615 4.79166 3.53597 4.79215 3.2894 4.8123ZM9.99984 6.04166C10.345 6.04166 10.6248 6.32149 10.6248 6.66666V6.875H11.6665C12.0117 6.875 12.2915 7.15482 12.2915 7.5C12.2915 7.84518 12.0117 8.125 11.6665 8.125H9.58317C9.23799 8.125 8.95817 8.40482 8.95817 8.75C8.95817 9.09518 9.23799 9.375 9.58317 9.375H10.4165C11.452 9.375 12.2915 10.2145 12.2915 11.25C12.2915 12.2151 11.5623 13.0099 10.6248 13.1136V13.3333C10.6248 13.6785 10.345 13.9583 9.99984 13.9583C9.65466 13.9583 9.37484 13.6785 9.37484 13.3333V13.125H8.33317C7.98799 13.125 7.70817 12.8452 7.70817 12.5C7.70817 12.1548 7.98799 11.875 8.33317 11.875H10.4165C10.7617 11.875 11.0415 11.5952 11.0415 11.25C11.0415 10.9048 10.7617 10.625 10.4165 10.625H9.58317C8.54764 10.625 7.70817 9.78553 7.70817 8.75C7.70817 7.78488 8.43735 6.99008 9.37484 6.88644V6.66666C9.37484 6.32149 9.65466 6.04166 9.99984 6.04166ZM3.95817 10C3.95817 9.4247 4.42454 8.95833 4.99984 8.95833C5.57513 8.95833 6.0415 9.4247 6.0415 10C6.0415 10.5753 5.57513 11.0417 4.99984 11.0417C4.42454 11.0417 3.95817 10.5753 3.95817 10ZM13.9582 10C13.9582 9.4247 14.4245 8.95833 14.9998 8.95833C15.5751 8.95833 16.0415 9.4247 16.0415 10C16.0415 10.5753 15.5751 11.0417 14.9998 11.0417C14.4245 11.0417 13.9582 10.5753 13.9582 10Z" fill="#308CFB"/>
</g>
</svg>
