<svg width="20" height="20" viewBox="0 0 20 20" fill="none" xmlns="http://www.w3.org/2000/svg">
<g id="icon/&#196;&#145;&#198;&#161;n xin">
<path id="Icon (Stroke)" fill-rule="evenodd" clip-rule="evenodd" d="M7.97836 1.04167H12.0221C12.2366 1.04166 12.4337 1.04164 12.5984 1.0551C12.776 1.06961 12.9704 1.10283 13.1623 1.20062C13.4367 1.34044 13.6598 1.56354 13.7996 1.83794C13.8974 2.02986 13.9306 2.22417 13.9451 2.40178C13.9527 2.4952 13.956 2.59902 13.9575 2.71053C14.3682 2.71649 14.6891 2.73802 14.9757 2.81482C16.0541 3.10378 16.8964 3.94612 17.1854 5.02453C17.2923 5.42342 17.2921 5.88855 17.2919 6.57019C17.2919 6.60188 17.2919 6.63403 17.2919 6.66667V14.3601C17.2919 15.0375 17.2919 15.5838 17.2557 16.0262C17.2185 16.4818 17.1399 16.8819 16.9513 17.2521C16.6517 17.8401 16.1736 18.3181 15.5856 18.6177C15.2154 18.8064 14.8153 18.885 14.3598 18.9222C13.9173 18.9584 13.371 18.9583 12.6936 18.9583H7.30677C6.62941 18.9583 6.08307 18.9584 5.64065 18.9222C5.18512 18.885 4.785 18.8064 4.41482 18.6177C3.82681 18.3181 3.34875 17.8401 3.04914 17.2521C2.86052 16.8819 2.78189 16.4818 2.74467 16.0262C2.70853 15.5838 2.70853 15.0375 2.70854 14.3601L2.70854 6.66667C2.70854 6.63403 2.70853 6.60187 2.70852 6.57018C2.70829 5.88854 2.70814 5.42342 2.81502 5.02453C3.10398 3.94612 3.94631 3.10378 5.02473 2.81482C5.31135 2.73802 5.63217 2.71649 6.04294 2.71053C6.04437 2.59902 6.04767 2.4952 6.0553 2.40178C6.06981 2.22417 6.10303 2.02986 6.20082 1.83794C6.34064 1.56353 6.56373 1.34044 6.83813 1.20062C7.03006 1.10283 7.22437 1.06961 7.40198 1.0551C7.56672 1.04164 7.76378 1.04166 7.97836 1.04167ZM6.04301 3.96138C5.67977 3.96691 5.4983 3.98203 5.34825 4.02223C4.7012 4.19561 4.1958 4.70101 4.02243 5.34805C3.96391 5.56646 3.95854 5.85146 3.95854 6.66667V14.3333C3.95854 15.0437 3.95902 15.5389 3.99052 15.9244C4.02142 16.3027 4.07903 16.52 4.1629 16.6846C4.34266 17.0374 4.6295 17.3242 4.98231 17.504C5.1469 17.5878 5.36421 17.6455 5.74244 17.6764C6.12796 17.7079 6.62316 17.7083 7.33354 17.7083H12.6669C13.3772 17.7083 13.8724 17.7079 14.258 17.6764C14.6362 17.6455 14.8535 17.5878 15.0181 17.504C15.3709 17.3242 15.6577 17.0374 15.8375 16.6846C15.9214 16.52 15.979 16.3027 16.0099 15.9244C16.0414 15.5389 16.0419 15.0437 16.0419 14.3333V6.66667C16.0419 5.85146 16.0365 5.56646 15.978 5.34806C15.8046 4.70101 15.2992 4.19561 14.6522 4.02223C14.5021 3.98203 14.3206 3.96691 13.9574 3.96138C13.9559 4.07091 13.9526 4.17294 13.9451 4.2649C13.9306 4.44251 13.8974 4.63682 13.7996 4.82874C13.6598 5.10315 13.4367 5.32624 13.1623 5.46606C12.9704 5.56385 12.776 5.59707 12.5984 5.61158C12.4337 5.62504 12.2366 5.62502 12.022 5.62501H7.97836C7.76379 5.62502 7.56672 5.62504 7.40198 5.61158C7.22437 5.59707 7.03006 5.56385 6.83813 5.46606C6.56373 5.32624 6.34063 5.10315 6.20082 4.82874C6.10303 4.63682 6.06981 4.44251 6.0553 4.2649C6.04779 4.17294 6.04447 4.07091 6.04301 3.96138ZM12.7085 3.00001C12.7085 2.75634 12.7081 2.61118 12.6993 2.50357C12.6939 2.43789 12.6868 2.41029 12.6845 2.40289C12.6649 2.36569 12.6345 2.33529 12.5973 2.31569C12.5899 2.3134 12.5623 2.30632 12.4966 2.30095C12.389 2.29216 12.2439 2.29167 12.0002 2.29167H8.0002C7.75654 2.29167 7.61137 2.29216 7.50377 2.30095C7.43809 2.30632 7.41049 2.3134 7.40309 2.31569C7.36589 2.33529 7.33549 2.36569 7.31589 2.40289C7.31359 2.4103 7.30651 2.4379 7.30115 2.50357C7.29236 2.61118 7.29187 2.75634 7.29187 3.00001V3.66667C7.29187 3.91034 7.29236 4.0555 7.30115 4.16311C7.30651 4.22878 7.31359 4.25639 7.31589 4.26379C7.33549 4.30099 7.36589 4.33139 7.40309 4.35099C7.41049 4.35328 7.43809 4.36036 7.50377 4.36573C7.61137 4.37452 7.75654 4.37501 8.0002 4.37501H12.0002C12.2439 4.37501 12.389 4.37452 12.4966 4.36573C12.5623 4.36036 12.5899 4.35328 12.5973 4.35099C12.6345 4.33139 12.6649 4.30099 12.6845 4.26379C12.6868 4.25639 12.6939 4.22878 12.6993 4.16311C12.7081 4.0555 12.7085 3.91034 12.7085 3.66667V3.00001ZM12.6838 4.26594C12.6838 4.26592 12.6839 4.26549 12.6842 4.26471L12.6838 4.26594ZM12.5995 4.35023C12.5995 4.35024 12.5991 4.3504 12.5982 4.35069L12.5995 4.35023ZM7.40093 4.35023C7.40096 4.35023 7.40141 4.35037 7.40219 4.3507L7.40093 4.35023ZM7.31619 4.26471C7.31651 4.26548 7.31665 4.26592 7.31664 4.26594L7.31619 4.26471ZM7.31664 2.40074C7.31665 2.40076 7.31651 2.4012 7.31618 2.402L7.31664 2.40074ZM7.40217 2.31599C7.40139 2.31631 7.40096 2.31646 7.40093 2.31645L7.40217 2.31599ZM12.5982 2.31598C12.5991 2.31627 12.5995 2.31644 12.5995 2.31645L12.5982 2.31598ZM12.6838 2.40074C12.6838 2.40071 12.6839 2.4011 12.6842 2.40197L12.6838 2.40074ZM11.2502 8.54167C10.905 8.54167 10.6252 8.8215 10.6252 9.16667V12.9167C10.6252 13.2619 10.3454 13.5417 10.0002 13.5417C9.65503 13.5417 9.3752 13.2619 9.3752 12.9167V9.16667C9.3752 8.13114 10.2147 7.29167 11.2502 7.29167C12.2857 7.29167 13.1252 8.13114 13.1252 9.16667V12.9167C13.1252 14.6426 11.7261 16.0417 10.0002 16.0417C8.27431 16.0417 6.8752 14.6426 6.8752 12.9167V9.58334C6.8752 9.23816 7.15503 8.95834 7.5002 8.95834C7.84538 8.95834 8.1252 9.23816 8.1252 9.58334V12.9167C8.1252 13.9522 8.96467 14.7917 10.0002 14.7917C11.0357 14.7917 11.8752 13.9522 11.8752 12.9167V9.16667C11.8752 8.8215 11.5954 8.54167 11.2502 8.54167Z" fill="#878C95"/>
</g>
</svg>
