<svg width="20" height="20" viewBox="0 0 20 20" fill="none" xmlns="http://www.w3.org/2000/svg">
<g id="icon/t&#225;&#187;&#149;ng quan">
<path id="Icon (Stroke)" fill-rule="evenodd" clip-rule="evenodd" d="M6.47325 1.875H13.5268C14.2041 1.87499 14.7505 1.87499 15.1929 1.91114C15.6484 1.94835 16.0485 2.02699 16.4187 2.21561C17.0067 2.51521 17.4848 2.99327 17.7844 3.58128C17.973 3.95146 18.0516 4.35158 18.0889 4.80711C18.125 5.24953 18.125 5.79587 18.125 6.47323V13.5268C18.125 14.2041 18.125 14.7505 18.0889 15.1929C18.0516 15.6484 17.973 16.0485 17.7844 16.4187C17.4848 17.0067 17.0067 17.4848 16.4187 17.7844C16.0485 17.973 15.6484 18.0516 15.1929 18.0889C14.7505 18.125 14.2041 18.125 13.5268 18.125H6.47323C5.79587 18.125 5.24953 18.125 4.80711 18.0889C4.35158 18.0516 3.95146 17.973 3.58128 17.7844C2.99327 17.4848 2.51521 17.0067 2.21561 16.4187C2.02699 16.0485 1.94835 15.6484 1.91114 15.1929C1.87499 14.7505 1.87499 14.2041 1.875 13.5268V6.47325C1.87499 5.79588 1.87499 5.24953 1.91114 4.80711C1.94835 4.35158 2.02699 3.95146 2.2156 3.58128C2.51521 2.99327 2.99327 2.51521 3.58128 2.2156C3.95146 2.02699 4.35158 1.94835 4.80711 1.91114C5.24953 1.87499 5.79588 1.87499 6.47325 1.875ZM3.125 8.125V13.5C3.125 14.2104 3.12549 14.7056 3.15699 15.0911C3.18789 15.4693 3.2455 15.6866 3.32936 15.8512C3.50913 16.204 3.79596 16.4909 4.14877 16.6706C4.31337 16.7545 4.53067 16.8121 4.9089 16.843C5.29443 16.8745 5.78962 16.875 6.5 16.875H6.875V8.125H3.125ZM3.125 6.875V6.5C3.125 5.78962 3.12549 5.29443 3.15699 4.9089C3.18789 4.53067 3.2455 4.31337 3.32936 4.14877C3.50913 3.79596 3.79596 3.50913 4.14877 3.32936C4.31337 3.2455 4.53067 3.18789 4.9089 3.15699C5.29443 3.12549 5.78962 3.125 6.5 3.125H13.5C14.2104 3.125 14.7056 3.12549 15.0911 3.15699C15.4693 3.18789 15.6866 3.2455 15.8512 3.32936C16.204 3.50913 16.4909 3.79596 16.6706 4.14877C16.7545 4.31337 16.8121 4.53067 16.843 4.9089C16.8745 5.29443 16.875 5.78962 16.875 6.5V6.875H3.125ZM8.125 8.125V16.875H13.5C14.2104 16.875 14.7056 16.8745 15.0911 16.843C15.4693 16.8121 15.6866 16.7545 15.8512 16.6706C16.204 16.4909 16.4909 16.204 16.6706 15.8512C16.7545 15.6866 16.8121 15.4693 16.843 15.0911C16.8745 14.7056 16.875 14.2104 16.875 13.5V8.125H8.125Z" fill="#308CFB"/>
</g>
</svg>
