<svg width="24" height="24" viewBox="0 0 24 24" fill="none" xmlns="http://www.w3.org/2000/svg">
<g id="icon/qtr h&#225;&#187;&#135; th&#225;&#187;&#145;ng">
<path id="Icon (Stroke)" fill-rule="evenodd" clip-rule="evenodd" d="M5.16957 1.25H18.8304C19.3646 1.24999 19.8104 1.24998 20.1747 1.27974C20.5546 1.31078 20.9112 1.37789 21.2485 1.54973C21.7659 1.81339 22.1866 2.23408 22.4503 2.75153C22.6221 3.08879 22.6892 3.44545 22.7203 3.82533C22.75 4.18956 22.75 4.6354 22.75 5.16955V6.83045C22.75 7.3646 22.75 7.81044 22.7203 8.17467C22.6892 8.55456 22.6221 8.91121 22.4503 9.24847C22.1866 9.76592 21.7659 10.1866 21.2485 10.4503C20.9112 10.6221 20.5546 10.6892 20.1747 10.7203C19.8104 10.75 19.3646 10.75 18.8305 10.75H5.16955C4.6354 10.75 4.18956 10.75 3.82533 10.7203C3.44545 10.6892 3.08879 10.6221 2.75153 10.4503C2.23408 10.1866 1.81338 9.76592 1.54973 9.24847C1.37789 8.91121 1.31078 8.55456 1.27974 8.17467C1.24998 7.81044 1.24999 7.36459 1.25 6.83044V5.16957C1.24999 4.63541 1.24998 4.18956 1.27974 3.82533C1.31078 3.44545 1.37789 3.08879 1.54973 2.75153C1.81338 2.23408 2.23408 1.81338 2.75153 1.54973C3.08879 1.37789 3.44545 1.31078 3.82533 1.27974C4.18956 1.24998 4.63541 1.24999 5.16957 1.25ZM3.94748 2.77476C3.66036 2.79822 3.52307 2.8401 3.43251 2.88624C3.19731 3.00608 3.00608 3.19731 2.88624 3.43251C2.8401 3.52307 2.79822 3.66036 2.77476 3.94748C2.75058 4.24336 2.75 4.62757 2.75 5.2V6.8C2.75 7.37243 2.75058 7.75664 2.77476 8.05252C2.79822 8.33965 2.8401 8.47693 2.88624 8.56749C3.00608 8.80269 3.19731 8.99392 3.43251 9.11376C3.52307 9.1599 3.66036 9.20178 3.94748 9.22524C4.24336 9.24942 4.62757 9.25 5.2 9.25H18.8C19.3724 9.25 19.7566 9.24942 20.0525 9.22524C20.3396 9.20178 20.4769 9.1599 20.5675 9.11376C20.8027 8.99392 20.9939 8.80269 21.1138 8.56749C21.1599 8.47693 21.2018 8.33965 21.2252 8.05252C21.2494 7.75664 21.25 7.37243 21.25 6.8V5.2C21.25 4.62757 21.2494 4.24336 21.2252 3.94748C21.2018 3.66036 21.1599 3.52307 21.1138 3.43251C20.9939 3.19731 20.8027 3.00608 20.5675 2.88624C20.4769 2.8401 20.3396 2.79822 20.0525 2.77476C19.7566 2.75058 19.3724 2.75 18.8 2.75H5.2C4.62757 2.75 4.24336 2.75058 3.94748 2.77476ZM5.25 6C5.25 5.58579 5.58579 5.25 6 5.25H6.01C6.42421 5.25 6.76 5.58579 6.76 6C6.76 6.41421 6.42421 6.75 6.01 6.75H6C5.58579 6.75 5.25 6.41421 5.25 6ZM5.16955 13.25H18.8305C19.3646 13.25 19.8104 13.25 20.1747 13.2797C20.5546 13.3108 20.9112 13.3779 21.2485 13.5497C21.7659 13.8134 22.1866 14.2341 22.4503 14.7515C22.6221 15.0888 22.6892 15.4454 22.7203 15.8253C22.75 16.1896 22.75 16.6354 22.75 17.1695V18.8305C22.75 19.3646 22.75 19.8104 22.7203 20.1747C22.6892 20.5546 22.6221 20.9112 22.4503 21.2485C22.1866 21.7659 21.7659 22.1866 21.2485 22.4503C20.9112 22.6221 20.5546 22.6892 20.1747 22.7203C19.8104 22.75 19.3646 22.75 18.8305 22.75H5.16955C4.6354 22.75 4.18956 22.75 3.82533 22.7203C3.44545 22.6892 3.08879 22.6221 2.75153 22.4503C2.23408 22.1866 1.81339 21.7659 1.54973 21.2485C1.37789 20.9112 1.31078 20.5546 1.27974 20.1747C1.24998 19.8104 1.24999 19.3646 1.25 18.8304V17.1696C1.24999 16.6354 1.24998 16.1896 1.27974 15.8253C1.31078 15.4454 1.37789 15.0888 1.54973 14.7515C1.81338 14.2341 2.23408 13.8134 2.75153 13.5497C3.08879 13.3779 3.44545 13.3108 3.82533 13.2797C4.18956 13.25 4.6354 13.25 5.16955 13.25ZM3.94748 14.7748C3.66036 14.7982 3.52307 14.8401 3.43251 14.8862C3.19731 15.0061 3.00608 15.1973 2.88624 15.4325C2.8401 15.5231 2.79822 15.6604 2.77476 15.9475C2.75058 16.2434 2.75 16.6276 2.75 17.2V18.8C2.75 19.3724 2.75058 19.7566 2.77476 20.0525C2.79822 20.3396 2.8401 20.4769 2.88624 20.5675C3.00608 20.8027 3.19731 20.9939 3.43251 21.1138C3.52307 21.1599 3.66036 21.2018 3.94748 21.2252C4.24336 21.2494 4.62757 21.25 5.2 21.25H18.8C19.3724 21.25 19.7566 21.2494 20.0525 21.2252C20.3396 21.2018 20.4769 21.1599 20.5675 21.1138C20.8027 20.9939 20.9939 20.8027 21.1138 20.5675C21.1599 20.4769 21.2018 20.3396 21.2252 20.0525C21.2494 19.7566 21.25 19.3724 21.25 18.8V17.2C21.25 16.6276 21.2494 16.2434 21.2252 15.9475C21.2018 15.6604 21.1599 15.5231 21.1138 15.4325C20.9939 15.1973 20.8027 15.0061 20.5675 14.8862C20.4769 14.8401 20.3396 14.7982 20.0525 14.7748C19.7566 14.7506 19.3724 14.75 18.8 14.75H5.2C4.62757 14.75 4.24336 14.7506 3.94748 14.7748ZM5.25 18C5.25 17.5858 5.58579 17.25 6 17.25H6.01C6.42421 17.25 6.76 17.5858 6.76 18C6.76 18.4142 6.42421 18.75 6.01 18.75H6C5.58579 18.75 5.25 18.4142 5.25 18Z" fill="#878C95"/>
</g>
</svg>
