<svg width="20" height="20" viewBox="0 0 20 20" fill="none" xmlns="http://www.w3.org/2000/svg">
<g id="icon/th&#225;&#187;&#157;i gian bi&#225;&#187;&#131;u">
<path id="Icon (Stroke)" fill-rule="evenodd" clip-rule="evenodd" d="M6.66667 1.04199C7.01185 1.04199 7.29167 1.32181 7.29167 1.66699V2.70866H12.7083V1.66699C12.7083 1.32181 12.9882 1.04199 13.3333 1.04199C13.6785 1.04199 13.9583 1.32181 13.9583 1.66699V2.70905C14.4413 2.71043 14.8486 2.71666 15.1929 2.7448C15.6484 2.78201 16.0485 2.86065 16.4187 3.04926C17.0067 3.34887 17.4848 3.82693 17.7844 4.41494C17.973 4.78512 18.0516 5.18524 18.0889 5.64077C18.125 6.08319 18.125 6.62953 18.125 7.30689V14.3604C18.125 15.0378 18.125 15.5841 18.0889 16.0265C18.0516 16.4821 17.973 16.8822 17.7844 17.2524C17.4848 17.8404 17.0067 18.3185 16.4187 18.6181C16.0485 18.8067 15.6484 18.8853 15.1929 18.9225C14.7505 18.9587 14.2041 18.9587 13.5268 18.9587H6.47323C5.79587 18.9587 5.24953 18.9587 4.80711 18.9225C4.35158 18.8853 3.95146 18.8067 3.58128 18.6181C2.99327 18.3185 2.51521 17.8404 2.2156 17.2524C2.02699 16.8822 1.94835 16.4821 1.91114 16.0265C1.87499 15.5841 1.87499 15.0378 1.875 14.3604V7.3069C1.87499 6.62954 1.87499 6.08319 1.91114 5.64077C1.94835 5.18524 2.02699 4.78512 2.2156 4.41494C2.51521 3.82693 2.99327 3.34887 3.58128 3.04926C3.95146 2.86065 4.35158 2.78201 4.80711 2.7448C5.15143 2.71666 5.55869 2.71043 6.04167 2.70905V1.66699C6.04167 1.32181 6.32149 1.04199 6.66667 1.04199ZM6.04167 3.95911C5.56711 3.96053 5.20554 3.96641 4.9089 3.99064C4.53067 4.02155 4.31337 4.07916 4.14877 4.16302C3.79596 4.34278 3.50913 4.62962 3.32936 4.98243C3.2455 5.14702 3.18789 5.36433 3.15699 5.74256C3.12549 6.12808 3.125 6.62328 3.125 7.33366V7.70866H16.875V7.33366C16.875 6.62328 16.8745 6.12809 16.843 5.74256C16.8121 5.36433 16.7545 5.14702 16.6706 4.98243C16.4909 4.62962 16.204 4.34278 15.8512 4.16302C15.6866 4.07916 15.4693 4.02155 15.0911 3.99064C14.7945 3.96641 14.4329 3.96053 13.9583 3.95911V5.00033C13.9583 5.3455 13.6785 5.62533 13.3333 5.62533C12.9882 5.62533 12.7083 5.3455 12.7083 5.00033V3.95866H7.29167V5.00033C7.29167 5.3455 7.01185 5.62533 6.66667 5.62533C6.32149 5.62533 6.04167 5.3455 6.04167 5.00033V3.95911ZM16.875 8.95866H3.125V14.3337C3.125 15.044 3.12549 15.5392 3.15699 15.9248C3.18789 16.303 3.2455 16.5203 3.32936 16.6849C3.50913 17.0377 3.79596 17.3245 4.14877 17.5043C4.31337 17.5882 4.53067 17.6458 4.9089 17.6767C5.29443 17.7082 5.78962 17.7087 6.5 17.7087H13.5C14.2104 17.7087 14.7056 17.7082 15.0911 17.6767C15.4693 17.6458 15.6866 17.5882 15.8512 17.5043C16.204 17.3245 16.4909 17.0377 16.6706 16.6849C16.7545 16.5203 16.8121 16.303 16.843 15.9248C16.8745 15.5392 16.875 15.044 16.875 14.3337V8.95866Z" fill="#878C95"/>
</g>
</svg>
