<svg width="20" height="20" viewBox="0 0 20 20" fill="none" xmlns="http://www.w3.org/2000/svg">
<g id="icon/ch&#225;&#186;&#165;m c&#195;&#180;ng">
<path id="Icon (Stroke)" fill-rule="evenodd" clip-rule="evenodd" d="M7.70768 1.66699C7.70768 1.32181 7.9875 1.04199 8.33268 1.04199H11.666C12.0112 1.04199 12.291 1.32181 12.291 1.66699C12.291 2.01217 12.0112 2.29199 11.666 2.29199H10.6243V3.56696C14.5893 3.8851 17.7077 7.20354 17.7077 11.2503C17.7077 15.5075 14.2565 18.9587 9.99935 18.9587C5.74215 18.9587 2.29102 15.5075 2.29102 11.2503C2.29102 7.20354 5.40944 3.8851 9.37435 3.56696V2.29199H8.33268C7.9875 2.29199 7.70768 2.01217 7.70768 1.66699ZM4.75047 2.96842C4.99455 3.2125 4.99455 3.60822 4.75047 3.8523L3.50047 5.1023C3.2564 5.34638 2.86067 5.34638 2.61659 5.1023C2.37251 4.85822 2.37251 4.4625 2.61659 4.21842L3.24142 3.59359C3.24137 3.59364 3.24148 3.59353 3.24142 3.59359L3.86659 2.96842C4.11067 2.72434 4.5064 2.72434 4.75047 2.96842ZM15.2482 2.96842C15.4923 2.72434 15.888 2.72434 16.1321 2.96842L16.7571 3.59342C16.757 3.59327 16.7573 3.59357 16.7571 3.59342L17.3821 4.21842C17.6262 4.4625 17.6262 4.85822 17.3821 5.1023C17.138 5.34638 16.7423 5.34638 16.4982 5.1023L15.2482 3.8523C15.0041 3.60822 15.0041 3.2125 15.2482 2.96842ZM9.99935 4.79199C6.43251 4.79199 3.54102 7.68349 3.54102 11.2503C3.54102 14.8172 6.43251 17.7087 9.99935 17.7087C13.5662 17.7087 16.4577 14.8172 16.4577 11.2503C16.4577 7.68349 13.5662 4.79199 9.99935 4.79199ZM9.99935 7.29199C10.3445 7.29199 10.6243 7.57181 10.6243 7.91699V10.8965L12.4042 11.9644C12.7002 12.142 12.7962 12.5259 12.6186 12.8219C12.441 13.1179 12.0571 13.2139 11.7611 13.0363L9.67779 11.7863C9.48954 11.6733 9.37435 11.4699 9.37435 11.2503V7.91699C9.37435 7.57181 9.65417 7.29199 9.99935 7.29199Z" fill="#878C95"/>
</g>
</svg>
