<svg width="19" height="20" viewBox="0 0 19 20" fill="none" xmlns="http://www.w3.org/2000/svg">
<path d="M15.8441 1.00049C15.8441 0.448204 15.3964 0.000488281 14.8441 0.000488281H1C0.447715 0.000488281 0 0.448204 0 1.00049V14.8446C0 15.3969 0.447716 15.8446 1 15.8446H8.23012L12.7587 15.844L16 17.1208L15.8441 11.8836V7.92255V1.00049Z" fill="#59C3FF"/>
<path d="M18.0579 3C18.0579 2.44771 17.6102 2 17.0579 2H4.05789C3.50561 2 3.05789 2.44772 3.05789 3V16.9299C3.05789 17.4822 3.50561 17.9299 4.05789 17.9299H10.8495L15.1369 17.9293L18.0579 20.045V13.9474V9.96496V3Z" fill="#5973FC"/>
<path d="M10.6461 13.7144C10.6461 14.0393 10.3828 14.3026 10.0579 14.3026C9.73307 14.3026 9.46973 14.0393 9.46973 13.7144C9.46973 13.3896 9.73307 13.1262 10.0579 13.1262C10.3828 13.1262 10.6461 13.3896 10.6461 13.7144Z" fill="white" stroke="white" stroke-width="0.2"/>
<path d="M10.0579 11.8028C9.81436 11.8028 9.61672 11.6051 9.61672 11.3616V10.7675C9.61672 10.2075 9.97205 9.70569 10.5002 9.51925C11.2031 9.27163 11.6756 8.52274 11.6756 7.97925C11.6756 7.08689 10.9502 6.36159 10.0579 6.36159C9.16553 6.36159 8.44023 7.08689 8.44023 7.97925C8.44023 8.22277 8.24259 8.42042 7.99906 8.42042C7.75554 8.42042 7.55789 8.22277 7.55789 7.97925C7.55789 6.60102 8.67913 5.47925 10.0579 5.47925C11.4367 5.47925 12.5579 6.60102 12.5579 7.97925C12.5579 8.96046 11.7832 10.0022 10.7937 10.3516C10.6173 10.4133 10.4991 10.5809 10.4991 10.768V11.3616C10.4991 11.6051 10.3014 11.8028 10.0579 11.8028Z" fill="white" stroke="white" stroke-width="0.2"/>
</svg>
